{"glyphs":{"0":{"ha":935,"x_min":61,"x_max":874,"o":"m 467 -14 q 259 44 351 -14 q 114 215 167 103 q 61 486 61 326 q 114 758 61 646 q 259 928 167 869 q 467 986 351 986 q 675 928 583 986 q 820 758 767 869 q 874 486 874 646 q 820 215 874 326 q 675 44 767 103 q 467 -14 583 -14 m 467 143 q 585 180 535 143 q 663 293 635 217 q 692 486 692 369 q 663 680 692 604 q 585 792 635 756 q 467 829 535 829 q 351 792 401 829 q 272 680 300 756 q 243 486 243 604 q 272 293 243 369 q 351 180 300 217 q 467 143 401 143 z "},"1":{"ha":529,"x_min":11,"x_max":397,"o":"m 217 0 l 217 903 l 296 821 l 11 821 l 11 972 l 397 972 l 397 0 l 217 0 z "},"2":{"ha":808,"x_min":11,"x_max":765,"o":"m 49 0 l 49 121 l 435 488 q 507 568 483 533 q 538 633 531 603 q 546 689 546 663 q 500 792 546 756 q 365 829 454 829 q 237 804 294 829 q 138 728 179 779 l 11 825 q 165 944 68 901 q 381 986 261 986 q 565 952 486 986 q 685 856 643 918 q 728 707 728 793 q 715 613 728 660 q 668 515 703 567 q 567 400 633 464 l 235 85 l 197 153 l 765 153 l 765 0 l 49 0 z "},"3":{"ha":808,"x_min":1,"x_max":751,"o":"m 367 -14 q 166 16 264 -14 q 1 99 68 46 l 79 239 q 207 169 132 196 q 364 143 282 143 q 515 183 461 143 q 569 290 569 222 q 519 396 569 357 q 358 435 469 435 l 269 435 l 269 558 l 547 889 l 571 821 l 49 821 l 49 972 l 711 972 l 711 851 l 433 521 l 339 576 l 393 576 q 662 497 572 576 q 751 292 751 417 q 710 140 751 210 q 583 28 668 71 q 367 -14 497 -14 z "},"4":{"ha":943,"x_min":47,"x_max":928,"o":"m 47 221 l 47 346 l 526 972 l 719 972 l 247 346 l 157 374 l 928 374 l 928 221 l 47 221 m 581 0 l 581 221 l 586 374 l 586 569 l 756 569 l 756 0 l 581 0 z "},"5":{"ha":811,"x_min":18,"x_max":768,"o":"m 383 -14 q 183 16 281 -14 q 18 99 85 46 l 94 239 q 223 169 147 196 q 381 143 299 143 q 531 183 476 143 q 586 292 586 224 q 563 372 586 338 q 483 425 540 407 q 325 443 425 443 l 90 443 l 140 972 l 711 972 l 711 821 l 207 821 l 301 907 l 264 511 l 169 596 l 365 596 q 598 558 510 596 q 727 452 686 519 q 768 299 768 385 q 726 143 768 214 q 599 29 685 72 q 383 -14 514 -14 z "},"6":{"ha":871,"x_min":61,"x_max":838,"o":"m 482 -14 q 256 42 350 -14 q 111 206 161 99 q 61 469 61 313 q 122 751 61 636 q 290 926 182 867 q 538 986 397 986 q 678 971 611 986 q 793 924 746 956 l 726 788 q 640 824 686 814 q 542 835 593 835 q 324 750 404 835 q 243 500 243 665 q 244 438 243 474 q 254 367 246 403 l 199 428 q 267 523 224 485 q 372 581 311 561 q 503 600 432 600 q 674 563 599 600 q 793 459 749 526 q 838 301 838 392 q 790 135 838 206 q 663 25 743 64 q 482 -14 582 -14 m 472 128 q 571 148 528 128 q 638 206 614 168 q 663 293 663 243 q 610 414 663 369 q 468 458 557 458 q 366 437 410 458 q 297 378 322 415 q 271 292 271 340 q 294 210 271 247 q 363 150 318 172 q 472 128 408 128 z "},"7":{"ha":844,"x_min":39,"x_max":794,"o":"m 224 0 l 625 900 l 672 819 l 121 819 l 207 907 l 207 654 l 39 654 l 39 972 l 794 972 l 794 851 l 417 0 l 224 0 z "},"8":{"ha":906,"x_min":56,"x_max":850,"o":"m 451 -14 q 242 22 331 -14 q 104 124 153 58 q 56 279 56 190 q 103 429 56 368 q 239 522 150 490 q 451 554 328 554 q 665 522 575 554 q 802 428 754 490 q 850 279 850 367 q 801 124 850 190 q 662 22 751 58 q 451 -14 572 -14 m 451 128 q 610 169 551 128 q 668 285 668 211 q 610 399 668 357 q 451 440 551 440 q 294 399 351 440 q 238 285 238 357 q 294 169 238 211 q 451 128 351 128 m 451 571 q 588 608 538 571 q 638 707 638 644 q 586 808 638 772 q 451 844 535 844 q 318 808 368 844 q 268 707 268 772 q 317 608 268 644 q 451 571 367 571 m 451 460 q 258 490 339 460 q 134 577 178 519 q 90 715 90 635 q 135 859 90 799 q 263 953 181 919 q 451 986 344 986 q 642 953 560 986 q 769 859 724 919 q 815 715 815 799 q 772 577 815 635 q 646 490 728 519 q 451 460 564 460 z "},"9":{"ha":871,"x_min":33,"x_max":810,"o":"m 333 -14 q 193 1 260 -14 q 78 49 126 17 l 144 185 q 232 148 185 158 q 329 138 279 138 q 547 222 467 138 q 628 472 628 307 q 626 534 628 499 q 617 606 625 569 l 672 544 q 604 449 649 488 q 500 392 560 411 q 368 372 440 372 q 198 409 274 372 q 78 513 122 446 q 33 671 33 581 q 81 838 33 768 q 209 947 128 908 q 389 986 290 986 q 616 930 522 986 q 760 767 710 874 q 810 503 810 660 q 749 221 810 336 q 582 46 689 106 q 333 -14 475 -14 m 403 514 q 506 535 461 514 q 575 595 550 557 q 600 681 600 633 q 576 763 600 726 q 508 822 553 800 q 399 844 464 844 q 300 824 343 844 q 233 767 257 804 q 208 679 208 731 q 261 558 208 603 q 403 514 314 514 z "},"A":{"ha":1040,"x_min":-7,"x_max":1047,"o":"m -7 0 l 431 972 l 608 972 l 1047 0 l 858 0 l 482 876 l 554 876 l 179 0 l -7 0 m 194 225 l 243 367 l 768 367 l 817 225 l 194 225 z "},"Á":{"ha":1040,"x_min":-7,"x_max":1047,"o":"m -7 0 l 431 972 l 608 972 l 1047 0 l 858 0 l 482 876 l 554 876 l 179 0 l -7 0 m 194 225 l 243 367 l 768 367 l 817 225 l 194 225 m 403 1051 l 590 1242 l 794 1242 l 553 1051 l 403 1051 z "},"Ă":{"ha":1040,"x_min":-7,"x_max":1047,"o":"m -7 0 l 431 972 l 608 972 l 1047 0 l 858 0 l 482 876 l 554 876 l 179 0 l -7 0 m 194 225 l 243 367 l 768 367 l 817 225 l 194 225 m 519 1056 q 351 1110 418 1056 q 279 1256 283 1164 l 393 1256 q 432 1179 396 1207 q 519 1151 468 1151 q 608 1179 571 1151 q 646 1256 644 1207 l 760 1256 q 688 1110 756 1164 q 519 1056 621 1056 z "},"Ắ":{"ha":1040,"x_min":-7,"x_max":1047,"o":"m -7 0 l 431 972 l 608 972 l 1047 0 l 858 0 l 482 876 l 554 876 l 179 0 l -7 0 m 194 225 l 243 367 l 768 367 l 817 225 l 194 225 m 519 1056 q 353 1097 419 1056 q 279 1214 288 1139 l 390 1214 q 431 1163 394 1182 q 519 1144 467 1144 q 608 1163 572 1144 q 649 1214 644 1182 l 760 1214 q 686 1097 753 1139 q 519 1056 619 1056 m 413 1238 l 571 1400 l 757 1400 l 546 1238 l 413 1238 z "},"Ặ":{"ha":1040,"x_min":-7,"x_max":1047,"o":"m -7 0 l 431 972 l 608 972 l 1047 0 l 858 0 l 482 876 l 554 876 l 179 0 l -7 0 m 194 225 l 243 367 l 768 367 l 817 225 l 194 225 m 519 -286 q 449 -258 476 -286 q 421 -187 421 -231 q 449 -117 421 -144 q 519 -89 476 -89 q 590 -117 561 -89 q 618 -187 618 -144 q 590 -258 618 -231 q 519 -286 561 -286 m 519 1056 q 351 1110 418 1056 q 279 1256 283 1164 l 393 1256 q 432 1179 396 1207 q 519 1151 468 1151 q 608 1179 571 1151 q 646 1256 644 1207 l 760 1256 q 688 1110 756 1164 q 519 1056 621 1056 z "},"Ằ":{"ha":1040,"x_min":-7,"x_max":1047,"o":"m -7 0 l 431 972 l 608 972 l 1047 0 l 858 0 l 482 876 l 554 876 l 179 0 l -7 0 m 194 225 l 243 367 l 768 367 l 817 225 l 194 225 m 519 1056 q 353 1097 419 1056 q 279 1214 288 1139 l 390 1214 q 431 1163 394 1182 q 519 1144 467 1144 q 608 1163 572 1144 q 649 1214 644 1182 l 760 1214 q 686 1097 753 1139 q 519 1056 619 1056 m 494 1238 l 283 1400 l 469 1400 l 628 1238 l 494 1238 z "},"Ẳ":{"ha":1040,"x_min":-7,"x_max":1047,"o":"m -7 0 l 431 972 l 608 972 l 1047 0 l 858 0 l 482 876 l 554 876 l 179 0 l -7 0 m 194 225 l 243 367 l 768 367 l 817 225 l 194 225 m 519 1056 q 353 1097 419 1056 q 279 1214 288 1139 l 390 1214 q 431 1163 394 1182 q 519 1144 467 1144 q 608 1163 572 1144 q 649 1214 644 1182 l 760 1214 q 686 1097 753 1139 q 519 1056 619 1056 m 547 1199 l 503 1246 q 544 1276 531 1260 q 557 1307 557 1292 q 543 1338 557 1326 q 507 1350 529 1350 q 446 1333 478 1350 l 415 1392 q 466 1414 438 1407 q 522 1421 494 1421 q 608 1392 576 1421 q 639 1317 639 1363 q 614 1245 639 1276 q 547 1199 589 1214 z "},"Ẵ":{"ha":1040,"x_min":-7,"x_max":1047,"o":"m -7 0 l 431 972 l 608 972 l 1047 0 l 858 0 l 482 876 l 554 876 l 179 0 l -7 0 m 194 225 l 243 367 l 768 367 l 817 225 l 194 225 m 519 1056 q 353 1097 419 1056 q 279 1214 288 1139 l 390 1214 q 431 1163 394 1182 q 519 1144 467 1144 q 608 1163 572 1144 q 649 1214 644 1182 l 760 1214 q 686 1097 753 1139 q 519 1056 619 1056 m 621 1268 q 558 1279 585 1268 q 508 1306 531 1290 q 467 1332 486 1321 q 429 1343 449 1343 q 384 1325 399 1343 q 368 1276 369 1307 l 274 1276 q 315 1392 275 1351 q 421 1433 354 1433 q 499 1415 467 1433 q 559 1378 532 1396 q 613 1360 586 1360 q 657 1378 642 1360 q 674 1425 672 1396 l 765 1425 q 725 1310 764 1353 q 621 1268 686 1268 z "},"Ǎ":{"ha":1040,"x_min":-7,"x_max":1047,"o":"m -7 0 l 431 972 l 608 972 l 1047 0 l 858 0 l 482 876 l 554 876 l 179 0 l -7 0 m 194 225 l 243 367 l 768 367 l 817 225 l 194 225 m 440 1051 l 254 1242 l 397 1242 l 586 1083 l 453 1083 l 642 1242 l 785 1242 l 599 1051 l 440 1051 z "},"Â":{"ha":1040,"x_min":-7,"x_max":1047,"o":"m -7 0 l 431 972 l 608 972 l 1047 0 l 858 0 l 482 876 l 554 876 l 179 0 l -7 0 m 194 225 l 243 367 l 768 367 l 817 225 l 194 225 m 254 1051 l 440 1242 l 599 1242 l 785 1051 l 642 1051 l 453 1211 l 586 1211 l 397 1051 l 254 1051 z "},"Ấ":{"ha":1040,"x_min":-7,"x_max":1047,"o":"m -7 0 l 431 972 l 608 972 l 1047 0 l 858 0 l 482 876 l 554 876 l 179 0 l -7 0 m 194 225 l 243 367 l 768 367 l 817 225 l 194 225 m 254 1051 l 442 1200 l 597 1200 l 785 1051 l 640 1051 l 454 1169 l 585 1169 l 399 1051 l 254 1051 m 672 1179 l 831 1342 l 1017 1342 l 806 1179 l 672 1179 z "},"Ậ":{"ha":1040,"x_min":-7,"x_max":1047,"o":"m -7 0 l 431 972 l 608 972 l 1047 0 l 858 0 l 482 876 l 554 876 l 179 0 l -7 0 m 194 225 l 243 367 l 768 367 l 817 225 l 194 225 m 519 -286 q 449 -258 476 -286 q 421 -187 421 -231 q 449 -117 421 -144 q 519 -89 476 -89 q 590 -117 561 -89 q 618 -187 618 -144 q 590 -258 618 -231 q 519 -286 561 -286 m 254 1051 l 440 1242 l 599 1242 l 785 1051 l 642 1051 l 453 1211 l 586 1211 l 397 1051 l 254 1051 z "},"Ầ":{"ha":1040,"x_min":-7,"x_max":1047,"o":"m -7 0 l 431 972 l 608 972 l 1047 0 l 858 0 l 482 876 l 554 876 l 179 0 l -7 0 m 194 225 l 243 367 l 768 367 l 817 225 l 194 225 m 254 1051 l 442 1200 l 597 1200 l 785 1051 l 640 1051 l 454 1169 l 585 1169 l 399 1051 l 254 1051 m 754 1179 l 543 1342 l 729 1342 l 888 1179 l 754 1179 z "},"Ẩ":{"ha":1040,"x_min":-7,"x_max":1047,"o":"m -7 0 l 431 972 l 608 972 l 1047 0 l 858 0 l 482 876 l 554 876 l 179 0 l -7 0 m 194 225 l 243 367 l 768 367 l 817 225 l 194 225 m 254 1051 l 442 1200 l 597 1200 l 785 1051 l 640 1051 l 454 1169 l 585 1169 l 399 1051 l 254 1051 m 743 1153 l 699 1200 q 740 1230 726 1214 q 753 1261 753 1246 q 739 1292 753 1281 q 703 1304 725 1304 q 642 1288 674 1304 l 611 1346 q 662 1368 633 1361 q 718 1375 690 1375 q 803 1346 772 1375 q 835 1271 835 1317 q 810 1199 835 1231 q 743 1153 785 1168 z "},"Ẫ":{"ha":1040,"x_min":-7,"x_max":1047,"o":"m -7 0 l 431 972 l 608 972 l 1047 0 l 858 0 l 482 876 l 554 876 l 179 0 l -7 0 m 194 225 l 243 367 l 768 367 l 817 225 l 194 225 m 254 1051 l 442 1200 l 597 1200 l 785 1051 l 640 1051 l 454 1169 l 585 1169 l 399 1051 l 254 1051 m 621 1251 q 558 1263 585 1251 q 508 1289 531 1274 q 467 1315 486 1304 q 429 1326 449 1326 q 384 1308 399 1326 q 368 1260 369 1290 l 274 1260 q 315 1376 275 1335 q 421 1417 354 1417 q 499 1398 467 1417 q 559 1361 532 1379 q 613 1343 586 1343 q 657 1361 642 1343 q 674 1408 672 1379 l 765 1408 q 725 1294 764 1336 q 621 1251 686 1251 z "},"Ȁ":{"ha":1040,"x_min":-7,"x_max":1047,"o":"m -7 0 l 431 972 l 608 972 l 1047 0 l 858 0 l 482 876 l 554 876 l 179 0 l -7 0 m 194 225 l 243 367 l 768 367 l 817 225 l 194 225 m 582 1051 l 432 1242 l 606 1242 l 718 1051 l 582 1051 m 321 1051 l 172 1242 l 346 1242 l 457 1051 l 321 1051 z "},"Ä":{"ha":1040,"x_min":-7,"x_max":1047,"o":"m -7 0 l 431 972 l 608 972 l 1047 0 l 858 0 l 482 876 l 554 876 l 179 0 l -7 0 m 194 225 l 243 367 l 768 367 l 817 225 l 194 225 m 654 1067 q 595 1090 619 1067 q 571 1150 571 1113 q 595 1211 571 1188 q 654 1235 619 1235 q 713 1211 689 1235 q 738 1150 738 1188 q 713 1090 738 1113 q 654 1067 689 1067 m 385 1067 q 326 1090 350 1067 q 301 1150 301 1113 q 326 1211 301 1188 q 385 1235 350 1235 q 444 1211 419 1235 q 468 1150 468 1188 q 444 1090 468 1113 q 385 1067 419 1067 z "},"Ǟ":{"ha":1040,"x_min":-7,"x_max":1047,"o":"m -7 0 l 431 972 l 608 972 l 1047 0 l 858 0 l 482 876 l 554 876 l 179 0 l -7 0 m 194 225 l 243 367 l 768 367 l 817 225 l 194 225 m 651 1051 q 594 1074 618 1051 q 571 1132 571 1097 q 594 1188 571 1165 q 651 1211 618 1211 q 708 1188 683 1211 q 732 1132 732 1165 q 708 1074 732 1097 q 651 1051 683 1051 m 389 1051 q 332 1074 356 1051 q 308 1132 308 1097 q 332 1188 308 1165 q 389 1211 356 1211 q 447 1188 424 1211 q 469 1132 469 1165 q 447 1074 469 1097 q 389 1051 424 1051 m 279 1301 l 279 1399 l 760 1399 l 760 1301 l 279 1301 z "},"Ȧ":{"ha":1040,"x_min":-7,"x_max":1047,"o":"m -7 0 l 431 972 l 608 972 l 1047 0 l 858 0 l 482 876 l 554 876 l 179 0 l -7 0 m 194 225 l 243 367 l 768 367 l 817 225 l 194 225 m 519 1068 q 449 1096 476 1068 q 421 1167 421 1124 q 449 1238 421 1210 q 519 1265 476 1265 q 590 1238 561 1265 q 618 1167 618 1210 q 590 1096 618 1124 q 519 1068 561 1068 z "},"Ạ":{"ha":1040,"x_min":-7,"x_max":1047,"o":"m -7 0 l 431 972 l 608 972 l 1047 0 l 858 0 l 482 876 l 554 876 l 179 0 l -7 0 m 194 225 l 243 367 l 768 367 l 817 225 l 194 225 m 519 -286 q 449 -258 476 -286 q 421 -187 421 -231 q 449 -117 421 -144 q 519 -89 476 -89 q 590 -117 561 -89 q 618 -187 618 -144 q 590 -258 618 -231 q 519 -286 561 -286 z "},"Ǡ":{"ha":1040,"x_min":-7,"x_max":1047,"o":"m -7 0 l 431 972 l 608 972 l 1047 0 l 858 0 l 482 876 l 554 876 l 179 0 l -7 0 m 194 225 l 243 367 l 768 367 l 817 225 l 194 225 m 519 1060 q 460 1083 485 1060 q 436 1143 436 1106 q 460 1203 436 1181 q 519 1226 485 1226 q 578 1203 554 1226 q 603 1143 603 1181 q 578 1083 603 1106 q 519 1060 554 1060 m 279 1301 l 279 1399 l 760 1399 l 760 1301 l 279 1301 z "},"À":{"ha":1040,"x_min":-7,"x_max":1047,"o":"m -7 0 l 431 972 l 608 972 l 1047 0 l 858 0 l 482 876 l 554 876 l 179 0 l -7 0 m 194 225 l 243 367 l 768 367 l 817 225 l 194 225 m 486 1051 l 244 1242 l 449 1242 l 636 1051 l 486 1051 z "},"Ả":{"ha":1040,"x_min":-7,"x_max":1047,"o":"m -7 0 l 431 972 l 608 972 l 1047 0 l 858 0 l 482 876 l 554 876 l 179 0 l -7 0 m 194 225 l 243 367 l 768 367 l 817 225 l 194 225 m 526 1010 l 469 1074 q 527 1115 510 1093 q 544 1163 544 1136 q 526 1207 544 1190 q 475 1224 507 1224 q 393 1197 433 1224 l 356 1272 q 422 1306 386 1294 q 494 1317 458 1317 q 574 1299 539 1317 q 629 1251 610 1282 q 649 1176 649 1219 q 619 1081 649 1122 q 526 1010 589 1039 z "},"Ȃ":{"ha":1040,"x_min":-7,"x_max":1047,"o":"m -7 0 l 431 972 l 608 972 l 1047 0 l 858 0 l 482 876 l 554 876 l 179 0 l -7 0 m 194 225 l 243 367 l 768 367 l 817 225 l 194 225 m 279 1051 q 351 1198 283 1144 q 519 1251 418 1251 q 688 1198 621 1251 q 760 1051 756 1144 l 646 1051 q 608 1128 644 1100 q 519 1157 571 1157 q 432 1128 468 1157 q 393 1051 396 1100 l 279 1051 z "},"Ɑ":{"ha":1235,"x_min":61,"x_max":1104,"o":"m 564 -11 q 365 24 457 -11 q 206 126 274 60 q 99 284 138 192 q 61 488 61 376 q 99 692 61 600 q 205 849 138 783 q 364 951 272 915 q 563 986 456 986 q 744 954 661 986 q 890 860 828 922 q 986 703 951 797 q 1021 488 1021 610 q 988 272 1021 364 q 892 116 954 179 q 747 21 831 53 q 564 -11 663 -11 m 586 146 q 760 188 683 146 q 881 308 836 231 q 926 488 926 385 q 881 668 926 592 q 760 787 836 744 q 586 829 683 829 q 411 787 489 829 q 289 668 333 744 q 244 488 244 592 q 289 308 244 385 q 410 188 333 231 q 586 146 488 146 m 931 0 l 931 263 l 942 490 l 922 718 l 922 972 l 1104 972 l 1104 0 l 931 0 z "},"Ā":{"ha":1040,"x_min":-7,"x_max":1047,"o":"m -7 0 l 431 972 l 608 972 l 1047 0 l 858 0 l 482 876 l 554 876 l 179 0 l -7 0 m 194 225 l 243 367 l 768 367 l 817 225 l 194 225 m 279 1094 l 279 1199 l 760 1199 l 760 1094 l 279 1094 z "},"Ą":{"ha":1040,"x_min":-7,"x_max":1079,"o":"m -7 0 l 431 972 l 608 972 l 1047 0 l 858 0 l 482 876 l 554 876 l 179 0 l -7 0 m 194 225 l 243 367 l 768 367 l 817 225 l 194 225 m 946 -317 q 814 -276 861 -317 q 767 -168 767 -235 q 787 -88 767 -128 q 853 -13 807 -49 q 971 51 899 22 l 1047 0 q 952 -51 988 -26 q 900 -101 917 -76 q 883 -154 883 -126 q 906 -204 883 -186 q 965 -222 929 -222 q 1010 -216 988 -222 q 1050 -200 1033 -210 l 1079 -285 q 1018 -308 1053 -299 q 946 -317 983 -317 z "},"Å":{"ha":1040,"x_min":-7,"x_max":1047,"o":"m -7 0 l 431 972 l 608 972 l 1047 0 l 858 0 l 482 876 l 554 876 l 179 0 l -7 0 m 194 225 l 243 367 l 768 367 l 817 225 l 194 225 m 518 1029 q 435 1051 472 1029 q 378 1109 399 1074 q 357 1188 357 1144 q 378 1269 357 1232 q 436 1327 400 1306 q 518 1349 472 1349 q 602 1327 565 1349 q 660 1269 639 1306 q 681 1188 681 1232 q 660 1108 681 1144 q 602 1051 639 1072 q 518 1029 565 1029 m 518 1100 q 582 1125 557 1100 q 607 1188 607 1150 q 582 1252 607 1226 q 518 1278 557 1278 q 456 1253 482 1278 q 431 1188 431 1228 q 456 1125 431 1150 q 518 1100 481 1100 z "},"Ǻ":{"ha":1040,"x_min":-7,"x_max":1047,"o":"m -7 0 l 431 972 l 608 972 l 1047 0 l 858 0 l 482 876 l 554 876 l 179 0 l -7 0 m 194 225 l 243 367 l 768 367 l 817 225 l 194 225 m 518 1029 q 435 1051 472 1029 q 378 1109 399 1074 q 357 1188 357 1144 q 378 1269 357 1232 q 436 1327 400 1306 q 518 1349 472 1349 q 602 1327 565 1349 q 660 1269 639 1306 q 681 1188 681 1232 q 660 1108 681 1144 q 602 1051 639 1072 q 518 1029 565 1029 m 518 1100 q 582 1125 557 1100 q 607 1188 607 1150 q 582 1252 607 1226 q 518 1278 557 1278 q 456 1253 482 1278 q 431 1188 431 1228 q 456 1125 431 1150 q 518 1100 481 1100 m 640 1263 l 553 1292 l 710 1453 l 799 1383 l 640 1263 z "},"Ḁ":{"ha":1040,"x_min":-7,"x_max":1047,"o":"m -7 0 l 431 972 l 608 972 l 1047 0 l 858 0 l 482 876 l 554 876 l 179 0 l -7 0 m 194 225 l 243 367 l 768 367 l 817 225 l 194 225 m 518 -368 q 435 -346 472 -368 q 378 -288 399 -324 q 357 -210 357 -253 q 378 -128 357 -165 q 436 -70 400 -92 q 518 -49 472 -49 q 602 -70 565 -49 q 660 -128 639 -92 q 681 -210 681 -165 q 660 -289 681 -253 q 602 -347 639 -325 q 518 -368 565 -368 m 518 -297 q 582 -272 557 -297 q 607 -210 607 -247 q 582 -145 607 -171 q 518 -119 557 -119 q 456 -144 482 -119 q 431 -210 431 -169 q 456 -272 431 -247 q 518 -297 481 -297 z "},"Ⱥ":{"ha":1035,"x_min":-7,"x_max":1042,"o":"m -7 0 l 431 972 l 603 972 l 1042 0 l 860 0 l 481 885 l 550 885 l 172 0 l -7 0 m 193 232 l 239 361 l 768 361 l 815 232 l 193 232 m 271 -97 l 769 1069 l 900 1069 l 403 -97 l 271 -97 z "},"Ã":{"ha":1040,"x_min":-7,"x_max":1047,"o":"m -7 0 l 431 972 l 608 972 l 1047 0 l 858 0 l 482 876 l 554 876 l 179 0 l -7 0 m 194 225 l 243 367 l 768 367 l 817 225 l 194 225 m 629 1044 q 563 1060 592 1044 q 510 1094 533 1075 q 465 1128 488 1113 q 421 1143 443 1143 q 372 1117 390 1143 q 353 1054 354 1090 l 251 1054 q 295 1195 253 1139 q 410 1251 338 1251 q 478 1237 449 1251 q 530 1203 507 1222 q 575 1169 553 1183 q 619 1154 597 1154 q 667 1180 650 1154 q 686 1240 685 1206 l 785 1240 q 742 1101 783 1157 q 629 1044 701 1044 z "},"Ɐ":{"ha":1040,"x_min":-7,"x_max":1047,"o":"m 1047 972 l 610 0 l 432 0 l -7 972 l 182 972 l 557 96 l 485 96 l 861 972 l 1047 972 m 844 747 l 796 606 l 272 606 l 222 747 l 844 747 z "},"Æ":{"ha":1476,"x_min":-7,"x_max":1406,"o":"m -7 0 l 557 972 l 738 972 l 738 821 l 581 821 l 690 899 l 179 0 l -7 0 m 260 225 l 265 367 l 738 367 l 738 225 l 260 225 m 676 0 l 676 972 l 1386 972 l 1386 821 l 857 821 l 857 151 l 1406 151 l 1406 0 l 676 0 m 842 419 l 843 568 l 1326 568 l 1326 419 l 842 419 z "},"Ǽ":{"ha":1476,"x_min":-7,"x_max":1406,"o":"m -7 0 l 557 972 l 738 972 l 738 821 l 581 821 l 690 899 l 179 0 l -7 0 m 260 225 l 265 367 l 738 367 l 738 225 l 260 225 m 676 0 l 676 972 l 1386 972 l 1386 821 l 857 821 l 857 151 l 1406 151 l 1406 0 l 676 0 m 842 419 l 843 568 l 1326 568 l 1326 419 l 842 419 m 758 1051 l 946 1242 l 1150 1242 l 908 1051 l 758 1051 z "},"Ǣ":{"ha":1476,"x_min":-7,"x_max":1406,"o":"m -7 0 l 557 972 l 738 972 l 738 821 l 581 821 l 690 899 l 179 0 l -7 0 m 260 225 l 265 367 l 738 367 l 738 225 l 260 225 m 676 0 l 676 972 l 1386 972 l 1386 821 l 857 821 l 857 151 l 1406 151 l 1406 0 l 676 0 m 842 419 l 843 568 l 1326 568 l 1326 419 l 842 419 m 635 1094 l 635 1199 l 1115 1199 l 1115 1094 l 635 1094 z "},"B":{"ha":1057,"x_min":131,"x_max":994,"o":"m 131 0 l 131 972 l 586 972 q 853 903 761 972 q 944 719 944 835 q 908 587 944 642 q 812 502 872 532 q 681 472 751 472 l 706 522 q 853 492 788 522 q 956 406 918 463 q 994 264 994 349 q 899 69 994 139 q 614 0 803 0 l 131 0 m 311 142 l 603 142 q 758 175 704 142 q 813 282 813 208 q 758 388 813 354 q 603 422 704 422 l 297 422 l 297 563 l 567 563 q 712 596 661 563 q 763 696 763 629 q 712 797 763 764 q 567 831 661 831 l 311 831 l 311 142 z "},"Ḃ":{"ha":1057,"x_min":131,"x_max":994,"o":"m 131 0 l 131 972 l 586 972 q 853 903 761 972 q 944 719 944 835 q 908 587 944 642 q 812 502 872 532 q 681 472 751 472 l 706 522 q 853 492 788 522 q 956 406 918 463 q 994 264 994 349 q 899 69 994 139 q 614 0 803 0 l 131 0 m 311 142 l 603 142 q 758 175 704 142 q 813 282 813 208 q 758 388 813 354 q 603 422 704 422 l 297 422 l 297 563 l 567 563 q 712 596 661 563 q 763 696 763 629 q 712 797 763 764 q 567 831 661 831 l 311 831 l 311 142 m 526 1068 q 456 1096 483 1068 q 428 1167 428 1124 q 456 1238 428 1210 q 526 1265 483 1265 q 597 1238 568 1265 q 625 1167 625 1210 q 597 1096 625 1124 q 526 1068 568 1068 z "},"Ḅ":{"ha":1057,"x_min":131,"x_max":994,"o":"m 131 0 l 131 972 l 586 972 q 853 903 761 972 q 944 719 944 835 q 908 587 944 642 q 812 502 872 532 q 681 472 751 472 l 706 522 q 853 492 788 522 q 956 406 918 463 q 994 264 994 349 q 899 69 994 139 q 614 0 803 0 l 131 0 m 311 142 l 603 142 q 758 175 704 142 q 813 282 813 208 q 758 388 813 354 q 603 422 704 422 l 297 422 l 297 563 l 567 563 q 712 596 661 563 q 763 696 763 629 q 712 797 763 764 q 567 831 661 831 l 311 831 l 311 142 m 526 -286 q 456 -258 483 -286 q 428 -187 428 -231 q 456 -117 428 -144 q 526 -89 483 -89 q 597 -117 568 -89 q 625 -187 625 -144 q 597 -258 625 -231 q 526 -286 568 -286 z "},"Ꞵ":{"ha":1057,"x_min":131,"x_max":994,"o":"m 131 -269 l 131 972 l 586 972 q 853 903 761 972 q 944 719 944 835 q 908 587 944 642 q 812 502 872 532 q 681 472 751 472 l 706 522 q 853 492 788 522 q 956 406 918 463 q 994 264 994 349 q 899 69 994 139 q 614 0 803 0 l 297 0 l 297 142 l 603 142 q 758 175 704 142 q 813 282 813 208 q 758 388 813 354 q 603 422 704 422 l 297 422 l 297 563 l 567 563 q 712 596 661 563 q 763 696 763 629 q 712 797 763 764 q 567 831 661 831 l 311 831 l 311 -269 l 131 -269 z "},"Ɓ":{"ha":1307,"x_min":38,"x_max":1244,"o":"m 138 506 q 63 617 88 556 q 39 740 38 678 q 69 856 40 803 q 158 940 99 908 q 308 972 217 972 l 393 972 l 393 819 l 308 819 q 241 799 265 819 q 211 744 217 778 q 219 671 206 710 q 264 597 232 632 l 138 506 m 382 0 l 382 972 l 836 972 q 1103 903 1011 972 q 1194 719 1194 835 q 1158 587 1194 642 q 1062 502 1122 532 q 931 472 1001 472 l 956 522 q 1103 492 1039 522 q 1206 406 1168 463 q 1244 264 1244 349 q 1149 69 1244 139 q 864 0 1053 0 l 382 0 m 561 142 l 854 142 q 1009 175 956 142 q 1063 282 1063 208 q 1009 388 1063 354 q 854 422 956 422 l 547 422 l 547 563 l 817 563 q 962 596 911 563 q 1013 696 1013 629 q 962 797 1013 764 q 817 831 911 831 l 561 831 l 561 142 z "},"Ḇ":{"ha":1057,"x_min":131,"x_max":994,"o":"m 131 0 l 131 972 l 586 972 q 853 903 761 972 q 944 719 944 835 q 908 587 944 642 q 812 502 872 532 q 681 472 751 472 l 706 522 q 853 492 788 522 q 956 406 918 463 q 994 264 994 349 q 899 69 994 139 q 614 0 803 0 l 131 0 m 311 142 l 603 142 q 758 175 704 142 q 813 282 813 208 q 758 388 813 354 q 603 422 704 422 l 297 422 l 297 563 l 567 563 q 712 596 661 563 q 763 696 763 629 q 712 797 763 764 q 567 831 661 831 l 311 831 l 311 142 m 286 -239 l 286 -135 l 767 -135 l 767 -239 l 286 -239 z "},"Ƀ":{"ha":1085,"x_min":25,"x_max":1021,"o":"m 158 0 l 158 972 l 614 972 q 881 903 789 972 q 972 719 972 835 q 936 588 972 642 q 840 505 900 533 q 707 476 779 476 l 733 526 q 881 497 815 526 q 983 409 946 467 q 1021 268 1021 351 q 925 72 1021 143 q 642 0 829 0 l 158 0 m 25 221 l 25 349 l 222 349 l 258 346 l 536 346 l 536 224 l 258 224 l 222 221 l 25 221 m 338 142 l 631 142 q 785 176 732 142 q 839 282 839 210 q 785 392 839 356 q 631 429 732 429 l 325 429 l 325 565 l 593 565 q 739 597 688 565 q 790 696 790 629 q 739 797 790 764 q 593 831 688 831 l 338 831 l 338 142 z "},"Ƃ":{"ha":1057,"x_min":131,"x_max":994,"o":"m 131 0 l 131 972 l 906 972 l 906 831 l 311 831 l 311 142 l 603 142 q 758 176 704 142 q 813 286 813 210 q 758 394 813 360 q 603 428 704 428 l 297 428 l 297 568 l 629 568 q 900 500 806 568 q 994 288 994 432 q 897 72 994 143 q 614 0 800 0 l 131 0 z "},"C":{"ha":997,"x_min":61,"x_max":967,"o":"m 581 -14 q 374 23 469 -14 q 209 127 279 60 q 100 286 139 194 q 61 486 61 378 q 100 686 61 594 q 210 845 139 778 q 375 949 281 913 q 582 986 469 986 q 800 945 701 986 q 967 824 899 904 l 850 714 q 732 799 797 771 q 590 828 667 828 q 451 803 514 828 q 341 732 388 778 q 269 624 294 686 q 243 486 243 561 q 269 349 243 411 q 341 240 294 286 q 451 169 388 194 q 590 144 514 144 q 732 173 667 144 q 850 260 797 201 l 967 149 q 800 28 899 69 q 581 -14 701 -14 z "},"Ć":{"ha":997,"x_min":61,"x_max":967,"o":"m 581 -14 q 374 23 469 -14 q 209 127 279 60 q 100 286 139 194 q 61 486 61 378 q 100 686 61 594 q 210 845 139 778 q 375 949 281 913 q 582 986 469 986 q 800 945 701 986 q 967 824 899 904 l 850 714 q 732 799 797 771 q 590 828 667 828 q 451 803 514 828 q 341 732 388 778 q 269 624 294 686 q 243 486 243 561 q 269 349 243 411 q 341 240 294 286 q 451 169 388 194 q 590 144 514 144 q 732 173 667 144 q 850 260 797 201 l 967 149 q 800 28 899 69 q 581 -14 701 -14 m 456 1051 l 643 1242 l 847 1242 l 606 1051 l 456 1051 z "},"Ꞓ":{"ha":1086,"x_min":17,"x_max":1056,"o":"m 669 -14 q 463 23 558 -14 q 298 127 368 60 q 189 286 228 194 q 150 486 150 378 q 189 686 150 594 q 299 845 228 778 q 465 949 369 913 q 671 986 560 986 q 889 945 790 986 q 1056 824 988 904 l 939 714 q 821 799 886 771 q 679 828 756 828 q 540 803 604 828 q 430 732 476 778 q 358 624 383 686 q 332 486 332 561 q 358 349 332 411 q 430 240 383 286 q 540 169 476 194 q 679 144 604 144 q 821 173 756 144 q 939 260 886 201 l 1056 149 q 889 28 988 69 q 669 -14 790 -14 m 17 432 l 17 564 l 560 564 l 560 432 l 17 432 z "},"Č":{"ha":997,"x_min":61,"x_max":967,"o":"m 581 -14 q 374 23 469 -14 q 209 127 279 60 q 100 286 139 194 q 61 486 61 378 q 100 686 61 594 q 210 845 139 778 q 375 949 281 913 q 582 986 469 986 q 800 945 701 986 q 967 824 899 904 l 850 714 q 732 799 797 771 q 590 828 667 828 q 451 803 514 828 q 341 732 388 778 q 269 624 294 686 q 243 486 243 561 q 269 349 243 411 q 341 240 294 286 q 451 169 388 194 q 590 144 514 144 q 732 173 667 144 q 850 260 797 201 l 967 149 q 800 28 899 69 q 581 -14 701 -14 m 493 1051 l 307 1242 l 450 1242 l 639 1083 l 506 1083 l 694 1242 l 838 1242 l 651 1051 l 493 1051 z "},"Ç":{"ha":997,"x_min":61,"x_max":967,"o":"m 581 -14 q 374 23 469 -14 q 209 127 279 60 q 100 286 139 194 q 61 486 61 378 q 100 686 61 594 q 210 845 139 778 q 375 949 281 913 q 582 986 469 986 q 800 945 701 986 q 967 824 899 904 l 850 714 q 732 799 797 771 q 590 828 667 828 q 451 803 514 828 q 341 732 388 778 q 269 624 294 686 q 243 486 243 561 q 269 349 243 411 q 341 240 294 286 q 451 169 388 194 q 590 144 514 144 q 732 173 667 144 q 850 260 797 201 l 967 149 q 800 28 899 69 q 581 -14 701 -14 m 532 -317 q 463 -309 494 -317 q 404 -287 431 -301 l 436 -206 q 481 -222 458 -217 q 531 -228 504 -228 q 588 -214 571 -228 q 604 -178 604 -200 q 587 -144 604 -157 q 531 -132 569 -132 l 488 -132 l 525 10 l 619 10 l 600 -68 q 691 -108 661 -75 q 721 -185 721 -140 q 669 -281 721 -246 q 532 -317 618 -317 z "},"Ḉ":{"ha":997,"x_min":61,"x_max":967,"o":"m 581 -14 q 374 23 469 -14 q 209 127 279 60 q 100 286 139 194 q 61 486 61 378 q 100 686 61 594 q 210 845 139 778 q 375 949 281 913 q 582 986 469 986 q 800 945 701 986 q 967 824 899 904 l 850 714 q 732 799 797 771 q 590 828 667 828 q 451 803 514 828 q 341 732 388 778 q 269 624 294 686 q 243 486 243 561 q 269 349 243 411 q 341 240 294 286 q 451 169 388 194 q 590 144 514 144 q 732 173 667 144 q 850 260 797 201 l 967 149 q 800 28 899 69 q 581 -14 701 -14 m 532 -317 q 463 -309 494 -317 q 404 -287 431 -301 l 436 -206 q 481 -222 458 -217 q 531 -228 504 -228 q 588 -214 571 -228 q 604 -178 604 -200 q 587 -144 604 -157 q 531 -132 569 -132 l 488 -132 l 525 10 l 619 10 l 600 -68 q 691 -108 661 -75 q 721 -185 721 -140 q 669 -281 721 -246 q 532 -317 618 -317 m 456 1051 l 643 1242 l 847 1242 l 606 1051 l 456 1051 z "},"Ĉ":{"ha":997,"x_min":61,"x_max":967,"o":"m 581 -14 q 374 23 469 -14 q 209 127 279 60 q 100 286 139 194 q 61 486 61 378 q 100 686 61 594 q 210 845 139 778 q 375 949 281 913 q 582 986 469 986 q 800 945 701 986 q 967 824 899 904 l 850 714 q 732 799 797 771 q 590 828 667 828 q 451 803 514 828 q 341 732 388 778 q 269 624 294 686 q 243 486 243 561 q 269 349 243 411 q 341 240 294 286 q 451 169 388 194 q 590 144 514 144 q 732 173 667 144 q 850 260 797 201 l 967 149 q 800 28 899 69 q 581 -14 701 -14 m 307 1051 l 493 1242 l 651 1242 l 838 1051 l 694 1051 l 506 1211 l 639 1211 l 450 1051 l 307 1051 z "},"Ċ":{"ha":997,"x_min":61,"x_max":967,"o":"m 581 -14 q 374 23 469 -14 q 209 127 279 60 q 100 286 139 194 q 61 486 61 378 q 100 686 61 594 q 210 845 139 778 q 375 949 281 913 q 582 986 469 986 q 800 945 701 986 q 967 824 899 904 l 850 714 q 732 799 797 771 q 590 828 667 828 q 451 803 514 828 q 341 732 388 778 q 269 624 294 686 q 243 486 243 561 q 269 349 243 411 q 341 240 294 286 q 451 169 388 194 q 590 144 514 144 q 732 173 667 144 q 850 260 797 201 l 967 149 q 800 28 899 69 q 581 -14 701 -14 m 572 1068 q 501 1096 529 1068 q 474 1167 474 1124 q 501 1238 474 1210 q 572 1265 529 1265 q 642 1238 614 1265 q 671 1167 671 1210 q 642 1096 671 1124 q 572 1068 614 1068 z "},"Ꭓ":{"ha":806,"x_min":-175,"x_max":981,"o":"m 981 -171 q 892 -250 947 -219 q 774 -283 836 -281 q 653 -253 711 -286 q 557 -140 594 -219 l 358 271 l 304 351 l 94 765 q 48 819 75 803 q -10 825 21 835 q -71 776 -40 815 l -175 874 q -85 951 -140 921 q 31 985 -31 982 q 150 954 93 988 q 244 840 207 921 l 413 496 l 463 419 l 707 -61 q 755 -116 726 -100 q 815 -122 783 -132 q 876 -74 847 -111 l 981 -171 m -78 -269 l 329 447 l 353 447 l 650 972 l 842 972 l 453 319 l 428 311 l 113 -269 l -78 -269 z "},"Ƈ":{"ha":1046,"x_min":72,"x_max":1167,"o":"m 978 824 l 818 826 l 818 939 q 849 1071 818 1018 q 931 1151 881 1124 q 1043 1181 981 1179 q 1167 1158 1106 1182 l 1121 1024 q 1056 1031 1089 1038 q 1000 1001 1022 1025 q 978 936 978 976 l 978 824 m 593 -14 q 385 23 481 -14 q 221 127 290 60 q 112 286 151 194 q 72 486 72 378 q 112 686 72 594 q 222 845 151 778 q 387 949 292 913 q 594 986 482 986 q 812 945 713 986 q 978 824 911 904 l 861 714 q 743 799 808 771 q 601 828 678 828 q 463 803 526 828 q 353 732 400 778 q 280 624 306 686 q 254 486 254 561 q 280 349 254 411 q 353 240 306 286 q 463 169 400 194 q 601 144 526 144 q 743 173 678 144 q 861 260 808 201 l 978 149 q 812 28 911 69 q 593 -14 713 -14 z "},"Ȼ":{"ha":997,"x_min":61,"x_max":967,"o":"m 236 -97 l 769 1069 l 903 1069 l 371 -97 l 236 -97 m 581 -14 q 374 23 469 -14 q 209 127 279 60 q 100 286 139 194 q 61 486 61 378 q 100 686 61 594 q 210 845 139 778 q 375 949 281 913 q 582 986 469 986 q 800 945 701 986 q 967 824 899 904 l 850 714 q 732 799 797 771 q 590 828 667 828 q 451 803 514 828 q 341 732 388 778 q 269 624 294 686 q 243 486 243 561 q 269 349 243 411 q 341 240 294 286 q 451 169 388 194 q 590 144 514 144 q 732 173 667 144 q 850 260 797 201 l 967 149 q 800 28 899 69 q 581 -14 701 -14 z "},"D":{"ha":1147,"x_min":131,"x_max":1086,"o":"m 131 0 l 131 972 l 556 972 q 833 911 714 972 q 1019 742 953 850 q 1086 486 1086 633 q 1019 231 1086 340 q 833 61 953 122 q 556 0 714 0 l 131 0 m 311 153 l 547 153 q 736 194 656 153 q 860 311 817 236 q 904 486 904 386 q 860 662 904 588 q 736 778 817 736 q 547 819 656 819 l 311 819 l 311 153 z "},"Ǳ":{"ha":2058,"x_min":131,"x_max":2024,"o":"m 131 0 l 131 972 l 556 972 q 833 911 714 972 q 1019 742 953 850 q 1086 486 1086 633 q 1019 231 1086 340 q 833 61 953 122 q 556 0 714 0 l 131 0 m 311 153 l 547 153 q 736 194 656 153 q 860 311 817 236 q 904 486 904 386 q 860 662 904 588 q 736 778 817 736 q 547 819 656 819 l 311 819 l 311 153 m 1193 0 l 1193 121 l 1821 888 l 1842 819 l 1203 819 l 1203 972 l 2004 972 l 2004 851 l 1376 85 l 1354 153 l 2022 153 l 2022 0 l 1193 0 z "},"Ǆ":{"ha":2058,"x_min":131,"x_max":2024,"o":"m 131 0 l 131 972 l 556 972 q 833 911 714 972 q 1019 742 953 850 q 1086 486 1086 633 q 1019 231 1086 340 q 833 61 953 122 q 556 0 714 0 l 131 0 m 311 153 l 547 153 q 736 194 656 153 q 860 311 817 236 q 904 486 904 386 q 860 662 904 588 q 736 778 817 736 q 547 819 656 819 l 311 819 l 311 153 m 1193 0 l 1193 121 l 1821 888 l 1842 819 l 1203 819 l 1203 972 l 2004 972 l 2004 851 l 1376 85 l 1354 153 l 2022 153 l 2022 0 l 1193 0 m 1529 1051 l 1343 1242 l 1486 1242 l 1675 1083 l 1542 1083 l 1731 1242 l 1874 1242 l 1688 1051 l 1529 1051 z "},"Ď":{"ha":1147,"x_min":131,"x_max":1086,"o":"m 131 0 l 131 972 l 556 972 q 833 911 714 972 q 1019 742 953 850 q 1086 486 1086 633 q 1019 231 1086 340 q 833 61 953 122 q 556 0 714 0 l 131 0 m 311 153 l 547 153 q 736 194 656 153 q 860 311 817 236 q 904 486 904 386 q 860 662 904 588 q 736 778 817 736 q 547 819 656 819 l 311 819 l 311 153 m 442 1051 l 256 1242 l 399 1242 l 588 1083 l 454 1083 l 643 1242 l 786 1242 l 600 1051 l 442 1051 z "},"Ḑ":{"ha":1147,"x_min":131,"x_max":1086,"o":"m 131 0 l 131 972 l 556 972 q 833 911 714 972 q 1019 742 953 850 q 1086 486 1086 633 q 1019 231 1086 340 q 833 61 953 122 q 556 0 714 0 l 131 0 m 311 153 l 547 153 q 736 194 656 153 q 860 311 817 236 q 904 486 904 386 q 860 662 904 588 q 736 778 817 736 q 547 819 656 819 l 311 819 l 311 153 m 457 -356 l 507 -187 l 525 -250 q 464 -230 486 -250 q 442 -178 442 -210 q 465 -124 442 -144 q 525 -103 488 -103 q 586 -124 564 -103 q 608 -178 608 -146 q 604 -213 608 -193 q 586 -258 600 -233 l 542 -356 l 457 -356 z "},"Ḓ":{"ha":1147,"x_min":131,"x_max":1086,"o":"m 131 0 l 131 972 l 556 972 q 833 911 714 972 q 1019 742 953 850 q 1086 486 1086 633 q 1019 231 1086 340 q 833 61 953 122 q 556 0 714 0 l 131 0 m 311 153 l 547 153 q 736 194 656 153 q 860 311 817 236 q 904 486 904 386 q 860 662 904 588 q 736 778 817 736 q 547 819 656 819 l 311 819 l 311 153 m 260 -283 l 446 -93 l 604 -93 l 790 -283 l 647 -283 l 458 -124 l 592 -124 l 403 -283 l 260 -283 z "},"Đ":{"ha":1161,"x_min":8,"x_max":1101,"o":"m 144 0 l 144 972 l 569 972 q 847 911 728 972 q 1033 742 967 850 q 1100 486 1100 633 q 1033 231 1100 340 q 847 61 967 122 q 569 0 728 0 l 144 0 m 325 153 l 561 153 q 750 194 669 153 q 874 311 831 236 q 918 486 918 386 q 874 662 918 588 q 750 778 831 736 q 561 819 669 819 l 325 819 l 325 153 m 8 431 l 8 564 l 586 564 l 586 431 l 8 431 z "},"Ḋ":{"ha":1147,"x_min":131,"x_max":1086,"o":"m 131 0 l 131 972 l 556 972 q 833 911 714 972 q 1019 742 953 850 q 1086 486 1086 633 q 1019 231 1086 340 q 833 61 953 122 q 556 0 714 0 l 131 0 m 311 153 l 547 153 q 736 194 656 153 q 860 311 817 236 q 904 486 904 386 q 860 662 904 588 q 736 778 817 736 q 547 819 656 819 l 311 819 l 311 153 m 521 1068 q 450 1096 478 1068 q 422 1167 422 1124 q 450 1238 422 1210 q 521 1265 478 1265 q 591 1238 563 1265 q 619 1167 619 1210 q 591 1096 619 1124 q 521 1068 563 1068 z "},"Ḍ":{"ha":1147,"x_min":131,"x_max":1086,"o":"m 131 0 l 131 972 l 556 972 q 833 911 714 972 q 1019 742 953 850 q 1086 486 1086 633 q 1019 231 1086 340 q 833 61 953 122 q 556 0 714 0 l 131 0 m 311 153 l 547 153 q 736 194 656 153 q 860 311 817 236 q 904 486 904 386 q 860 662 904 588 q 736 778 817 736 q 547 819 656 819 l 311 819 l 311 153 m 525 -286 q 454 -258 482 -286 q 426 -187 426 -231 q 454 -117 426 -144 q 525 -89 482 -89 q 595 -117 567 -89 q 624 -187 624 -144 q 595 -258 624 -231 q 525 -286 567 -286 z "},"Ɗ":{"ha":1397,"x_min":38,"x_max":1336,"o":"m 138 506 q 63 617 88 556 q 39 740 38 678 q 69 856 40 803 q 158 940 99 908 q 308 972 217 972 l 393 972 l 393 819 l 308 819 q 241 799 265 819 q 211 744 217 778 q 219 671 206 710 q 264 597 232 632 l 138 506 m 382 0 l 382 972 l 806 972 q 1083 911 964 972 q 1269 742 1203 850 q 1336 486 1336 633 q 1269 231 1336 340 q 1083 61 1203 122 q 806 0 964 0 l 382 0 m 561 153 l 797 153 q 987 194 907 153 q 1110 311 1067 236 q 1154 486 1154 386 q 1110 662 1154 588 q 987 778 1067 736 q 797 819 907 819 l 561 819 l 561 153 z "},"Ḏ":{"ha":1147,"x_min":131,"x_max":1086,"o":"m 131 0 l 131 972 l 556 972 q 833 911 714 972 q 1019 742 953 850 q 1086 486 1086 633 q 1019 231 1086 340 q 833 61 953 122 q 556 0 714 0 l 131 0 m 311 153 l 547 153 q 736 194 656 153 q 860 311 817 236 q 904 486 904 386 q 860 662 904 588 q 736 778 817 736 q 547 819 656 819 l 311 819 l 311 153 m 285 -239 l 285 -135 l 765 -135 l 765 -239 l 285 -239 z "},"Ɖ":{"ha":1147,"x_min":-7,"x_max":1086,"o":"m 131 0 l 131 972 l 556 972 q 833 911 714 972 q 1019 742 953 850 q 1086 486 1086 633 q 1019 231 1086 340 q 833 61 953 122 q 556 0 714 0 l 131 0 m 311 153 l 547 153 q 736 194 656 153 q 860 311 817 236 q 904 486 904 386 q 860 662 904 588 q 736 778 817 736 q 547 819 656 819 l 311 819 l 311 153 m -7 431 l -7 564 l 571 564 l 571 431 l -7 431 z "},"Ƌ":{"ha":1043,"x_min":46,"x_max":911,"o":"m 425 0 q 147 80 249 0 q 46 303 46 160 q 141 513 46 439 q 419 588 236 588 l 733 588 l 733 822 l 158 822 l 158 972 l 911 972 l 911 0 l 425 0 m 442 142 l 733 142 l 733 447 l 442 447 q 281 408 335 447 q 228 301 228 369 q 282 186 228 231 q 442 142 336 142 z "},"ǲ":{"ha":1886,"x_min":131,"x_max":1840,"o":"m 131 0 l 131 972 l 556 972 q 833 911 714 972 q 1019 742 953 850 q 1086 486 1086 633 q 1019 231 1086 340 q 833 61 953 122 q 556 0 714 0 l 131 0 m 311 153 l 547 153 q 736 194 656 153 q 860 311 817 236 q 904 486 904 386 q 860 662 904 588 q 736 778 817 736 q 547 819 656 819 l 311 819 l 311 153 m 1200 0 l 1200 110 l 1657 663 l 1689 603 l 1208 603 l 1208 742 l 1828 742 l 1828 632 l 1371 79 l 1336 139 l 1840 139 l 1840 0 l 1200 0 z "},"ǅ":{"ha":1886,"x_min":131,"x_max":1840,"o":"m 131 0 l 131 972 l 556 972 q 833 911 714 972 q 1019 742 953 850 q 1086 486 1086 633 q 1019 231 1086 340 q 833 61 953 122 q 556 0 714 0 l 131 0 m 311 153 l 547 153 q 736 194 656 153 q 860 311 817 236 q 904 486 904 386 q 860 662 904 588 q 736 778 817 736 q 547 819 656 819 l 311 819 l 311 153 m 1200 0 l 1200 110 l 1657 663 l 1689 603 l 1208 603 l 1208 742 l 1828 742 l 1828 632 l 1371 79 l 1336 139 l 1840 139 l 1840 0 l 1200 0 m 1440 843 l 1254 1033 l 1397 1033 l 1586 875 l 1453 875 l 1642 1033 l 1785 1033 l 1599 843 l 1440 843 z "},"Ð":{"ha":1161,"x_min":8,"x_max":1101,"o":"m 144 0 l 144 972 l 569 972 q 847 911 728 972 q 1033 742 967 850 q 1100 486 1100 633 q 1033 231 1100 340 q 847 61 967 122 q 569 0 728 0 l 144 0 m 325 153 l 561 153 q 750 194 669 153 q 874 311 831 236 q 918 486 918 386 q 874 662 918 588 q 750 778 831 736 q 561 819 669 819 l 325 819 l 325 153 m 8 431 l 8 564 l 586 564 l 586 431 l 8 431 z "},"E":{"ha":931,"x_min":131,"x_max":860,"o":"m 131 0 l 131 972 l 840 972 l 840 821 l 311 821 l 311 151 l 860 151 l 860 0 l 131 0 m 297 419 l 297 568 l 781 568 l 781 419 l 297 419 z "},"É":{"ha":931,"x_min":131,"x_max":860,"o":"m 131 0 l 131 972 l 840 972 l 840 821 l 311 821 l 311 151 l 860 151 l 860 0 l 131 0 m 297 419 l 297 568 l 781 568 l 781 419 l 297 419 m 369 1051 l 557 1242 l 761 1242 l 519 1051 l 369 1051 z "},"Ĕ":{"ha":931,"x_min":131,"x_max":860,"o":"m 131 0 l 131 972 l 840 972 l 840 821 l 311 821 l 311 151 l 860 151 l 860 0 l 131 0 m 297 419 l 297 568 l 781 568 l 781 419 l 297 419 m 486 1056 q 317 1110 385 1056 q 246 1256 250 1164 l 360 1256 q 399 1179 363 1207 q 486 1151 435 1151 q 574 1179 538 1151 q 613 1256 611 1207 l 726 1256 q 655 1110 722 1164 q 486 1056 588 1056 z "},"Ě":{"ha":931,"x_min":131,"x_max":860,"o":"m 131 0 l 131 972 l 840 972 l 840 821 l 311 821 l 311 151 l 860 151 l 860 0 l 131 0 m 297 419 l 297 568 l 781 568 l 781 419 l 297 419 m 407 1051 l 221 1242 l 364 1242 l 553 1083 l 419 1083 l 608 1242 l 751 1242 l 565 1051 l 407 1051 z "},"Ȩ":{"ha":931,"x_min":131,"x_max":860,"o":"m 131 0 l 131 972 l 840 972 l 840 821 l 311 821 l 311 151 l 860 151 l 860 0 l 131 0 m 297 419 l 297 568 l 781 568 l 781 419 l 297 419 m 446 -317 q 376 -309 408 -317 q 318 -287 344 -301 l 350 -206 q 395 -222 372 -217 q 444 -228 418 -228 q 501 -214 485 -228 q 518 -178 518 -200 q 501 -144 518 -157 q 444 -132 483 -132 l 401 -132 l 439 10 l 533 10 l 514 -68 q 605 -108 575 -75 q 635 -185 635 -140 q 583 -281 635 -246 q 446 -317 532 -317 z "},"Ḝ":{"ha":931,"x_min":131,"x_max":860,"o":"m 131 0 l 131 972 l 840 972 l 840 821 l 311 821 l 311 151 l 860 151 l 860 0 l 131 0 m 297 419 l 297 568 l 781 568 l 781 419 l 297 419 m 446 -317 q 376 -309 408 -317 q 318 -287 344 -301 l 350 -206 q 395 -222 372 -217 q 444 -228 418 -228 q 501 -214 485 -228 q 518 -178 518 -200 q 501 -144 518 -157 q 444 -132 483 -132 l 401 -132 l 439 10 l 533 10 l 514 -68 q 605 -108 575 -75 q 635 -185 635 -140 q 583 -281 635 -246 q 446 -317 532 -317 m 486 1056 q 317 1110 385 1056 q 246 1256 250 1164 l 360 1256 q 399 1179 363 1207 q 486 1151 435 1151 q 574 1179 538 1151 q 613 1256 611 1207 l 726 1256 q 655 1110 722 1164 q 486 1056 588 1056 z "},"Ê":{"ha":931,"x_min":131,"x_max":860,"o":"m 131 0 l 131 972 l 840 972 l 840 821 l 311 821 l 311 151 l 860 151 l 860 0 l 131 0 m 297 419 l 297 568 l 781 568 l 781 419 l 297 419 m 221 1051 l 407 1242 l 565 1242 l 751 1051 l 608 1051 l 419 1211 l 553 1211 l 364 1051 l 221 1051 z "},"Ế":{"ha":931,"x_min":131,"x_max":982,"o":"m 131 0 l 131 972 l 840 972 l 840 821 l 311 821 l 311 151 l 860 151 l 860 0 l 131 0 m 297 419 l 297 568 l 781 568 l 781 419 l 297 419 m 221 1051 l 408 1200 l 564 1200 l 751 1051 l 607 1051 l 421 1169 l 551 1169 l 365 1051 l 221 1051 m 638 1179 l 796 1342 l 982 1342 l 771 1179 l 638 1179 z "},"Ḙ":{"ha":931,"x_min":131,"x_max":860,"o":"m 131 0 l 131 972 l 840 972 l 840 821 l 311 821 l 311 151 l 860 151 l 860 0 l 131 0 m 297 419 l 297 568 l 781 568 l 781 419 l 297 419 m 221 -283 l 407 -93 l 565 -93 l 751 -283 l 608 -283 l 419 -124 l 553 -124 l 364 -283 l 221 -283 z "},"Ệ":{"ha":931,"x_min":131,"x_max":860,"o":"m 131 0 l 131 972 l 840 972 l 840 821 l 311 821 l 311 151 l 860 151 l 860 0 l 131 0 m 297 419 l 297 568 l 781 568 l 781 419 l 297 419 m 486 -286 q 415 -258 443 -286 q 388 -187 388 -231 q 415 -117 388 -144 q 486 -89 443 -89 q 556 -117 528 -89 q 585 -187 585 -144 q 556 -258 585 -231 q 486 -286 528 -286 m 221 1051 l 407 1242 l 565 1242 l 751 1051 l 608 1051 l 419 1211 l 553 1211 l 364 1051 l 221 1051 z "},"Ề":{"ha":931,"x_min":131,"x_max":860,"o":"m 131 0 l 131 972 l 840 972 l 840 821 l 311 821 l 311 151 l 860 151 l 860 0 l 131 0 m 297 419 l 297 568 l 781 568 l 781 419 l 297 419 m 221 1051 l 408 1200 l 564 1200 l 751 1051 l 607 1051 l 421 1169 l 551 1169 l 365 1051 l 221 1051 m 719 1179 l 508 1342 l 694 1342 l 853 1179 l 719 1179 z "},"Ể":{"ha":931,"x_min":131,"x_max":860,"o":"m 131 0 l 131 972 l 840 972 l 840 821 l 311 821 l 311 151 l 860 151 l 860 0 l 131 0 m 297 419 l 297 568 l 781 568 l 781 419 l 297 419 m 221 1051 l 408 1200 l 564 1200 l 751 1051 l 607 1051 l 421 1169 l 551 1169 l 365 1051 l 221 1051 m 710 1153 l 665 1200 q 706 1230 693 1214 q 719 1261 719 1246 q 706 1292 719 1281 q 669 1304 692 1304 q 608 1288 640 1304 l 578 1346 q 628 1368 600 1361 q 685 1375 657 1375 q 770 1346 739 1375 q 801 1271 801 1317 q 776 1199 801 1231 q 710 1153 751 1168 z "},"Ễ":{"ha":931,"x_min":131,"x_max":860,"o":"m 131 0 l 131 972 l 840 972 l 840 821 l 311 821 l 311 151 l 860 151 l 860 0 l 131 0 m 297 419 l 297 568 l 781 568 l 781 419 l 297 419 m 221 1051 l 408 1200 l 564 1200 l 751 1051 l 607 1051 l 421 1169 l 551 1169 l 365 1051 l 221 1051 m 588 1251 q 524 1263 551 1251 q 475 1289 497 1274 q 434 1315 453 1304 q 396 1326 415 1326 q 351 1308 365 1326 q 335 1260 336 1290 l 240 1260 q 281 1376 242 1335 q 388 1417 321 1417 q 466 1398 433 1417 q 526 1361 499 1379 q 579 1343 553 1343 q 624 1361 608 1343 q 640 1408 639 1379 l 732 1408 q 692 1294 731 1336 q 588 1251 653 1251 z "},"Ȅ":{"ha":931,"x_min":131,"x_max":860,"o":"m 131 0 l 131 972 l 840 972 l 840 821 l 311 821 l 311 151 l 860 151 l 860 0 l 131 0 m 297 419 l 297 568 l 781 568 l 781 419 l 297 419 m 549 1051 l 399 1242 l 572 1242 l 685 1051 l 549 1051 m 288 1051 l 139 1242 l 313 1242 l 424 1051 l 288 1051 z "},"Ë":{"ha":931,"x_min":131,"x_max":860,"o":"m 131 0 l 131 972 l 840 972 l 840 821 l 311 821 l 311 151 l 860 151 l 860 0 l 131 0 m 297 419 l 297 568 l 781 568 l 781 419 l 297 419 m 621 1067 q 562 1090 586 1067 q 538 1150 538 1113 q 562 1211 538 1188 q 621 1235 586 1235 q 680 1211 656 1235 q 704 1150 704 1188 q 680 1090 704 1113 q 621 1067 656 1067 m 351 1067 q 292 1090 317 1067 q 268 1150 268 1113 q 292 1211 268 1188 q 351 1235 317 1235 q 410 1211 386 1235 q 435 1150 435 1188 q 410 1090 435 1113 q 351 1067 386 1067 z "},"Ė":{"ha":931,"x_min":131,"x_max":860,"o":"m 131 0 l 131 972 l 840 972 l 840 821 l 311 821 l 311 151 l 860 151 l 860 0 l 131 0 m 297 419 l 297 568 l 781 568 l 781 419 l 297 419 m 486 1068 q 415 1096 443 1068 q 388 1167 388 1124 q 415 1238 388 1210 q 486 1265 443 1265 q 556 1238 528 1265 q 585 1167 585 1210 q 556 1096 585 1124 q 486 1068 528 1068 z "},"Ẹ":{"ha":931,"x_min":131,"x_max":860,"o":"m 131 0 l 131 972 l 840 972 l 840 821 l 311 821 l 311 151 l 860 151 l 860 0 l 131 0 m 297 419 l 297 568 l 781 568 l 781 419 l 297 419 m 486 -286 q 415 -258 443 -286 q 388 -187 388 -231 q 415 -117 388 -144 q 486 -89 443 -89 q 556 -117 528 -89 q 585 -187 585 -144 q 556 -258 585 -231 q 486 -286 528 -286 z "},"È":{"ha":931,"x_min":131,"x_max":860,"o":"m 131 0 l 131 972 l 840 972 l 840 821 l 311 821 l 311 151 l 860 151 l 860 0 l 131 0 m 297 419 l 297 568 l 781 568 l 781 419 l 297 419 m 453 1051 l 211 1242 l 415 1242 l 603 1051 l 453 1051 z "},"Ẻ":{"ha":931,"x_min":131,"x_max":860,"o":"m 131 0 l 131 972 l 840 972 l 840 821 l 311 821 l 311 151 l 860 151 l 860 0 l 131 0 m 297 419 l 297 568 l 781 568 l 781 419 l 297 419 m 493 1010 l 436 1074 q 494 1115 476 1093 q 511 1163 511 1136 q 492 1207 511 1190 q 442 1224 474 1224 q 360 1197 400 1224 l 322 1272 q 389 1306 353 1294 q 461 1317 425 1317 q 541 1299 506 1317 q 596 1251 576 1282 q 615 1176 615 1219 q 585 1081 615 1122 q 493 1010 556 1039 z "},"Ȇ":{"ha":931,"x_min":131,"x_max":860,"o":"m 131 0 l 131 972 l 840 972 l 840 821 l 311 821 l 311 151 l 860 151 l 860 0 l 131 0 m 297 419 l 297 568 l 781 568 l 781 419 l 297 419 m 246 1051 q 317 1198 250 1144 q 486 1251 385 1251 q 655 1198 588 1251 q 726 1051 722 1144 l 613 1051 q 574 1128 611 1100 q 486 1157 538 1157 q 399 1128 435 1157 q 360 1051 363 1100 l 246 1051 z "},"Ē":{"ha":931,"x_min":131,"x_max":860,"o":"m 131 0 l 131 972 l 840 972 l 840 821 l 311 821 l 311 151 l 860 151 l 860 0 l 131 0 m 297 419 l 297 568 l 781 568 l 781 419 l 297 419 m 246 1094 l 246 1199 l 726 1199 l 726 1094 l 246 1094 z "},"Ḗ":{"ha":931,"x_min":131,"x_max":860,"o":"m 131 0 l 131 972 l 840 972 l 840 821 l 311 821 l 311 151 l 860 151 l 860 0 l 131 0 m 297 419 l 297 568 l 781 568 l 781 419 l 297 419 m 246 1083 l 246 1181 l 726 1181 l 726 1083 l 246 1083 m 375 1263 l 533 1425 l 719 1425 l 508 1263 l 375 1263 z "},"Ḕ":{"ha":931,"x_min":131,"x_max":860,"o":"m 131 0 l 131 972 l 840 972 l 840 821 l 311 821 l 311 151 l 860 151 l 860 0 l 131 0 m 297 419 l 297 568 l 781 568 l 781 419 l 297 419 m 246 1083 l 246 1181 l 726 1181 l 726 1083 l 246 1083 m 464 1263 l 253 1425 l 439 1425 l 597 1263 l 464 1263 z "},"Ę":{"ha":931,"x_min":131,"x_max":892,"o":"m 131 0 l 131 972 l 840 972 l 840 821 l 311 821 l 311 151 l 860 151 l 860 0 l 131 0 m 297 419 l 297 568 l 781 568 l 781 419 l 297 419 m 758 -317 q 626 -276 674 -317 q 579 -168 579 -235 q 599 -88 579 -128 q 665 -13 619 -49 q 783 51 711 22 l 860 0 q 765 -51 800 -26 q 713 -101 729 -76 q 696 -154 696 -126 q 719 -204 696 -186 q 778 -222 742 -222 q 823 -216 800 -222 q 863 -200 846 -210 l 892 -285 q 831 -308 865 -299 q 758 -317 796 -317 z "},"Ɛ":{"ha":893,"x_min":69,"x_max":897,"o":"m 508 -14 q 269 24 367 -14 q 120 127 171 61 q 69 276 69 193 q 108 409 69 354 q 210 493 146 464 q 349 522 274 522 l 356 476 q 228 510 283 476 q 142 598 172 543 q 111 718 111 653 q 143 838 111 788 q 231 920 175 888 q 356 969 286 953 q 504 985 426 985 q 685 963 594 985 q 851 903 776 942 l 800 760 q 710 799 760 782 q 606 824 660 815 q 503 833 553 833 q 397 819 444 833 q 322 774 350 806 q 293 692 293 743 q 338 601 293 632 q 468 571 383 571 l 697 571 l 697 429 l 458 429 q 349 414 396 429 q 276 367 301 399 q 251 289 251 335 q 314 178 251 219 q 507 138 376 138 q 692 162 607 138 q 839 231 776 186 l 897 93 q 729 15 831 43 q 508 -14 628 -14 z "},"Ǝ":{"ha":931,"x_min":71,"x_max":800,"o":"m 800 0 l 71 0 l 71 151 l 621 151 l 621 821 l 90 821 l 90 972 l 800 972 l 800 0 m 635 418 l 150 418 l 150 567 l 635 567 l 635 418 z "},"Ɜ":{"ha":893,"x_min":-3,"x_max":824,"o":"m 385 -14 q 165 15 265 -14 q -3 93 64 43 l 56 231 q 201 162 117 186 q 386 138 286 138 q 579 178 517 138 q 642 289 642 219 q 617 367 642 335 q 546 414 592 399 q 435 429 500 429 l 196 429 l 196 571 l 425 571 q 556 601 511 571 q 600 692 600 632 q 572 774 600 743 q 496 819 543 806 q 392 833 449 833 q 288 824 342 833 q 184 799 233 815 q 93 760 135 782 l 42 903 q 208 963 117 942 q 390 985 299 985 q 537 969 467 985 q 663 920 607 953 q 750 838 718 888 q 782 718 782 788 q 752 598 782 653 q 667 510 722 543 q 538 476 613 476 l 544 522 q 684 493 621 522 q 785 409 747 464 q 824 276 824 354 q 773 127 824 193 q 625 24 722 61 q 385 -14 528 -14 z "},"Ʃ":{"ha":693,"x_min":-49,"x_max":735,"o":"m 161 -14 q 47 5 103 -14 q -49 60 -8 24 l 6 188 q 69 151 38 163 q 133 139 101 139 q 220 167 183 139 q 256 261 257 196 l 250 704 q 284 863 249 801 q 383 956 319 925 q 528 986 446 986 q 642 967 588 986 q 735 913 696 949 l 682 783 q 617 820 650 808 q 556 832 585 832 q 500 822 529 832 q 451 787 471 813 q 432 711 432 761 l 438 268 q 413 126 439 182 q 344 40 386 71 q 253 -2 303 10 q 161 -14 204 -14 z "},"Ɇ":{"ha":931,"x_min":131,"x_max":860,"o":"m 197 -97 l 724 1069 l 853 1069 l 328 -97 l 197 -97 m 131 0 l 131 972 l 840 972 l 840 821 l 311 821 l 311 151 l 860 151 l 860 0 l 131 0 m 297 419 l 297 568 l 781 568 l 781 419 l 297 419 z "},"Ẽ":{"ha":931,"x_min":131,"x_max":860,"o":"m 131 0 l 131 972 l 840 972 l 840 821 l 311 821 l 311 151 l 860 151 l 860 0 l 131 0 m 297 419 l 297 568 l 781 568 l 781 419 l 297 419 m 596 1044 q 529 1060 558 1044 q 477 1094 500 1075 q 432 1128 454 1113 q 388 1143 410 1143 q 339 1117 357 1143 q 319 1054 321 1090 l 218 1054 q 262 1195 219 1139 q 376 1251 304 1251 q 444 1237 415 1251 q 497 1203 474 1222 q 542 1169 519 1183 q 586 1154 564 1154 q 634 1180 617 1154 q 653 1240 651 1206 l 751 1240 q 709 1101 750 1157 q 596 1044 668 1044 z "},"Ḛ":{"ha":931,"x_min":131,"x_max":860,"o":"m 131 0 l 131 972 l 840 972 l 840 821 l 311 821 l 311 151 l 860 151 l 860 0 l 131 0 m 297 419 l 297 568 l 781 568 l 781 419 l 297 419 m 596 -279 q 529 -264 558 -279 q 477 -230 500 -249 q 432 -196 454 -211 q 388 -181 410 -181 q 339 -207 357 -181 q 319 -269 321 -233 l 218 -269 q 262 -128 219 -185 q 376 -72 304 -72 q 444 -87 415 -72 q 497 -121 474 -101 q 542 -155 519 -140 q 586 -169 564 -169 q 634 -144 617 -169 q 653 -83 651 -118 l 751 -83 q 709 -223 750 -167 q 596 -279 668 -279 z "},"Ə":{"ha":1135,"x_min":61,"x_max":1074,"o":"m 568 -14 q 365 24 458 -14 q 204 129 272 61 q 99 290 136 197 q 61 494 61 383 l 61 539 l 913 539 l 913 397 l 183 397 l 242 479 q 265 338 242 401 q 332 231 289 275 q 435 162 375 186 q 568 138 494 138 q 701 161 642 138 q 804 229 761 185 q 869 335 847 274 q 892 472 892 396 l 892 494 q 866 626 892 565 q 795 733 840 688 q 689 803 750 778 q 557 828 628 828 q 449 815 503 828 q 347 778 394 803 q 261 714 299 753 l 153 836 q 262 916 199 882 q 401 968 325 950 q 558 986 476 986 q 765 949 671 986 q 929 845 860 913 q 1036 686 999 778 q 1074 488 1074 594 q 1036 287 1074 378 q 930 128 999 196 q 769 24 861 61 q 568 -14 678 -14 z "},"Ʒ":{"ha":878,"x_min":39,"x_max":817,"o":"m 415 -14 q 204 16 306 -14 q 39 96 103 46 l 103 238 q 239 167 157 193 q 410 140 321 140 q 579 181 519 140 q 639 292 639 221 q 583 398 639 358 q 407 438 526 438 l 313 438 l 313 565 l 618 896 l 633 821 l 78 821 l 78 972 l 769 972 l 769 850 l 467 519 l 386 574 l 440 574 q 649 538 567 574 q 774 439 732 503 q 817 292 817 375 q 774 140 817 210 q 642 28 731 71 q 415 -14 553 -14 z "},"Ǯ":{"ha":878,"x_min":39,"x_max":817,"o":"m 415 -14 q 204 16 306 -14 q 39 96 103 46 l 103 238 q 239 167 157 193 q 410 140 321 140 q 579 181 519 140 q 639 292 639 221 q 583 398 639 358 q 407 438 526 438 l 313 438 l 313 565 l 618 896 l 633 821 l 78 821 l 78 972 l 769 972 l 769 850 l 467 519 l 386 574 l 440 574 q 649 538 567 574 q 774 439 732 503 q 817 292 817 375 q 774 140 817 210 q 642 28 731 71 q 415 -14 553 -14 m 347 1051 l 161 1242 l 304 1242 l 493 1083 l 360 1083 l 549 1242 l 692 1242 l 506 1051 l 347 1051 z "},"Ƹ":{"ha":882,"x_min":67,"x_max":843,"o":"m 468 -14 q 242 28 331 -14 q 110 140 153 71 q 67 292 67 210 q 109 439 67 375 q 235 538 151 503 q 443 574 318 574 l 497 574 l 422 521 l 114 851 l 114 972 l 804 972 l 804 824 l 250 824 l 267 900 l 575 569 l 575 438 l 476 438 q 301 398 358 438 q 244 292 244 358 q 305 181 244 221 q 472 140 365 140 q 644 167 564 140 q 779 238 725 193 l 843 96 q 679 16 781 46 q 468 -14 578 -14 z "},"F":{"ha":885,"x_min":131,"x_max":840,"o":"m 131 0 l 131 972 l 840 972 l 840 821 l 311 821 l 311 0 l 131 0 m 296 372 l 296 525 l 781 525 l 781 372 l 296 372 z "},"Ḟ":{"ha":885,"x_min":131,"x_max":840,"o":"m 131 0 l 131 972 l 840 972 l 840 821 l 311 821 l 311 0 l 131 0 m 296 372 l 296 525 l 781 525 l 781 372 l 296 372 m 482 1068 q 411 1096 439 1068 q 383 1167 383 1124 q 411 1238 383 1210 q 482 1265 439 1265 q 552 1238 524 1265 q 581 1167 581 1210 q 552 1096 581 1124 q 482 1068 524 1068 z "},"Ƒ":{"ha":914,"x_min":-42,"x_max":863,"o":"m -42 -257 l 6 -121 q 75 -128 42 -133 q 131 -98 108 -122 q 153 -29 153 -74 l 153 972 l 863 972 l 863 821 l 333 821 l 333 -31 q 299 -167 333 -111 q 210 -251 265 -222 q 88 -281 154 -279 q -42 -257 22 -282 m 318 372 l 318 525 l 803 525 l 803 372 l 318 372 z "},"G":{"ha":1072,"x_min":61,"x_max":978,"o":"m 585 -14 q 376 23 471 -14 q 210 127 281 60 q 100 286 139 194 q 61 486 61 378 q 100 686 61 594 q 210 845 139 778 q 378 949 282 913 q 588 986 474 986 q 810 946 711 986 q 978 828 910 906 l 864 717 q 741 801 807 774 q 596 828 675 828 q 454 803 519 828 q 342 732 389 778 q 269 624 294 686 q 243 486 243 561 q 269 350 243 413 q 342 241 294 288 q 453 169 389 194 q 594 144 517 144 q 734 167 667 144 q 863 244 801 190 l 965 110 q 788 17 889 49 q 585 -14 688 -14 m 965 110 l 794 133 l 794 497 l 965 497 l 965 110 z "},"Ǵ":{"ha":1072,"x_min":61,"x_max":978,"o":"m 585 -14 q 376 23 471 -14 q 210 127 281 60 q 100 286 139 194 q 61 486 61 378 q 100 686 61 594 q 210 845 139 778 q 378 949 282 913 q 588 986 474 986 q 810 946 711 986 q 978 828 910 906 l 864 717 q 741 801 807 774 q 596 828 675 828 q 454 803 519 828 q 342 732 389 778 q 269 624 294 686 q 243 486 243 561 q 269 350 243 413 q 342 241 294 288 q 453 169 389 194 q 594 144 517 144 q 734 167 667 144 q 863 244 801 190 l 965 110 q 788 17 889 49 q 585 -14 688 -14 m 965 110 l 794 133 l 794 497 l 965 497 l 965 110 m 458 1051 l 646 1242 l 850 1242 l 608 1051 l 458 1051 z "},"Ğ":{"ha":1072,"x_min":61,"x_max":978,"o":"m 585 -14 q 376 23 471 -14 q 210 127 281 60 q 100 286 139 194 q 61 486 61 378 q 100 686 61 594 q 210 845 139 778 q 378 949 282 913 q 588 986 474 986 q 810 946 711 986 q 978 828 910 906 l 864 717 q 741 801 807 774 q 596 828 675 828 q 454 803 519 828 q 342 732 389 778 q 269 624 294 686 q 243 486 243 561 q 269 350 243 413 q 342 241 294 288 q 453 169 389 194 q 594 144 517 144 q 734 167 667 144 q 863 244 801 190 l 965 110 q 788 17 889 49 q 585 -14 688 -14 m 965 110 l 794 133 l 794 497 l 965 497 l 965 110 m 575 1056 q 406 1110 474 1056 q 335 1256 339 1164 l 449 1256 q 488 1179 451 1207 q 575 1151 524 1151 q 663 1179 626 1151 q 701 1256 700 1207 l 815 1256 q 744 1110 811 1164 q 575 1056 676 1056 z "},"Ǧ":{"ha":1072,"x_min":61,"x_max":978,"o":"m 585 -14 q 376 23 471 -14 q 210 127 281 60 q 100 286 139 194 q 61 486 61 378 q 100 686 61 594 q 210 845 139 778 q 378 949 282 913 q 588 986 474 986 q 810 946 711 986 q 978 828 910 906 l 864 717 q 741 801 807 774 q 596 828 675 828 q 454 803 519 828 q 342 732 389 778 q 269 624 294 686 q 243 486 243 561 q 269 350 243 413 q 342 241 294 288 q 453 169 389 194 q 594 144 517 144 q 734 167 667 144 q 863 244 801 190 l 965 110 q 788 17 889 49 q 585 -14 688 -14 m 965 110 l 794 133 l 794 497 l 965 497 l 965 110 m 496 1051 l 310 1242 l 453 1242 l 642 1083 l 508 1083 l 697 1242 l 840 1242 l 654 1051 l 496 1051 z "},"Ĝ":{"ha":1072,"x_min":61,"x_max":978,"o":"m 585 -14 q 376 23 471 -14 q 210 127 281 60 q 100 286 139 194 q 61 486 61 378 q 100 686 61 594 q 210 845 139 778 q 378 949 282 913 q 588 986 474 986 q 810 946 711 986 q 978 828 910 906 l 864 717 q 741 801 807 774 q 596 828 675 828 q 454 803 519 828 q 342 732 389 778 q 269 624 294 686 q 243 486 243 561 q 269 350 243 413 q 342 241 294 288 q 453 169 389 194 q 594 144 517 144 q 734 167 667 144 q 863 244 801 190 l 965 110 q 788 17 889 49 q 585 -14 688 -14 m 965 110 l 794 133 l 794 497 l 965 497 l 965 110 m 310 1051 l 496 1242 l 654 1242 l 840 1051 l 697 1051 l 508 1211 l 642 1211 l 453 1051 l 310 1051 z "},"Ģ":{"ha":1072,"x_min":61,"x_max":978,"o":"m 585 -14 q 376 23 471 -14 q 210 127 281 60 q 100 286 139 194 q 61 486 61 378 q 100 686 61 594 q 210 845 139 778 q 378 949 282 913 q 588 986 474 986 q 810 946 711 986 q 978 828 910 906 l 864 717 q 741 801 807 774 q 596 828 675 828 q 454 803 519 828 q 342 732 389 778 q 269 624 294 686 q 243 486 243 561 q 269 350 243 413 q 342 241 294 288 q 453 169 389 194 q 594 144 517 144 q 734 167 667 144 q 863 244 801 190 l 965 110 q 788 17 889 49 q 585 -14 688 -14 m 965 110 l 794 133 l 794 497 l 965 497 l 965 110 m 496 -356 l 546 -187 l 564 -250 q 503 -230 525 -250 q 481 -178 481 -210 q 503 -124 481 -144 q 564 -103 526 -103 q 625 -124 603 -103 q 647 -178 647 -146 q 643 -213 647 -193 q 625 -258 639 -233 l 581 -356 l 496 -356 z "},"Ġ":{"ha":1072,"x_min":61,"x_max":978,"o":"m 585 -14 q 376 23 471 -14 q 210 127 281 60 q 100 286 139 194 q 61 486 61 378 q 100 686 61 594 q 210 845 139 778 q 378 949 282 913 q 588 986 474 986 q 810 946 711 986 q 978 828 910 906 l 864 717 q 741 801 807 774 q 596 828 675 828 q 454 803 519 828 q 342 732 389 778 q 269 624 294 686 q 243 486 243 561 q 269 350 243 413 q 342 241 294 288 q 453 169 389 194 q 594 144 517 144 q 734 167 667 144 q 863 244 801 190 l 965 110 q 788 17 889 49 q 585 -14 688 -14 m 965 110 l 794 133 l 794 497 l 965 497 l 965 110 m 575 1068 q 504 1096 532 1068 q 476 1167 476 1124 q 504 1238 476 1210 q 575 1265 532 1265 q 645 1238 617 1265 q 674 1167 674 1210 q 645 1096 674 1124 q 575 1068 617 1068 z "},"Ɠ":{"ha":1089,"x_min":61,"x_max":1167,"o":"m 585 -14 q 376 23 471 -14 q 210 127 281 60 q 100 286 139 194 q 61 486 61 378 q 100 686 61 594 q 210 845 139 778 q 378 949 282 913 q 588 986 474 986 q 810 946 711 986 q 978 828 910 906 l 864 717 q 741 801 807 774 q 596 828 675 828 q 454 803 519 828 q 342 732 389 778 q 269 624 294 686 q 243 486 243 561 q 269 350 243 413 q 342 241 294 288 q 453 169 389 194 q 594 144 517 144 q 734 167 667 144 q 863 244 801 190 l 965 110 q 788 17 889 49 q 585 -14 688 -14 m 965 110 l 794 133 l 794 497 l 965 497 l 965 110 m 818 829 l 818 939 q 849 1071 818 1018 q 931 1151 881 1124 q 1043 1181 981 1179 q 1167 1158 1106 1182 l 1121 1024 q 1055 1031 1088 1038 q 1000 1001 1022 1025 q 978 936 978 976 l 978 828 l 818 829 z "},"Ɂ":{"ha":808,"x_min":-44,"x_max":792,"o":"m 269 0 l 269 226 q 294 344 269 296 q 358 424 319 392 q 440 482 396 457 q 522 532 483 507 q 586 590 561 557 q 611 669 611 622 q 576 762 611 726 q 488 815 542 797 q 376 833 435 833 q 270 819 322 833 q 174 774 218 804 q 97 696 129 743 l -44 790 q 67 899 1 856 q 213 964 133 942 q 378 986 293 986 q 532 967 458 986 q 665 908 606 947 q 758 811 724 869 q 792 674 792 753 q 767 558 792 606 q 703 477 743 511 q 621 416 664 443 q 539 361 578 389 q 475 299 500 333 q 450 215 450 264 l 450 0 l 269 0 z "},"Ḡ":{"ha":1072,"x_min":61,"x_max":978,"o":"m 585 -14 q 376 23 471 -14 q 210 127 281 60 q 100 286 139 194 q 61 486 61 378 q 100 686 61 594 q 210 845 139 778 q 378 949 282 913 q 588 986 474 986 q 810 946 711 986 q 978 828 910 906 l 864 717 q 741 801 807 774 q 596 828 675 828 q 454 803 519 828 q 342 732 389 778 q 269 624 294 686 q 243 486 243 561 q 269 350 243 413 q 342 241 294 288 q 453 169 389 194 q 594 144 517 144 q 734 167 667 144 q 863 244 801 190 l 965 110 q 788 17 889 49 q 585 -14 688 -14 m 965 110 l 794 133 l 794 497 l 965 497 l 965 110 m 335 1094 l 335 1199 l 815 1199 l 815 1094 l 335 1094 z "},"Ǥ":{"ha":1118,"x_min":61,"x_max":1099,"o":"m 585 -14 q 376 23 471 -14 q 210 127 281 60 q 100 286 139 194 q 61 486 61 378 q 100 686 61 594 q 210 845 139 778 q 378 949 282 913 q 588 986 474 986 q 810 946 711 986 q 978 828 910 906 l 864 717 q 741 801 807 774 q 596 828 675 828 q 454 803 519 828 q 342 732 389 778 q 269 624 294 686 q 243 486 243 561 q 269 350 243 413 q 342 241 294 288 q 453 169 389 194 q 594 144 517 144 q 734 167 667 144 q 863 244 801 190 l 965 110 q 788 17 889 49 q 585 -14 688 -14 m 594 288 l 594 421 l 1099 421 l 1099 288 l 594 288 m 965 110 l 794 133 l 794 499 l 965 499 l 965 110 z "},"Ȝ":{"ha":868,"x_min":-19,"x_max":801,"o":"m -11 -151 l -19 -1 q 244 44 126 18 q 444 105 361 69 q 570 186 526 140 q 614 292 614 232 q 586 369 614 342 q 510 403 558 396 q 400 396 461 410 l 200 350 l 189 497 l 356 536 q 468 575 418 553 q 548 630 518 597 q 578 708 578 663 q 560 770 578 742 q 508 816 543 799 q 418 833 474 833 q 314 821 374 833 q 185 783 254 808 q 46 721 117 757 l -11 854 q 130 924 54 894 q 284 969 206 953 q 438 986 363 986 q 622 951 550 986 q 727 862 693 917 q 761 746 761 807 q 718 614 761 671 q 601 519 675 557 q 436 458 528 481 l 429 497 q 621 503 538 524 q 753 427 704 483 q 801 285 801 371 q 742 119 801 193 q 576 -10 683 46 q 319 -101 468 -65 q -11 -151 169 -136 z "},"H":{"ha":1125,"x_min":131,"x_max":994,"o":"m 814 0 l 814 972 l 994 972 l 994 0 l 814 0 m 131 0 l 131 972 l 311 972 l 311 0 l 131 0 m 296 417 l 296 571 l 828 571 l 828 417 l 296 417 z "},"Ħ":{"ha":1154,"x_min":13,"x_max":1142,"o":"m 828 0 l 828 972 l 1008 972 l 1008 0 l 828 0 m 146 0 l 146 972 l 326 972 l 326 0 l 146 0 m 311 415 l 311 567 l 842 567 l 842 415 l 311 415 m 13 694 l 13 828 l 1142 828 l 1142 694 l 13 694 z "},"Ḫ":{"ha":1125,"x_min":131,"x_max":994,"o":"m 814 0 l 814 972 l 994 972 l 994 0 l 814 0 m 131 0 l 131 972 l 311 972 l 311 0 l 131 0 m 296 417 l 296 571 l 828 571 l 828 417 l 296 417 m 563 -279 q 394 -225 461 -279 q 322 -79 326 -171 l 436 -79 q 475 -156 439 -128 q 563 -183 511 -183 q 651 -156 614 -183 q 689 -79 688 -128 l 803 -79 q 731 -225 799 -171 q 563 -279 664 -279 z "},"Ȟ":{"ha":1125,"x_min":131,"x_max":994,"o":"m 814 0 l 814 972 l 994 972 l 994 0 l 814 0 m 131 0 l 131 972 l 311 972 l 311 0 l 131 0 m 296 417 l 296 571 l 828 571 l 828 417 l 296 417 m 483 1051 l 297 1242 l 440 1242 l 629 1083 l 496 1083 l 685 1242 l 828 1242 l 642 1051 l 483 1051 z "},"Ḩ":{"ha":1125,"x_min":82,"x_max":994,"o":"m 814 0 l 814 972 l 994 972 l 994 0 l 814 0 m 210 -317 q 141 -309 174 -317 q 82 -287 108 -301 l 114 -206 q 159 -222 136 -217 q 208 -228 182 -228 q 265 -214 249 -228 q 282 -178 282 -200 q 265 -144 282 -157 q 208 -132 247 -132 l 149 -132 l 185 10 l 281 10 l 261 -68 q 367 -108 336 -75 q 399 -185 399 -140 q 347 -281 399 -246 q 210 -317 296 -317 m 131 0 l 131 972 l 311 972 l 311 0 l 131 0 m 296 417 l 296 571 l 828 571 l 828 417 l 296 417 z "},"Ĥ":{"ha":1125,"x_min":131,"x_max":994,"o":"m 814 0 l 814 972 l 994 972 l 994 0 l 814 0 m 131 0 l 131 972 l 311 972 l 311 0 l 131 0 m 296 417 l 296 571 l 828 571 l 828 417 l 296 417 m 297 1051 l 483 1242 l 642 1242 l 828 1051 l 685 1051 l 496 1211 l 629 1211 l 440 1051 l 297 1051 z "},"Ḧ":{"ha":1125,"x_min":131,"x_max":994,"o":"m 814 0 l 814 972 l 994 972 l 994 0 l 814 0 m 131 0 l 131 972 l 311 972 l 311 0 l 131 0 m 296 417 l 296 571 l 828 571 l 828 417 l 296 417 m 697 1067 q 638 1090 663 1067 q 614 1150 614 1113 q 638 1211 614 1188 q 697 1235 663 1235 q 756 1211 732 1235 q 781 1150 781 1188 q 756 1090 781 1113 q 697 1067 732 1067 m 428 1067 q 369 1090 393 1067 q 344 1150 344 1113 q 369 1211 344 1188 q 428 1235 393 1235 q 487 1211 463 1235 q 511 1150 511 1188 q 487 1090 511 1113 q 428 1067 463 1067 z "},"Ḣ":{"ha":1125,"x_min":131,"x_max":994,"o":"m 814 0 l 814 972 l 994 972 l 994 0 l 814 0 m 131 0 l 131 972 l 311 972 l 311 0 l 131 0 m 296 417 l 296 571 l 828 571 l 828 417 l 296 417 m 563 1068 q 492 1096 519 1068 q 464 1167 464 1124 q 492 1238 464 1210 q 563 1265 519 1265 q 633 1238 604 1265 q 661 1167 661 1210 q 633 1096 661 1124 q 563 1068 604 1068 z "},"Ḥ":{"ha":1125,"x_min":131,"x_max":994,"o":"m 814 0 l 814 972 l 994 972 l 994 0 l 814 0 m 131 0 l 131 972 l 311 972 l 311 0 l 131 0 m 296 417 l 296 571 l 828 571 l 828 417 l 296 417 m 563 -286 q 492 -258 519 -286 q 464 -187 464 -231 q 492 -117 464 -144 q 563 -89 519 -89 q 633 -117 604 -89 q 661 -187 661 -144 q 633 -258 661 -231 q 563 -286 604 -286 z "},"Ꜧ":{"ha":1136,"x_min":136,"x_max":999,"o":"m 571 -235 l 619 -107 q 688 -133 653 -128 q 752 -128 722 -137 q 800 -94 782 -119 q 818 -29 818 -68 l 818 972 l 999 972 l 999 -33 q 957 -181 999 -124 q 851 -262 915 -237 q 711 -279 786 -286 q 571 -235 636 -272 m 136 0 l 136 972 l 315 972 l 315 0 l 136 0 m 297 417 l 297 571 l 843 571 l 843 417 l 297 417 z "},"Ɦ":{"ha":1375,"x_min":38,"x_max":1244,"o":"m 138 506 q 63 617 88 556 q 39 740 38 678 q 69 856 40 803 q 158 940 99 908 q 308 972 217 972 l 393 972 l 393 819 l 308 819 q 241 799 265 819 q 211 744 217 778 q 219 671 206 710 q 264 597 232 632 l 138 506 m 1064 0 l 1064 972 l 1244 972 l 1244 0 l 1064 0 m 382 0 l 382 972 l 561 972 l 561 0 l 382 0 m 547 417 l 547 571 l 1078 571 l 1078 417 l 547 417 z "},"Ɥ":{"ha":1051,"x_min":67,"x_max":921,"o":"m 921 972 l 921 0 l 746 0 l 746 544 l 793 515 q 655 346 746 399 q 438 293 564 293 q 166 399 265 293 q 67 706 67 506 l 67 972 l 247 972 l 247 711 q 311 515 247 579 q 481 450 375 450 q 668 518 596 450 q 740 729 740 586 l 740 972 l 921 972 z "},"I":{"ha":443,"x_min":131,"x_max":311,"o":"m 131 0 l 131 972 l 311 972 l 311 0 l 131 0 z "},"Ĳ":{"ha":1003,"x_min":104,"x_max":881,"o":"m 454 -14 q 260 15 350 -14 q 104 89 171 43 l 172 229 q 308 165 235 188 q 454 143 381 143 q 637 212 574 143 q 700 422 700 281 l 700 972 l 881 972 l 881 432 q 827 187 881 286 q 678 37 774 88 q 454 -14 583 -14 m 122 438 l 122 972 l 303 972 l 303 438 l 122 438 z "},"Í":{"ha":443,"x_min":104,"x_max":497,"o":"m 131 0 l 131 972 l 311 972 l 311 0 l 131 0 m 104 1051 l 292 1242 l 496 1242 l 254 1051 l 104 1051 z "},"Ĭ":{"ha":443,"x_min":-19,"x_max":463,"o":"m 131 0 l 131 972 l 311 972 l 311 0 l 131 0 m 221 1056 q 52 1110 119 1056 q -19 1256 -15 1164 l 94 1256 q 133 1179 97 1207 q 221 1151 169 1151 q 309 1179 272 1151 q 347 1256 346 1207 l 461 1256 q 390 1110 457 1164 q 221 1056 322 1056 z "},"Ǐ":{"ha":443,"x_min":-44,"x_max":486,"o":"m 131 0 l 131 972 l 311 972 l 311 0 l 131 0 m 142 1051 l -44 1242 l 99 1242 l 288 1083 l 154 1083 l 343 1242 l 486 1242 l 300 1051 l 142 1051 z "},"Î":{"ha":443,"x_min":-44,"x_max":486,"o":"m 131 0 l 131 972 l 311 972 l 311 0 l 131 0 m -44 1051 l 142 1242 l 300 1242 l 486 1051 l 343 1051 l 154 1211 l 288 1211 l 99 1051 l -44 1051 z "},"Ȉ":{"ha":443,"x_min":-125,"x_max":421,"o":"m 131 0 l 131 972 l 311 972 l 311 0 l 131 0 m 283 1051 l 133 1242 l 307 1242 l 419 1051 l 283 1051 m 22 1051 l -126 1242 l 47 1242 l 158 1051 l 22 1051 z "},"Ï":{"ha":443,"x_min":3,"x_max":440,"o":"m 131 0 l 131 972 l 311 972 l 311 0 l 131 0 m 356 1067 q 297 1090 321 1067 q 272 1150 272 1113 q 297 1211 272 1188 q 356 1235 321 1235 q 415 1211 390 1235 q 439 1150 439 1188 q 415 1090 439 1113 q 356 1067 390 1067 m 86 1067 q 27 1090 51 1067 q 3 1150 3 1113 q 27 1211 3 1188 q 86 1235 51 1235 q 145 1211 121 1235 q 169 1150 169 1188 q 145 1090 169 1113 q 86 1067 121 1067 z "},"Ḯ":{"ha":443,"x_min":11,"x_max":458,"o":"m 131 0 l 131 972 l 311 972 l 311 0 l 131 0 m 353 1061 q 296 1084 319 1061 q 272 1142 272 1107 q 296 1198 272 1175 q 353 1221 319 1221 q 409 1198 385 1221 q 433 1142 433 1175 q 409 1084 433 1107 q 353 1061 385 1061 m 90 1061 q 33 1084 57 1061 q 10 1142 10 1107 q 33 1198 10 1175 q 90 1221 57 1221 q 148 1198 125 1221 q 171 1142 171 1175 q 148 1084 171 1107 q 90 1061 125 1061 m 114 1263 l 272 1425 l 458 1425 l 247 1263 l 114 1263 z "},"İ":{"ha":443,"x_min":122,"x_max":321,"o":"m 131 0 l 131 972 l 311 972 l 311 0 l 131 0 m 221 1068 q 150 1096 178 1068 q 122 1167 122 1124 q 150 1238 122 1210 q 221 1265 178 1265 q 291 1238 263 1265 q 319 1167 319 1210 q 291 1096 319 1124 q 221 1068 263 1068 z "},"Ị":{"ha":443,"x_min":122,"x_max":321,"o":"m 131 0 l 131 972 l 311 972 l 311 0 l 131 0 m 221 -286 q 150 -258 178 -286 q 122 -187 122 -231 q 150 -117 122 -144 q 221 -89 178 -89 q 291 -117 263 -89 q 319 -187 319 -144 q 291 -258 319 -231 q 221 -286 263 -286 z "},"Ì":{"ha":443,"x_min":-54,"x_max":338,"o":"m 131 0 l 131 972 l 311 972 l 311 0 l 131 0 m 188 1051 l -54 1242 l 150 1242 l 338 1051 l 188 1051 z "},"Ỉ":{"ha":443,"x_min":57,"x_max":350,"o":"m 131 0 l 131 972 l 311 972 l 311 0 l 131 0 m 229 1010 l 172 1074 q 230 1115 213 1093 q 247 1163 247 1136 q 228 1207 247 1190 q 178 1224 210 1224 q 96 1197 136 1224 l 58 1272 q 125 1306 89 1294 q 197 1317 161 1317 q 277 1299 242 1317 q 332 1251 313 1282 q 351 1176 351 1219 q 322 1081 351 1122 q 229 1010 292 1039 z "},"Ȋ":{"ha":443,"x_min":-19,"x_max":463,"o":"m 131 0 l 131 972 l 311 972 l 311 0 l 131 0 m -19 1051 q 52 1198 -15 1144 q 221 1251 119 1251 q 390 1198 322 1251 q 461 1051 457 1144 l 347 1051 q 309 1128 346 1100 q 221 1157 272 1157 q 133 1128 169 1157 q 94 1051 97 1100 l -19 1051 z "},"Ī":{"ha":443,"x_min":25,"x_max":418,"o":"m 131 0 l 131 972 l 311 972 l 311 0 l 131 0 m 25 1094 l 25 1199 l 417 1199 l 417 1094 l 25 1094 z "},"Į":{"ha":443,"x_min":110,"x_max":358,"o":"m 131 0 l 131 972 l 311 972 l 311 0 l 131 0 m 264 -317 q 152 -277 194 -317 q 110 -172 110 -237 q 144 -56 110 -112 q 253 50 179 1 l 311 0 q 243 -83 260 -46 q 226 -154 226 -121 q 244 -203 226 -185 q 286 -222 261 -222 q 332 -208 310 -222 l 358 -289 q 264 -317 322 -317 z "},"Ɩ":{"ha":546,"x_min":122,"x_max":554,"o":"m 376 -14 l 376 -14 q 253 13 311 -14 q 158 97 194 40 q 122 243 122 154 l 122 972 l 303 972 l 303 249 q 333 166 303 193 q 406 139 364 139 q 455 147 429 139 q 506 168 481 154 l 554 35 q 468 -1 514 13 q 376 -14 422 -14 z "},"Ɨ":{"ha":481,"x_min":17,"x_max":464,"o":"m 150 0 l 150 972 l 331 972 l 331 0 l 150 0 m 17 432 l 17 564 l 464 564 l 464 432 l 17 432 z "},"Ĩ":{"ha":443,"x_min":-4,"x_max":446,"o":"m 131 0 l 131 972 l 311 972 l 311 0 l 131 0 m 308 1044 q 247 1060 272 1044 q 205 1095 222 1075 q 172 1130 188 1115 q 138 1144 156 1144 q 106 1121 117 1144 q 94 1054 94 1097 l -4 1054 q 31 1198 -4 1144 q 131 1251 65 1251 q 193 1237 168 1251 q 237 1202 218 1222 q 272 1167 256 1182 q 306 1151 288 1151 q 336 1175 325 1151 q 347 1240 347 1199 l 446 1240 q 410 1099 444 1153 q 308 1044 375 1044 z "},"Ḭ":{"ha":472,"x_min":11,"x_max":460,"o":"m 131 0 l 131 972 l 311 972 l 311 0 l 131 0 m 324 -279 q 263 -264 288 -279 q 220 -228 238 -249 q 187 -194 203 -208 q 153 -179 171 -179 q 121 -203 132 -179 q 110 -269 110 -226 l 11 -269 q 46 -126 11 -179 q 146 -72 81 -72 q 208 -87 183 -72 q 252 -122 233 -101 q 287 -157 271 -142 q 321 -172 303 -172 q 351 -149 340 -172 q 363 -83 363 -125 l 461 -83 q 425 -225 460 -171 q 324 -279 390 -279 z "},"J":{"ha":732,"x_min":-18,"x_max":610,"o":"m 282 -14 q 110 22 189 -14 q -18 126 32 58 l 85 250 q 173 167 125 194 q 278 139 221 139 q 429 318 429 139 l 429 821 l 83 821 l 83 972 l 610 972 l 610 328 q 526 71 610 156 q 282 -14 442 -14 z "},"Ĵ":{"ha":732,"x_min":-18,"x_max":613,"o":"m 282 -14 q 110 22 189 -14 q -18 126 32 58 l 85 250 q 173 167 125 194 q 278 139 221 139 q 429 318 429 139 l 429 821 l 83 821 l 83 972 l 610 972 l 610 328 q 526 71 610 156 q 282 -14 442 -14 m 82 1051 l 268 1242 l 426 1242 l 613 1051 l 469 1051 l 281 1211 l 414 1211 l 225 1051 l 82 1051 z "},"Ʝ":{"ha":732,"x_min":25,"x_max":711,"o":"m 289 -14 q 152 13 213 -14 q 58 88 92 39 q 25 200 25 136 q 52 301 25 253 q 143 381 79 350 q 315 413 207 413 l 711 413 l 711 279 l 319 279 q 233 266 263 279 q 194 233 203 253 q 185 199 185 214 q 197 160 185 178 q 231 131 208 142 q 285 121 254 121 q 349 135 318 121 q 401 185 381 150 q 422 278 422 219 l 426 821 l 79 821 l 79 972 l 606 972 l 601 286 q 556 113 601 179 q 440 17 511 47 q 289 -14 368 -14 z "},"Ɉ":{"ha":740,"x_min":-18,"x_max":743,"o":"m 282 -14 q 110 22 189 -14 q -18 126 32 58 l 85 250 q 173 167 125 194 q 278 139 221 139 q 429 318 429 139 l 429 821 l 83 821 l 83 972 l 610 972 l 610 328 q 526 71 610 156 q 282 -14 442 -14 m 229 432 l 229 564 l 743 564 l 743 432 l 229 432 z "},"K":{"ha":1013,"x_min":131,"x_max":1019,"o":"m 292 229 l 282 443 l 792 972 l 994 972 l 571 522 l 471 413 l 292 229 m 131 0 l 131 972 l 311 972 l 311 0 l 131 0 m 808 0 l 436 443 l 556 575 l 1019 0 l 808 0 z "},"Ḱ":{"ha":1013,"x_min":131,"x_max":1019,"o":"m 292 229 l 282 443 l 792 972 l 994 972 l 571 522 l 471 413 l 292 229 m 131 0 l 131 972 l 311 972 l 311 0 l 131 0 m 808 0 l 436 443 l 556 575 l 1019 0 l 808 0 m 407 1051 l 594 1242 l 799 1242 l 557 1051 l 407 1051 z "},"Ǩ":{"ha":1013,"x_min":131,"x_max":1019,"o":"m 292 229 l 282 443 l 792 972 l 994 972 l 571 522 l 471 413 l 292 229 m 131 0 l 131 972 l 311 972 l 311 0 l 131 0 m 808 0 l 436 443 l 556 575 l 1019 0 l 808 0 m 444 1051 l 258 1242 l 401 1242 l 590 1083 l 457 1083 l 646 1242 l 789 1242 l 603 1051 l 444 1051 z "},"Ķ":{"ha":1013,"x_min":131,"x_max":1019,"o":"m 292 229 l 282 443 l 792 972 l 994 972 l 571 522 l 471 413 l 292 229 m 131 0 l 131 972 l 311 972 l 311 0 l 131 0 m 808 0 l 436 443 l 556 575 l 1019 0 l 808 0 m 456 -356 l 506 -187 l 524 -250 q 463 -230 485 -250 q 440 -178 440 -210 q 463 -124 440 -144 q 524 -103 486 -103 q 585 -124 563 -103 q 607 -178 607 -146 q 603 -213 607 -193 q 585 -258 599 -233 l 540 -356 l 456 -356 z "},"Ḳ":{"ha":1013,"x_min":131,"x_max":1019,"o":"m 292 229 l 282 443 l 792 972 l 994 972 l 571 522 l 471 413 l 292 229 m 131 0 l 131 972 l 311 972 l 311 0 l 131 0 m 808 0 l 436 443 l 556 575 l 1019 0 l 808 0 m 524 -286 q 453 -258 481 -286 q 425 -187 425 -231 q 453 -117 425 -144 q 524 -89 481 -89 q 594 -117 565 -89 q 622 -187 622 -144 q 594 -258 622 -231 q 524 -286 565 -286 z "},"Ƙ":{"ha":990,"x_min":131,"x_max":1021,"o":"m 289 229 l 279 447 l 681 939 q 795 1028 735 1006 q 914 1038 856 1050 q 1021 986 972 1026 l 938 868 q 866 891 906 894 q 792 844 826 888 l 289 229 m 131 0 l 131 972 l 311 972 l 311 0 l 131 0 m 808 0 l 436 443 l 556 575 l 1019 0 l 808 0 z "},"Ḵ":{"ha":1013,"x_min":131,"x_max":1019,"o":"m 292 229 l 282 443 l 792 972 l 994 972 l 571 522 l 471 413 l 292 229 m 131 0 l 131 972 l 311 972 l 311 0 l 131 0 m 808 0 l 436 443 l 556 575 l 1019 0 l 808 0 m 283 -239 l 283 -135 l 764 -135 l 764 -239 l 283 -239 z "},"Ꝁ":{"ha":1013,"x_min":1,"x_max":1024,"o":"m 293 218 l 286 436 l 796 972 l 999 972 l 293 218 m 136 0 l 136 972 l 315 972 l 315 0 l 136 0 m 813 0 l 440 443 l 560 575 l 1024 0 l 813 0 m 1 725 l 1 851 l 513 851 l 513 725 l 1 725 z "},"L":{"ha":832,"x_min":131,"x_max":819,"o":"m 131 0 l 131 972 l 311 972 l 311 153 l 819 153 l 819 0 l 131 0 z "},"Ǉ":{"ha":1574,"x_min":131,"x_max":1451,"o":"m 131 0 l 131 972 l 311 972 l 311 153 l 819 153 l 819 0 l 131 0 m 1124 -14 q 952 22 1031 -14 q 824 126 874 58 l 926 250 q 1015 167 967 194 q 1119 139 1063 139 q 1271 318 1271 139 l 1271 821 l 925 821 l 925 972 l 1451 972 l 1451 328 q 1367 71 1451 156 q 1124 -14 1283 -14 z "},"Ĺ":{"ha":832,"x_min":104,"x_max":819,"o":"m 131 0 l 131 972 l 311 972 l 311 153 l 819 153 l 819 0 l 131 0 m 104 1051 l 292 1242 l 496 1242 l 254 1051 l 104 1051 z "},"Ƚ":{"ha":846,"x_min":11,"x_max":833,"o":"m 146 0 l 146 972 l 325 972 l 325 153 l 833 153 l 833 0 l 146 0 m 11 432 l 11 564 l 526 564 l 526 432 l 11 432 z "},"Ɬ":{"ha":935,"x_min":-29,"x_max":924,"o":"m 235 0 l 235 972 l 415 972 l 415 153 l 924 153 l 924 0 l 235 0 m 203 435 q 69 463 121 435 q -6 534 17 490 q -29 626 -29 578 q -6 718 -29 679 q 58 778 18 757 q 144 799 97 799 q 229 774 190 799 q 292 700 268 750 q 317 569 317 650 l 235 569 q 207 656 235 629 q 153 682 179 682 q 117 669 131 682 q 104 636 104 656 q 127 591 104 613 q 208 569 150 569 l 701 569 l 703 435 l 203 435 z "},"Ľ":{"ha":832,"x_min":131,"x_max":819,"o":"m 131 0 l 131 972 l 311 972 l 311 153 l 819 153 l 819 0 l 131 0 m 603 750 l 603 1024 l 740 1024 l 718 750 l 603 750 z "},"Ḽ":{"ha":832,"x_min":131,"x_max":819,"o":"m 131 0 l 131 972 l 311 972 l 311 153 l 819 153 l 819 0 l 131 0 m 211 -283 l 397 -93 l 556 -93 l 742 -283 l 599 -283 l 410 -124 l 543 -124 l 354 -283 l 211 -283 z "},"Ļ":{"ha":832,"x_min":131,"x_max":819,"o":"m 131 0 l 131 972 l 311 972 l 311 153 l 819 153 l 819 0 l 131 0 m 408 -356 l 458 -187 l 476 -250 q 415 -230 438 -250 q 393 -178 393 -210 q 416 -124 393 -144 q 476 -103 439 -103 q 538 -124 515 -103 q 560 -178 560 -146 q 556 -213 560 -193 q 538 -258 551 -233 l 493 -356 l 408 -356 z "},"Ŀ":{"ha":832,"x_min":131,"x_max":819,"o":"m 131 0 l 131 972 l 311 972 l 311 153 l 819 153 l 819 0 l 131 0 m 651 467 q 579 497 608 467 q 550 571 550 526 q 579 646 550 617 q 651 675 608 675 q 723 646 694 675 q 751 571 751 617 q 723 497 751 526 q 651 467 694 467 z "},"Ḷ":{"ha":832,"x_min":131,"x_max":819,"o":"m 131 0 l 131 972 l 311 972 l 311 153 l 819 153 l 819 0 l 131 0 m 476 -286 q 406 -258 433 -286 q 378 -187 378 -231 q 406 -117 378 -144 q 476 -89 433 -89 q 547 -117 518 -89 q 575 -187 575 -144 q 547 -258 575 -231 q 476 -286 518 -286 z "},"Ḹ":{"ha":832,"x_min":-19,"x_max":819,"o":"m 131 0 l 131 972 l 311 972 l 311 153 l 819 153 l 819 0 l 131 0 m 476 -286 q 406 -258 433 -286 q 378 -187 378 -231 q 406 -117 378 -144 q 476 -89 433 -89 q 547 -117 518 -89 q 575 -187 575 -144 q 547 -258 575 -231 q 476 -286 518 -286 m -19 1094 l -19 1199 l 461 1199 l 461 1094 l -19 1094 z "},"Ⱡ":{"ha":893,"x_min":60,"x_max":881,"o":"m 193 0 l 193 972 l 374 972 l 374 153 l 881 153 l 881 0 l 193 0 m 60 368 l 60 499 l 574 499 l 574 368 l 60 368 m 60 594 l 60 725 l 574 725 l 574 594 l 60 594 z "},"ǈ":{"ha":1242,"x_min":131,"x_max":1151,"o":"m 131 0 l 131 972 l 311 972 l 311 153 l 819 153 l 819 0 l 131 0 m 869 -279 q 777 -269 821 -279 q 703 -236 733 -258 l 753 -107 q 854 -136 793 -136 q 928 -106 901 -136 q 954 -18 954 -76 l 954 742 l 1128 742 l 1128 -14 q 1060 -208 1128 -136 q 869 -279 993 -279 m 1040 864 q 960 894 992 864 q 929 968 929 925 q 960 1042 929 1013 q 1040 1072 992 1072 q 1120 1044 1089 1072 q 1151 972 1151 1015 q 1121 895 1151 926 q 1040 864 1090 864 z "},"Ḻ":{"ha":832,"x_min":131,"x_max":819,"o":"m 131 0 l 131 972 l 311 972 l 311 153 l 819 153 l 819 0 l 131 0 m 236 -239 l 236 -135 l 717 -135 l 717 -239 l 236 -239 z "},"Ɫ":{"ha":863,"x_min":-33,"x_max":850,"o":"m 163 0 l 163 972 l 343 972 l 343 153 l 850 153 l 850 0 l 163 0 m 407 450 q 331 463 371 450 q 252 495 290 476 q 181 528 214 514 q 125 542 147 542 q 79 518 97 542 q 60 458 61 494 l -33 458 q 9 594 -31 543 q 115 644 49 644 q 192 631 153 644 q 271 599 232 617 q 342 567 310 581 q 397 553 375 553 q 443 576 425 553 q 463 632 461 600 l 556 632 q 514 501 554 551 q 407 450 474 450 z "},"Ł":{"ha":846,"x_min":-4,"x_max":833,"o":"m 144 0 l 144 972 l 325 972 l 325 153 l 833 153 l 833 0 l 144 0 m 69 297 l -4 393 l 475 756 l 549 661 l 69 297 z "},"M":{"ha":1326,"x_min":131,"x_max":1194,"o":"m 131 0 l 131 972 l 279 972 l 704 263 l 626 263 l 1044 972 l 1193 972 l 1194 0 l 1024 0 l 1022 704 l 1058 704 l 703 111 l 622 111 l 261 704 l 303 704 l 303 0 l 131 0 z "},"Ḿ":{"ha":1326,"x_min":131,"x_max":1194,"o":"m 131 0 l 131 972 l 279 972 l 704 263 l 626 263 l 1044 972 l 1193 972 l 1194 0 l 1024 0 l 1022 704 l 1058 704 l 703 111 l 622 111 l 261 704 l 303 704 l 303 0 l 131 0 m 546 1051 l 733 1242 l 938 1242 l 696 1051 l 546 1051 z "},"Ṁ":{"ha":1326,"x_min":131,"x_max":1194,"o":"m 131 0 l 131 972 l 279 972 l 704 263 l 626 263 l 1044 972 l 1193 972 l 1194 0 l 1024 0 l 1022 704 l 1058 704 l 703 111 l 622 111 l 261 704 l 303 704 l 303 0 l 131 0 m 663 1068 q 592 1096 619 1068 q 564 1167 564 1124 q 592 1238 564 1210 q 663 1265 619 1265 q 733 1238 704 1265 q 761 1167 761 1210 q 733 1096 761 1124 q 663 1068 704 1068 z "},"Ṃ":{"ha":1326,"x_min":131,"x_max":1194,"o":"m 131 0 l 131 972 l 279 972 l 704 263 l 626 263 l 1044 972 l 1193 972 l 1194 0 l 1024 0 l 1022 704 l 1058 704 l 703 111 l 622 111 l 261 704 l 303 704 l 303 0 l 131 0 m 663 -286 q 592 -258 619 -286 q 564 -187 564 -231 q 592 -117 564 -144 q 663 -89 619 -89 q 733 -117 704 -89 q 761 -187 761 -144 q 733 -258 761 -231 q 663 -286 704 -286 z "},"Ɱ":{"ha":1342,"x_min":146,"x_max":1210,"o":"m 794 -235 l 850 -104 q 917 -129 883 -124 q 977 -126 950 -135 q 1022 -92 1004 -117 q 1039 -29 1039 -68 l 1038 704 l 1074 704 l 718 111 l 636 111 l 276 704 l 318 704 l 318 0 l 146 0 l 146 972 l 294 972 l 719 263 l 642 263 l 1060 972 l 1208 972 l 1210 -33 q 1183 -158 1210 -107 q 1113 -240 1157 -210 q 1015 -278 1069 -269 q 903 -276 960 -287 q 794 -235 846 -265 z "},"Ɯ":{"ha":1701,"x_min":122,"x_max":1571,"o":"m 1571 972 l 1571 0 l 1396 0 l 1396 197 l 1419 171 q 1299 35 1382 85 q 1099 -14 1215 -14 q 893 41 976 -14 q 781 188 810 96 l 831 183 q 697 38 790 90 q 485 -14 604 -14 q 219 83 317 -14 q 122 371 122 181 l 122 972 l 303 972 l 303 378 q 365 201 303 257 q 521 144 428 144 q 692 203 625 144 q 758 393 758 261 l 758 972 l 939 972 l 939 378 q 998 201 939 257 q 1149 144 1057 144 q 1272 170 1218 144 q 1358 251 1326 196 q 1390 393 1390 307 l 1390 972 l 1571 972 z "},"N":{"ha":1125,"x_min":131,"x_max":994,"o":"m 131 0 l 131 972 l 279 972 l 889 224 l 815 224 l 815 972 l 994 972 l 994 0 l 846 0 l 236 749 l 310 749 l 310 0 l 131 0 z "},"Ǌ":{"ha":1857,"x_min":131,"x_max":1735,"o":"m 131 0 l 131 972 l 279 972 l 889 224 l 815 224 l 815 972 l 994 972 l 994 0 l 846 0 l 236 749 l 310 749 l 310 0 l 131 0 m 1407 -14 q 1235 22 1314 -14 q 1107 126 1157 58 l 1210 250 q 1298 167 1250 194 q 1403 139 1346 139 q 1554 318 1554 139 l 1554 821 l 1208 821 l 1208 972 l 1735 972 l 1735 328 q 1651 71 1735 156 q 1407 -14 1567 -14 z "},"Ń":{"ha":1125,"x_min":131,"x_max":994,"o":"m 131 0 l 131 972 l 279 972 l 889 224 l 815 224 l 815 972 l 994 972 l 994 0 l 846 0 l 236 749 l 310 749 l 310 0 l 131 0 m 446 1051 l 633 1242 l 838 1242 l 596 1051 l 446 1051 z "},"Ň":{"ha":1125,"x_min":131,"x_max":994,"o":"m 131 0 l 131 972 l 279 972 l 889 224 l 815 224 l 815 972 l 994 972 l 994 0 l 846 0 l 236 749 l 310 749 l 310 0 l 131 0 m 483 1051 l 297 1242 l 440 1242 l 629 1083 l 496 1083 l 685 1242 l 828 1242 l 642 1051 l 483 1051 z "},"Ṋ":{"ha":1125,"x_min":131,"x_max":994,"o":"m 131 0 l 131 972 l 279 972 l 889 224 l 815 224 l 815 972 l 994 972 l 994 0 l 846 0 l 236 749 l 310 749 l 310 0 l 131 0 m 296 -308 l 482 -118 l 640 -118 l 826 -308 l 683 -308 l 494 -149 l 628 -149 l 439 -308 l 296 -308 z "},"Ņ":{"ha":1125,"x_min":131,"x_max":994,"o":"m 131 0 l 131 972 l 279 972 l 889 224 l 815 224 l 815 972 l 994 972 l 994 0 l 846 0 l 236 749 l 310 749 l 310 0 l 131 0 m 494 -356 l 544 -187 l 563 -250 q 501 -230 524 -250 q 479 -178 479 -210 q 502 -124 479 -144 q 563 -103 525 -103 q 624 -124 601 -103 q 646 -178 646 -146 q 642 -213 646 -193 q 624 -258 638 -233 l 579 -356 l 494 -356 z "},"Ṅ":{"ha":1125,"x_min":131,"x_max":994,"o":"m 131 0 l 131 972 l 279 972 l 889 224 l 815 224 l 815 972 l 994 972 l 994 0 l 846 0 l 236 749 l 310 749 l 310 0 l 131 0 m 563 1068 q 492 1096 519 1068 q 464 1167 464 1124 q 492 1238 464 1210 q 563 1265 519 1265 q 633 1238 604 1265 q 661 1167 661 1210 q 633 1096 661 1124 q 563 1068 604 1068 z "},"Ṇ":{"ha":1125,"x_min":131,"x_max":994,"o":"m 131 0 l 131 972 l 279 972 l 889 224 l 815 224 l 815 972 l 994 972 l 994 0 l 846 0 l 236 749 l 310 749 l 310 0 l 131 0 m 563 -286 q 492 -258 519 -286 q 464 -187 464 -231 q 492 -117 464 -144 q 563 -89 519 -89 q 633 -117 604 -89 q 661 -187 661 -144 q 633 -258 661 -231 q 563 -286 604 -286 z "},"Ǹ":{"ha":1125,"x_min":131,"x_max":994,"o":"m 131 0 l 131 972 l 279 972 l 889 224 l 815 224 l 815 972 l 994 972 l 994 0 l 846 0 l 236 749 l 310 749 l 310 0 l 131 0 m 529 1051 l 288 1242 l 492 1242 l 679 1051 l 529 1051 z "},"Ɲ":{"ha":1128,"x_min":-42,"x_max":1004,"o":"m -42 -257 l 4 -122 q 74 -128 40 -135 q 129 -98 107 -122 q 151 -31 151 -74 l 151 972 l 325 972 l 325 735 l 279 764 q 416 933 325 879 q 633 986 507 986 q 906 880 807 986 q 1004 574 1004 774 l 1004 0 l 824 0 l 824 567 q 760 763 824 699 q 590 828 697 828 q 403 760 475 828 q 331 549 331 692 l 331 -31 q 297 -167 331 -111 q 208 -251 263 -222 q 88 -281 153 -279 q -42 -257 22 -282 z "},"ǋ":{"ha":1563,"x_min":131,"x_max":1472,"o":"m 131 0 l 131 972 l 279 972 l 889 224 l 815 224 l 815 972 l 994 972 l 994 0 l 846 0 l 236 749 l 310 749 l 310 0 l 131 0 m 1190 -279 q 1098 -269 1142 -279 q 1024 -236 1054 -258 l 1074 -107 q 1175 -136 1114 -136 q 1249 -106 1222 -136 q 1275 -18 1275 -76 l 1275 742 l 1449 742 l 1449 -14 q 1381 -208 1449 -136 q 1190 -279 1314 -279 m 1361 864 q 1281 894 1313 864 q 1250 968 1250 925 q 1281 1042 1250 1013 q 1361 1072 1313 1072 q 1441 1044 1410 1072 q 1472 972 1472 1015 q 1442 895 1472 926 q 1361 864 1411 864 z "},"Ṉ":{"ha":1125,"x_min":131,"x_max":994,"o":"m 131 0 l 131 972 l 279 972 l 889 224 l 815 224 l 815 972 l 994 972 l 994 0 l 846 0 l 236 749 l 310 749 l 310 0 l 131 0 m 322 -239 l 322 -135 l 803 -135 l 803 -239 l 322 -239 z "},"Ƞ":{"ha":1124,"x_min":146,"x_max":1000,"o":"m 819 -269 l 819 567 q 756 763 819 699 q 586 828 692 828 q 399 760 471 828 q 326 549 326 692 l 326 0 l 146 0 l 146 972 l 321 972 l 321 735 l 274 764 q 412 933 321 879 q 629 986 503 986 q 901 880 803 986 q 1000 574 1000 774 l 1000 -269 l 819 -269 z "},"Ñ":{"ha":1125,"x_min":131,"x_max":994,"o":"m 131 0 l 131 972 l 279 972 l 889 224 l 815 224 l 815 972 l 994 972 l 994 0 l 846 0 l 236 749 l 310 749 l 310 0 l 131 0 m 672 1044 q 606 1060 635 1044 q 553 1094 576 1075 q 508 1128 531 1113 q 464 1143 486 1143 q 415 1117 433 1143 q 396 1054 397 1090 l 294 1054 q 338 1195 296 1139 q 453 1251 381 1251 q 521 1237 492 1251 q 573 1203 550 1222 q 618 1169 596 1183 q 663 1154 640 1154 q 710 1180 693 1154 q 729 1240 728 1206 l 828 1240 q 785 1101 826 1157 q 672 1044 744 1044 z "},"Ŋ":{"ha":1125,"x_min":131,"x_max":994,"o":"m 131 0 l 131 972 l 279 972 l 889 224 l 846 0 l 236 749 l 310 749 l 310 0 l 131 0 m 672 -279 q 531 -253 597 -279 q 417 -178 464 -228 l 503 -50 q 576 -107 535 -86 q 668 -128 618 -128 q 778 -83 740 -128 q 815 53 815 -37 l 815 972 l 994 972 l 994 75 q 972 -83 994 -17 q 909 -194 950 -150 q 808 -258 868 -237 q 672 -279 749 -279 z "},"O":{"ha":1169,"x_min":61,"x_max":1108,"o":"m 586 -14 q 376 24 472 -14 q 210 128 281 61 q 100 287 139 196 q 61 486 61 378 q 100 685 61 594 q 210 844 139 776 q 376 949 281 911 q 585 986 472 986 q 794 949 699 986 q 960 844 889 911 q 1069 685 1031 776 q 1108 486 1108 594 q 1069 286 1108 378 q 960 128 1031 194 q 794 24 889 61 q 586 -14 699 -14 m 585 144 q 721 169 658 144 q 829 241 783 194 q 901 349 875 288 q 926 486 926 411 q 901 623 926 561 q 829 731 875 685 q 721 803 783 778 q 585 828 658 828 q 449 803 511 828 q 341 731 388 778 q 269 623 294 685 q 243 486 243 561 q 269 350 243 413 q 340 241 294 288 q 449 169 386 194 q 585 144 511 144 z "},"Ȣ":{"ha":1032,"x_min":64,"x_max":968,"o":"m 514 -12 q 276 28 378 -12 q 119 143 175 68 q 64 319 64 218 q 119 487 64 417 q 276 596 175 557 q 514 635 378 635 q 756 596 654 635 q 913 487 857 557 q 968 319 968 417 q 913 143 968 218 q 756 28 857 68 q 514 -12 654 -12 m 515 135 q 715 186 642 135 q 788 325 788 238 q 715 464 788 413 q 514 515 642 515 q 371 492 432 515 q 277 426 310 469 q 244 325 244 383 q 277 224 244 267 q 371 158 310 182 q 515 135 432 135 m 514 532 q 293 567 385 532 q 153 670 201 603 q 104 829 104 738 l 104 972 l 285 972 l 285 831 q 345 698 285 746 q 515 650 406 650 q 686 698 625 650 q 747 831 747 746 l 747 972 l 926 972 l 926 829 q 878 670 926 738 q 737 567 829 603 q 514 532 644 532 z "},"Ó":{"ha":1169,"x_min":61,"x_max":1108,"o":"m 586 -14 q 376 24 472 -14 q 210 128 281 61 q 100 287 139 196 q 61 486 61 378 q 100 685 61 594 q 210 844 139 776 q 376 949 281 911 q 585 986 472 986 q 794 949 699 986 q 960 844 889 911 q 1069 685 1031 776 q 1108 486 1108 594 q 1069 286 1108 378 q 960 128 1031 194 q 794 24 889 61 q 586 -14 699 -14 m 585 144 q 721 169 658 144 q 829 241 783 194 q 901 349 875 288 q 926 486 926 411 q 901 623 926 561 q 829 731 875 685 q 721 803 783 778 q 585 828 658 828 q 449 803 511 828 q 341 731 388 778 q 269 623 294 685 q 243 486 243 561 q 269 350 243 413 q 340 241 294 288 q 449 169 386 194 q 585 144 511 144 m 468 1051 l 656 1242 l 860 1242 l 618 1051 l 468 1051 z "},"Ŏ":{"ha":1169,"x_min":61,"x_max":1108,"o":"m 586 -14 q 376 24 472 -14 q 210 128 281 61 q 100 287 139 196 q 61 486 61 378 q 100 685 61 594 q 210 844 139 776 q 376 949 281 911 q 585 986 472 986 q 794 949 699 986 q 960 844 889 911 q 1069 685 1031 776 q 1108 486 1108 594 q 1069 286 1108 378 q 960 128 1031 194 q 794 24 889 61 q 586 -14 699 -14 m 585 144 q 721 169 658 144 q 829 241 783 194 q 901 349 875 288 q 926 486 926 411 q 901 623 926 561 q 829 731 875 685 q 721 803 783 778 q 585 828 658 828 q 449 803 511 828 q 341 731 388 778 q 269 623 294 685 q 243 486 243 561 q 269 350 243 413 q 340 241 294 288 q 449 169 386 194 q 585 144 511 144 m 585 1056 q 416 1110 483 1056 q 344 1256 349 1164 l 458 1256 q 497 1179 461 1207 q 585 1151 533 1151 q 673 1179 636 1151 q 711 1256 710 1207 l 825 1256 q 753 1110 821 1164 q 585 1056 686 1056 z "},"Ǒ":{"ha":1169,"x_min":61,"x_max":1108,"o":"m 586 -14 q 376 24 472 -14 q 210 128 281 61 q 100 287 139 196 q 61 486 61 378 q 100 685 61 594 q 210 844 139 776 q 376 949 281 911 q 585 986 472 986 q 794 949 699 986 q 960 844 889 911 q 1069 685 1031 776 q 1108 486 1108 594 q 1069 286 1108 378 q 960 128 1031 194 q 794 24 889 61 q 586 -14 699 -14 m 585 144 q 721 169 658 144 q 829 241 783 194 q 901 349 875 288 q 926 486 926 411 q 901 623 926 561 q 829 731 875 685 q 721 803 783 778 q 585 828 658 828 q 449 803 511 828 q 341 731 388 778 q 269 623 294 685 q 243 486 243 561 q 269 350 243 413 q 340 241 294 288 q 449 169 386 194 q 585 144 511 144 m 506 1051 l 319 1242 l 463 1242 l 651 1083 l 518 1083 l 707 1242 l 850 1242 l 664 1051 l 506 1051 z "},"Ɵ":{"ha":1174,"x_min":63,"x_max":1110,"o":"m 586 -14 q 378 24 474 -14 q 211 128 282 61 q 101 288 140 196 q 63 486 63 379 q 101 685 63 593 q 211 844 140 776 q 378 949 282 911 q 586 986 474 986 q 795 949 700 986 q 961 845 890 913 q 1071 686 1032 778 q 1110 486 1110 594 q 1071 286 1110 378 q 961 127 1032 194 q 795 23 890 60 q 586 -14 700 -14 m 586 144 q 709 164 653 144 q 810 222 765 183 q 883 313 854 260 q 924 432 913 365 l 249 432 q 289 313 260 365 q 363 222 318 260 q 464 164 407 183 q 586 144 521 144 m 253 564 l 918 564 q 881 670 910 622 q 807 753 851 718 q 706 808 763 789 q 586 828 650 828 q 466 808 522 828 q 365 753 410 789 q 292 670 321 718 q 253 564 263 622 z "},"Ô":{"ha":1169,"x_min":61,"x_max":1108,"o":"m 586 -14 q 376 24 472 -14 q 210 128 281 61 q 100 287 139 196 q 61 486 61 378 q 100 685 61 594 q 210 844 139 776 q 376 949 281 911 q 585 986 472 986 q 794 949 699 986 q 960 844 889 911 q 1069 685 1031 776 q 1108 486 1108 594 q 1069 286 1108 378 q 960 128 1031 194 q 794 24 889 61 q 586 -14 699 -14 m 585 144 q 721 169 658 144 q 829 241 783 194 q 901 349 875 288 q 926 486 926 411 q 901 623 926 561 q 829 731 875 685 q 721 803 783 778 q 585 828 658 828 q 449 803 511 828 q 341 731 388 778 q 269 623 294 685 q 243 486 243 561 q 269 350 243 413 q 340 241 294 288 q 449 169 386 194 q 585 144 511 144 m 319 1051 l 506 1242 l 664 1242 l 850 1051 l 707 1051 l 518 1211 l 651 1211 l 463 1051 l 319 1051 z "},"Ố":{"ha":1169,"x_min":61,"x_max":1108,"o":"m 586 -14 q 376 24 472 -14 q 210 128 281 61 q 100 287 139 196 q 61 486 61 378 q 100 685 61 594 q 210 844 139 776 q 376 949 281 911 q 585 986 472 986 q 794 949 699 986 q 960 844 889 911 q 1069 685 1031 776 q 1108 486 1108 594 q 1069 286 1108 378 q 960 128 1031 194 q 794 24 889 61 q 586 -14 699 -14 m 585 144 q 721 169 658 144 q 829 241 783 194 q 901 349 875 288 q 926 486 926 411 q 901 623 926 561 q 829 731 875 685 q 721 803 783 778 q 585 828 658 828 q 449 803 511 828 q 341 731 388 778 q 269 623 294 685 q 243 486 243 561 q 269 350 243 413 q 340 241 294 288 q 449 169 386 194 q 585 144 511 144 m 319 1051 l 507 1200 l 663 1200 l 850 1051 l 706 1051 l 519 1169 l 650 1169 l 464 1051 l 319 1051 m 738 1179 l 896 1342 l 1082 1342 l 871 1179 l 738 1179 z "},"Ộ":{"ha":1169,"x_min":61,"x_max":1108,"o":"m 586 -14 q 376 24 472 -14 q 210 128 281 61 q 100 287 139 196 q 61 486 61 378 q 100 685 61 594 q 210 844 139 776 q 376 949 281 911 q 585 986 472 986 q 794 949 699 986 q 960 844 889 911 q 1069 685 1031 776 q 1108 486 1108 594 q 1069 286 1108 378 q 960 128 1031 194 q 794 24 889 61 q 586 -14 699 -14 m 585 144 q 721 169 658 144 q 829 241 783 194 q 901 349 875 288 q 926 486 926 411 q 901 623 926 561 q 829 731 875 685 q 721 803 783 778 q 585 828 658 828 q 449 803 511 828 q 341 731 388 778 q 269 623 294 685 q 243 486 243 561 q 269 350 243 413 q 340 241 294 288 q 449 169 386 194 q 585 144 511 144 m 585 -286 q 514 -258 542 -286 q 486 -187 486 -231 q 514 -117 486 -144 q 585 -89 542 -89 q 655 -117 626 -89 q 683 -187 683 -144 q 655 -258 683 -231 q 585 -286 626 -286 m 319 1051 l 506 1242 l 664 1242 l 850 1051 l 707 1051 l 518 1211 l 651 1211 l 463 1051 l 319 1051 z "},"Ồ":{"ha":1169,"x_min":61,"x_max":1108,"o":"m 586 -14 q 376 24 472 -14 q 210 128 281 61 q 100 287 139 196 q 61 486 61 378 q 100 685 61 594 q 210 844 139 776 q 376 949 281 911 q 585 986 472 986 q 794 949 699 986 q 960 844 889 911 q 1069 685 1031 776 q 1108 486 1108 594 q 1069 286 1108 378 q 960 128 1031 194 q 794 24 889 61 q 586 -14 699 -14 m 585 144 q 721 169 658 144 q 829 241 783 194 q 901 349 875 288 q 926 486 926 411 q 901 623 926 561 q 829 731 875 685 q 721 803 783 778 q 585 828 658 828 q 449 803 511 828 q 341 731 388 778 q 269 623 294 685 q 243 486 243 561 q 269 350 243 413 q 340 241 294 288 q 449 169 386 194 q 585 144 511 144 m 319 1051 l 507 1200 l 663 1200 l 850 1051 l 706 1051 l 519 1169 l 650 1169 l 464 1051 l 319 1051 m 819 1179 l 608 1342 l 794 1342 l 953 1179 l 819 1179 z "},"Ổ":{"ha":1169,"x_min":61,"x_max":1108,"o":"m 586 -14 q 376 24 472 -14 q 210 128 281 61 q 100 287 139 196 q 61 486 61 378 q 100 685 61 594 q 210 844 139 776 q 376 949 281 911 q 585 986 472 986 q 794 949 699 986 q 960 844 889 911 q 1069 685 1031 776 q 1108 486 1108 594 q 1069 286 1108 378 q 960 128 1031 194 q 794 24 889 61 q 586 -14 699 -14 m 585 144 q 721 169 658 144 q 829 241 783 194 q 901 349 875 288 q 926 486 926 411 q 901 623 926 561 q 829 731 875 685 q 721 803 783 778 q 585 828 658 828 q 449 803 511 828 q 341 731 388 778 q 269 623 294 685 q 243 486 243 561 q 269 350 243 413 q 340 241 294 288 q 449 169 386 194 q 585 144 511 144 m 319 1051 l 507 1200 l 663 1200 l 850 1051 l 706 1051 l 519 1169 l 650 1169 l 464 1051 l 319 1051 m 808 1153 l 764 1200 q 805 1230 792 1214 q 818 1261 818 1246 q 804 1292 818 1281 q 768 1304 790 1304 q 707 1288 739 1304 l 676 1346 q 727 1368 699 1361 q 783 1375 756 1375 q 869 1346 838 1375 q 900 1271 900 1317 q 875 1199 900 1231 q 808 1153 850 1168 z "},"Ỗ":{"ha":1169,"x_min":61,"x_max":1108,"o":"m 586 -14 q 376 24 472 -14 q 210 128 281 61 q 100 287 139 196 q 61 486 61 378 q 100 685 61 594 q 210 844 139 776 q 376 949 281 911 q 585 986 472 986 q 794 949 699 986 q 960 844 889 911 q 1069 685 1031 776 q 1108 486 1108 594 q 1069 286 1108 378 q 960 128 1031 194 q 794 24 889 61 q 586 -14 699 -14 m 585 144 q 721 169 658 144 q 829 241 783 194 q 901 349 875 288 q 926 486 926 411 q 901 623 926 561 q 829 731 875 685 q 721 803 783 778 q 585 828 658 828 q 449 803 511 828 q 341 731 388 778 q 269 623 294 685 q 243 486 243 561 q 269 350 243 413 q 340 241 294 288 q 449 169 386 194 q 585 144 511 144 m 319 1051 l 507 1200 l 663 1200 l 850 1051 l 706 1051 l 519 1169 l 650 1169 l 464 1051 l 319 1051 m 686 1251 q 623 1263 650 1251 q 574 1289 596 1274 q 533 1315 551 1304 q 494 1326 514 1326 q 449 1308 464 1326 q 433 1260 435 1290 l 339 1260 q 380 1376 340 1335 q 486 1417 419 1417 q 565 1398 532 1417 q 624 1361 597 1379 q 678 1343 651 1343 q 722 1361 707 1343 q 739 1408 738 1379 l 831 1408 q 790 1294 829 1336 q 686 1251 751 1251 z "},"Ȍ":{"ha":1169,"x_min":61,"x_max":1108,"o":"m 586 -14 q 376 24 472 -14 q 210 128 281 61 q 100 287 139 196 q 61 486 61 378 q 100 685 61 594 q 210 844 139 776 q 376 949 281 911 q 585 986 472 986 q 794 949 699 986 q 960 844 889 911 q 1069 685 1031 776 q 1108 486 1108 594 q 1069 286 1108 378 q 960 128 1031 194 q 794 24 889 61 q 586 -14 699 -14 m 585 144 q 721 169 658 144 q 829 241 783 194 q 901 349 875 288 q 926 486 926 411 q 901 623 926 561 q 829 731 875 685 q 721 803 783 778 q 585 828 658 828 q 449 803 511 828 q 341 731 388 778 q 269 623 294 685 q 243 486 243 561 q 269 350 243 413 q 340 241 294 288 q 449 169 386 194 q 585 144 511 144 m 647 1051 l 497 1242 l 671 1242 l 783 1051 l 647 1051 m 386 1051 l 238 1242 l 411 1242 l 522 1051 l 386 1051 z "},"Ö":{"ha":1169,"x_min":61,"x_max":1108,"o":"m 586 -14 q 376 24 472 -14 q 210 128 281 61 q 100 287 139 196 q 61 486 61 378 q 100 685 61 594 q 210 844 139 776 q 376 949 281 911 q 585 986 472 986 q 794 949 699 986 q 960 844 889 911 q 1069 685 1031 776 q 1108 486 1108 594 q 1069 286 1108 378 q 960 128 1031 194 q 794 24 889 61 q 586 -14 699 -14 m 585 144 q 721 169 658 144 q 829 241 783 194 q 901 349 875 288 q 926 486 926 411 q 901 623 926 561 q 829 731 875 685 q 721 803 783 778 q 585 828 658 828 q 449 803 511 828 q 341 731 388 778 q 269 623 294 685 q 243 486 243 561 q 269 350 243 413 q 340 241 294 288 q 449 169 386 194 q 585 144 511 144 m 719 1067 q 660 1090 685 1067 q 636 1150 636 1113 q 660 1211 636 1188 q 719 1235 685 1235 q 778 1211 754 1235 q 803 1150 803 1188 q 778 1090 803 1113 q 719 1067 754 1067 m 450 1067 q 391 1090 415 1067 q 367 1150 367 1113 q 391 1211 367 1188 q 450 1235 415 1235 q 509 1211 485 1235 q 533 1150 533 1188 q 509 1090 533 1113 q 450 1067 485 1067 z "},"Ȫ":{"ha":1169,"x_min":61,"x_max":1108,"o":"m 586 -14 q 376 24 472 -14 q 210 128 281 61 q 100 287 139 196 q 61 486 61 378 q 100 685 61 594 q 210 844 139 776 q 376 949 281 911 q 585 986 472 986 q 794 949 699 986 q 960 844 889 911 q 1069 685 1031 776 q 1108 486 1108 594 q 1069 286 1108 378 q 960 128 1031 194 q 794 24 889 61 q 586 -14 699 -14 m 585 144 q 721 169 658 144 q 829 241 783 194 q 901 349 875 288 q 926 486 926 411 q 901 623 926 561 q 829 731 875 685 q 721 803 783 778 q 585 828 658 828 q 449 803 511 828 q 341 731 388 778 q 269 623 294 685 q 243 486 243 561 q 269 350 243 413 q 340 241 294 288 q 449 169 386 194 q 585 144 511 144 m 717 1051 q 660 1074 683 1051 q 636 1132 636 1097 q 660 1188 636 1165 q 717 1211 683 1211 q 773 1188 749 1211 q 797 1132 797 1165 q 773 1074 797 1097 q 717 1051 749 1051 m 454 1051 q 397 1074 421 1051 q 374 1132 374 1097 q 397 1188 374 1165 q 454 1211 421 1211 q 512 1188 489 1211 q 535 1132 535 1165 q 512 1074 535 1097 q 454 1051 489 1051 m 344 1301 l 344 1399 l 825 1399 l 825 1301 l 344 1301 z "},"Ȯ":{"ha":1169,"x_min":61,"x_max":1108,"o":"m 586 -14 q 376 24 472 -14 q 210 128 281 61 q 100 287 139 196 q 61 486 61 378 q 100 685 61 594 q 210 844 139 776 q 376 949 281 911 q 585 986 472 986 q 794 949 699 986 q 960 844 889 911 q 1069 685 1031 776 q 1108 486 1108 594 q 1069 286 1108 378 q 960 128 1031 194 q 794 24 889 61 q 586 -14 699 -14 m 585 144 q 721 169 658 144 q 829 241 783 194 q 901 349 875 288 q 926 486 926 411 q 901 623 926 561 q 829 731 875 685 q 721 803 783 778 q 585 828 658 828 q 449 803 511 828 q 341 731 388 778 q 269 623 294 685 q 243 486 243 561 q 269 350 243 413 q 340 241 294 288 q 449 169 386 194 q 585 144 511 144 m 585 1068 q 514 1096 542 1068 q 486 1167 486 1124 q 514 1238 486 1210 q 585 1265 542 1265 q 655 1238 626 1265 q 683 1167 683 1210 q 655 1096 683 1124 q 585 1068 626 1068 z "},"Ȱ":{"ha":1169,"x_min":61,"x_max":1108,"o":"m 586 -14 q 376 24 472 -14 q 210 128 281 61 q 100 287 139 196 q 61 486 61 378 q 100 685 61 594 q 210 844 139 776 q 376 949 281 911 q 585 986 472 986 q 794 949 699 986 q 960 844 889 911 q 1069 685 1031 776 q 1108 486 1108 594 q 1069 286 1108 378 q 960 128 1031 194 q 794 24 889 61 q 586 -14 699 -14 m 585 144 q 721 169 658 144 q 829 241 783 194 q 901 349 875 288 q 926 486 926 411 q 901 623 926 561 q 829 731 875 685 q 721 803 783 778 q 585 828 658 828 q 449 803 511 828 q 341 731 388 778 q 269 623 294 685 q 243 486 243 561 q 269 350 243 413 q 340 241 294 288 q 449 169 386 194 q 585 144 511 144 m 585 1060 q 526 1083 550 1060 q 501 1143 501 1106 q 526 1203 501 1181 q 585 1226 550 1226 q 644 1203 619 1226 q 668 1143 668 1181 q 644 1083 668 1106 q 585 1060 619 1060 m 344 1301 l 344 1399 l 825 1399 l 825 1301 l 344 1301 z "},"Ọ":{"ha":1169,"x_min":61,"x_max":1108,"o":"m 586 -14 q 376 24 472 -14 q 210 128 281 61 q 100 287 139 196 q 61 486 61 378 q 100 685 61 594 q 210 844 139 776 q 376 949 281 911 q 585 986 472 986 q 794 949 699 986 q 960 844 889 911 q 1069 685 1031 776 q 1108 486 1108 594 q 1069 286 1108 378 q 960 128 1031 194 q 794 24 889 61 q 586 -14 699 -14 m 585 144 q 721 169 658 144 q 829 241 783 194 q 901 349 875 288 q 926 486 926 411 q 901 623 926 561 q 829 731 875 685 q 721 803 783 778 q 585 828 658 828 q 449 803 511 828 q 341 731 388 778 q 269 623 294 685 q 243 486 243 561 q 269 350 243 413 q 340 241 294 288 q 449 169 386 194 q 585 144 511 144 m 585 -286 q 514 -258 542 -286 q 486 -187 486 -231 q 514 -117 486 -144 q 585 -89 542 -89 q 655 -117 626 -89 q 683 -187 683 -144 q 655 -258 683 -231 q 585 -286 626 -286 z "},"Ò":{"ha":1169,"x_min":61,"x_max":1108,"o":"m 586 -14 q 376 24 472 -14 q 210 128 281 61 q 100 287 139 196 q 61 486 61 378 q 100 685 61 594 q 210 844 139 776 q 376 949 281 911 q 585 986 472 986 q 794 949 699 986 q 960 844 889 911 q 1069 685 1031 776 q 1108 486 1108 594 q 1069 286 1108 378 q 960 128 1031 194 q 794 24 889 61 q 586 -14 699 -14 m 585 144 q 721 169 658 144 q 829 241 783 194 q 901 349 875 288 q 926 486 926 411 q 901 623 926 561 q 829 731 875 685 q 721 803 783 778 q 585 828 658 828 q 449 803 511 828 q 341 731 388 778 q 269 623 294 685 q 243 486 243 561 q 269 350 243 413 q 340 241 294 288 q 449 169 386 194 q 585 144 511 144 m 551 1051 l 310 1242 l 514 1242 l 701 1051 l 551 1051 z "},"Ỏ":{"ha":1169,"x_min":61,"x_max":1108,"o":"m 586 -14 q 376 24 472 -14 q 210 128 281 61 q 100 287 139 196 q 61 486 61 378 q 100 685 61 594 q 210 844 139 776 q 376 949 281 911 q 585 986 472 986 q 794 949 699 986 q 960 844 889 911 q 1069 685 1031 776 q 1108 486 1108 594 q 1069 286 1108 378 q 960 128 1031 194 q 794 24 889 61 q 586 -14 699 -14 m 585 144 q 721 169 658 144 q 829 241 783 194 q 901 349 875 288 q 926 486 926 411 q 901 623 926 561 q 829 731 875 685 q 721 803 783 778 q 585 828 658 828 q 449 803 511 828 q 341 731 388 778 q 269 623 294 685 q 243 486 243 561 q 269 350 243 413 q 340 241 294 288 q 449 169 386 194 q 585 144 511 144 m 593 1010 l 536 1074 q 594 1115 576 1093 q 611 1163 611 1136 q 592 1207 611 1190 q 542 1224 574 1224 q 460 1197 500 1224 l 422 1272 q 489 1306 453 1294 q 561 1317 525 1317 q 641 1299 606 1317 q 696 1251 676 1282 q 715 1176 715 1219 q 685 1081 715 1122 q 593 1010 656 1039 z "},"Ơ":{"ha":1169,"x_min":61,"x_max":1108,"o":"m 585 -14 q 376 24 472 -14 q 210 128 281 61 q 100 288 139 196 q 61 486 61 379 q 100 686 61 594 q 210 845 139 778 q 379 949 282 913 q 592 986 476 986 q 735 976 672 986 q 851 967 797 967 q 942 991 910 967 q 975 1063 975 1015 q 967 1109 975 1088 q 947 1149 958 1131 l 1053 1188 q 1083 1128 1072 1161 q 1094 1057 1094 1094 q 1028 910 1094 963 q 844 858 963 858 q 750 864 799 858 q 658 875 701 869 l 879 901 q 999 800 947 863 q 1079 658 1050 738 q 1108 486 1108 578 q 1069 286 1108 378 q 960 127 1031 194 q 794 23 889 60 q 585 -14 699 -14 m 585 144 q 721 170 658 144 q 829 242 783 196 q 901 350 875 288 q 926 486 926 413 q 901 622 926 560 q 829 731 875 685 q 721 802 783 776 q 585 828 658 828 q 449 803 511 828 q 340 731 386 778 q 269 623 294 685 q 243 486 243 561 q 269 350 243 413 q 340 241 294 288 q 449 169 386 194 q 585 144 511 144 z "},"Ớ":{"ha":1169,"x_min":61,"x_max":1108,"o":"m 585 -14 q 376 24 472 -14 q 210 128 281 61 q 100 288 139 196 q 61 486 61 379 q 100 686 61 594 q 210 845 139 778 q 379 949 282 913 q 592 986 476 986 q 735 976 672 986 q 851 967 797 967 q 942 991 910 967 q 975 1063 975 1015 q 967 1109 975 1088 q 947 1149 958 1131 l 1053 1188 q 1083 1128 1072 1161 q 1094 1057 1094 1094 q 1028 910 1094 963 q 844 858 963 858 q 750 864 799 858 q 658 875 701 869 l 879 901 q 999 800 947 863 q 1079 658 1050 738 q 1108 486 1108 578 q 1069 286 1108 378 q 960 127 1031 194 q 794 23 889 60 q 585 -14 699 -14 m 585 144 q 721 170 658 144 q 829 242 783 196 q 901 350 875 288 q 926 486 926 413 q 901 622 926 560 q 829 731 875 685 q 721 802 783 776 q 585 828 658 828 q 449 803 511 828 q 340 731 386 778 q 269 623 294 685 q 243 486 243 561 q 269 350 243 413 q 340 241 294 288 q 449 169 386 194 q 585 144 511 144 m 468 1051 l 656 1242 l 860 1242 l 618 1051 l 468 1051 z "},"Ợ":{"ha":1169,"x_min":61,"x_max":1108,"o":"m 585 -14 q 376 24 472 -14 q 210 128 281 61 q 100 288 139 196 q 61 486 61 379 q 100 686 61 594 q 210 845 139 778 q 379 949 282 913 q 592 986 476 986 q 735 976 672 986 q 851 967 797 967 q 942 991 910 967 q 975 1063 975 1015 q 967 1109 975 1088 q 947 1149 958 1131 l 1053 1188 q 1083 1128 1072 1161 q 1094 1057 1094 1094 q 1028 910 1094 963 q 844 858 963 858 q 750 864 799 858 q 658 875 701 869 l 879 901 q 999 800 947 863 q 1079 658 1050 738 q 1108 486 1108 578 q 1069 286 1108 378 q 960 127 1031 194 q 794 23 889 60 q 585 -14 699 -14 m 585 144 q 721 170 658 144 q 829 242 783 196 q 901 350 875 288 q 926 486 926 413 q 901 622 926 560 q 829 731 875 685 q 721 802 783 776 q 585 828 658 828 q 449 803 511 828 q 340 731 386 778 q 269 623 294 685 q 243 486 243 561 q 269 350 243 413 q 340 241 294 288 q 449 169 386 194 q 585 144 511 144 m 585 -286 q 514 -258 542 -286 q 486 -187 486 -231 q 514 -117 486 -144 q 585 -89 542 -89 q 655 -117 626 -89 q 683 -187 683 -144 q 655 -258 683 -231 q 585 -286 626 -286 z "},"Ờ":{"ha":1169,"x_min":61,"x_max":1108,"o":"m 585 -14 q 376 24 472 -14 q 210 128 281 61 q 100 288 139 196 q 61 486 61 379 q 100 686 61 594 q 210 845 139 778 q 379 949 282 913 q 592 986 476 986 q 735 976 672 986 q 851 967 797 967 q 942 991 910 967 q 975 1063 975 1015 q 967 1109 975 1088 q 947 1149 958 1131 l 1053 1188 q 1083 1128 1072 1161 q 1094 1057 1094 1094 q 1028 910 1094 963 q 844 858 963 858 q 750 864 799 858 q 658 875 701 869 l 879 901 q 999 800 947 863 q 1079 658 1050 738 q 1108 486 1108 578 q 1069 286 1108 378 q 960 127 1031 194 q 794 23 889 60 q 585 -14 699 -14 m 585 144 q 721 170 658 144 q 829 242 783 196 q 901 350 875 288 q 926 486 926 413 q 901 622 926 560 q 829 731 875 685 q 721 802 783 776 q 585 828 658 828 q 449 803 511 828 q 340 731 386 778 q 269 623 294 685 q 243 486 243 561 q 269 350 243 413 q 340 241 294 288 q 449 169 386 194 q 585 144 511 144 m 551 1051 l 310 1242 l 514 1242 l 701 1051 l 551 1051 z "},"Ở":{"ha":1169,"x_min":61,"x_max":1108,"o":"m 585 -14 q 376 24 472 -14 q 210 128 281 61 q 100 288 139 196 q 61 486 61 379 q 100 686 61 594 q 210 845 139 778 q 379 949 282 913 q 592 986 476 986 q 735 976 672 986 q 851 967 797 967 q 942 991 910 967 q 975 1063 975 1015 q 967 1109 975 1088 q 947 1149 958 1131 l 1053 1188 q 1083 1128 1072 1161 q 1094 1057 1094 1094 q 1028 910 1094 963 q 844 858 963 858 q 750 864 799 858 q 658 875 701 869 l 879 901 q 999 800 947 863 q 1079 658 1050 738 q 1108 486 1108 578 q 1069 286 1108 378 q 960 127 1031 194 q 794 23 889 60 q 585 -14 699 -14 m 585 144 q 721 170 658 144 q 829 242 783 196 q 901 350 875 288 q 926 486 926 413 q 901 622 926 560 q 829 731 875 685 q 721 802 783 776 q 585 828 658 828 q 449 803 511 828 q 340 731 386 778 q 269 623 294 685 q 243 486 243 561 q 269 350 243 413 q 340 241 294 288 q 449 169 386 194 q 585 144 511 144 m 593 1010 l 536 1074 q 594 1115 576 1093 q 611 1163 611 1136 q 592 1207 611 1190 q 542 1224 574 1224 q 460 1197 500 1224 l 422 1272 q 489 1306 453 1294 q 561 1317 525 1317 q 641 1299 606 1317 q 696 1251 676 1282 q 715 1176 715 1219 q 685 1081 715 1122 q 593 1010 656 1039 z "},"Ỡ":{"ha":1169,"x_min":61,"x_max":1108,"o":"m 585 -14 q 376 24 472 -14 q 210 128 281 61 q 100 288 139 196 q 61 486 61 379 q 100 686 61 594 q 210 845 139 778 q 379 949 282 913 q 592 986 476 986 q 735 976 672 986 q 851 967 797 967 q 942 991 910 967 q 975 1063 975 1015 q 967 1109 975 1088 q 947 1149 958 1131 l 1053 1188 q 1083 1128 1072 1161 q 1094 1057 1094 1094 q 1028 910 1094 963 q 844 858 963 858 q 750 864 799 858 q 658 875 701 869 l 879 901 q 999 800 947 863 q 1079 658 1050 738 q 1108 486 1108 578 q 1069 286 1108 378 q 960 127 1031 194 q 794 23 889 60 q 585 -14 699 -14 m 585 144 q 721 170 658 144 q 829 242 783 196 q 901 350 875 288 q 926 486 926 413 q 901 622 926 560 q 829 731 875 685 q 721 802 783 776 q 585 828 658 828 q 449 803 511 828 q 340 731 386 778 q 269 623 294 685 q 243 486 243 561 q 269 350 243 413 q 340 241 294 288 q 449 169 386 194 q 585 144 511 144 m 694 1044 q 628 1060 657 1044 q 576 1094 599 1075 q 531 1128 553 1113 q 486 1143 508 1143 q 438 1117 456 1143 q 418 1054 419 1090 l 317 1054 q 360 1195 318 1139 q 475 1251 403 1251 q 543 1237 514 1251 q 595 1203 572 1222 q 640 1169 618 1183 q 685 1154 663 1154 q 733 1180 715 1154 q 751 1240 750 1206 l 850 1240 q 808 1101 849 1157 q 694 1044 767 1044 z "},"Ő":{"ha":1169,"x_min":61,"x_max":1108,"o":"m 586 -14 q 376 24 472 -14 q 210 128 281 61 q 100 287 139 196 q 61 486 61 378 q 100 685 61 594 q 210 844 139 776 q 376 949 281 911 q 585 986 472 986 q 794 949 699 986 q 960 844 889 911 q 1069 685 1031 776 q 1108 486 1108 594 q 1069 286 1108 378 q 960 128 1031 194 q 794 24 889 61 q 586 -14 699 -14 m 585 144 q 721 169 658 144 q 829 241 783 194 q 901 349 875 288 q 926 486 926 411 q 901 623 926 561 q 829 731 875 685 q 721 803 783 778 q 585 828 658 828 q 449 803 511 828 q 341 731 388 778 q 269 623 294 685 q 243 486 243 561 q 269 350 243 413 q 340 241 294 288 q 449 169 386 194 q 585 144 511 144 m 647 1051 l 758 1242 l 932 1242 l 783 1051 l 647 1051 m 386 1051 l 499 1242 l 672 1242 l 522 1051 l 386 1051 z "},"Ȏ":{"ha":1169,"x_min":61,"x_max":1108,"o":"m 586 -14 q 376 24 472 -14 q 210 128 281 61 q 100 287 139 196 q 61 486 61 378 q 100 685 61 594 q 210 844 139 776 q 376 949 281 911 q 585 986 472 986 q 794 949 699 986 q 960 844 889 911 q 1069 685 1031 776 q 1108 486 1108 594 q 1069 286 1108 378 q 960 128 1031 194 q 794 24 889 61 q 586 -14 699 -14 m 585 144 q 721 169 658 144 q 829 241 783 194 q 901 349 875 288 q 926 486 926 411 q 901 623 926 561 q 829 731 875 685 q 721 803 783 778 q 585 828 658 828 q 449 803 511 828 q 341 731 388 778 q 269 623 294 685 q 243 486 243 561 q 269 350 243 413 q 340 241 294 288 q 449 169 386 194 q 585 144 511 144 m 344 1051 q 416 1198 349 1144 q 585 1251 483 1251 q 753 1198 686 1251 q 825 1051 821 1144 l 711 1051 q 673 1128 710 1100 q 585 1157 636 1157 q 497 1128 533 1157 q 458 1051 461 1100 l 344 1051 z "},"Ō":{"ha":1169,"x_min":61,"x_max":1108,"o":"m 586 -14 q 376 24 472 -14 q 210 128 281 61 q 100 287 139 196 q 61 486 61 378 q 100 685 61 594 q 210 844 139 776 q 376 949 281 911 q 585 986 472 986 q 794 949 699 986 q 960 844 889 911 q 1069 685 1031 776 q 1108 486 1108 594 q 1069 286 1108 378 q 960 128 1031 194 q 794 24 889 61 q 586 -14 699 -14 m 585 144 q 721 169 658 144 q 829 241 783 194 q 901 349 875 288 q 926 486 926 411 q 901 623 926 561 q 829 731 875 685 q 721 803 783 778 q 585 828 658 828 q 449 803 511 828 q 341 731 388 778 q 269 623 294 685 q 243 486 243 561 q 269 350 243 413 q 340 241 294 288 q 449 169 386 194 q 585 144 511 144 m 344 1094 l 344 1199 l 825 1199 l 825 1094 l 344 1094 z "},"Ṓ":{"ha":1169,"x_min":61,"x_max":1108,"o":"m 586 -14 q 376 24 472 -14 q 210 128 281 61 q 100 287 139 196 q 61 486 61 378 q 100 685 61 594 q 210 844 139 776 q 376 949 281 911 q 585 986 472 986 q 794 949 699 986 q 960 844 889 911 q 1069 685 1031 776 q 1108 486 1108 594 q 1069 286 1108 378 q 960 128 1031 194 q 794 24 889 61 q 586 -14 699 -14 m 585 144 q 721 169 658 144 q 829 241 783 194 q 901 349 875 288 q 926 486 926 411 q 901 623 926 561 q 829 731 875 685 q 721 803 783 778 q 585 828 658 828 q 449 803 511 828 q 341 731 388 778 q 269 623 294 685 q 243 486 243 561 q 269 350 243 413 q 340 241 294 288 q 449 169 386 194 q 585 144 511 144 m 344 1083 l 344 1181 l 825 1181 l 825 1083 l 344 1083 m 475 1263 l 633 1425 l 819 1425 l 608 1263 l 475 1263 z "},"Ṑ":{"ha":1169,"x_min":61,"x_max":1108,"o":"m 586 -14 q 376 24 472 -14 q 210 128 281 61 q 100 287 139 196 q 61 486 61 378 q 100 685 61 594 q 210 844 139 776 q 376 949 281 911 q 585 986 472 986 q 794 949 699 986 q 960 844 889 911 q 1069 685 1031 776 q 1108 486 1108 594 q 1069 286 1108 378 q 960 128 1031 194 q 794 24 889 61 q 586 -14 699 -14 m 585 144 q 721 169 658 144 q 829 241 783 194 q 901 349 875 288 q 926 486 926 411 q 901 623 926 561 q 829 731 875 685 q 721 803 783 778 q 585 828 658 828 q 449 803 511 828 q 341 731 388 778 q 269 623 294 685 q 243 486 243 561 q 269 350 243 413 q 340 241 294 288 q 449 169 386 194 q 585 144 511 144 m 344 1083 l 344 1181 l 825 1181 l 825 1083 l 344 1083 m 564 1263 l 353 1425 l 539 1425 l 697 1263 l 564 1263 z "},"Ꞷ":{"ha":1454,"x_min":79,"x_max":1375,"o":"m 446 -11 q 278 31 347 -11 q 165 144 208 72 q 100 304 121 215 q 79 490 79 393 q 117 754 79 625 q 224 972 154 883 l 418 972 q 331 826 367 907 q 277 657 296 744 q 258 486 258 569 q 282 317 258 393 q 351 194 306 240 q 468 147 397 147 q 555 172 518 147 q 613 251 592 197 q 633 388 633 306 l 633 611 l 818 611 l 818 388 q 840 251 818 304 q 898 172 861 197 q 985 147 935 147 q 1103 194 1057 147 q 1171 319 1149 242 q 1193 488 1193 396 q 1175 656 1193 569 q 1123 823 1157 742 q 1036 972 1089 904 l 1231 972 q 1310 833 1278 913 q 1358 667 1342 754 q 1375 489 1375 579 q 1354 304 1375 393 q 1289 144 1333 215 q 1174 31 1244 72 q 1006 -11 1104 -11 q 837 31 911 -11 q 722 151 763 72 q 679 340 681 229 l 774 340 q 731 151 774 229 q 616 31 689 72 q 446 -11 543 -11 z "},"Ǫ":{"ha":1169,"x_min":61,"x_max":1108,"o":"m 604 -317 q 472 -276 519 -317 q 425 -168 425 -235 q 445 -87 425 -128 q 510 -12 465 -47 q 629 51 556 24 l 640 -11 q 610 -13 624 -12 q 585 -14 597 -14 q 377 23 472 -14 q 210 127 282 60 q 100 286 139 194 q 61 486 61 378 q 100 686 61 594 q 210 845 139 778 q 377 949 282 913 q 585 986 472 986 q 794 949 699 986 q 960 845 889 913 q 1069 686 1031 778 q 1108 486 1108 594 q 1060 265 1108 363 q 927 103 1011 168 q 740 8 843 38 q 632 -35 676 -10 q 565 -90 588 -60 q 542 -154 542 -121 q 565 -204 542 -186 q 624 -222 588 -222 q 669 -216 647 -222 q 708 -200 692 -210 l 738 -285 q 676 -308 711 -299 q 604 -317 642 -317 m 585 144 q 721 169 658 144 q 829 241 783 194 q 901 350 875 288 q 926 486 926 413 q 901 623 926 561 q 829 731 875 685 q 721 803 783 778 q 585 828 658 828 q 449 803 511 828 q 340 731 386 778 q 269 623 294 685 q 243 486 243 561 q 269 350 243 413 q 340 241 294 288 q 449 169 386 194 q 585 144 511 144 z "},"Ǭ":{"ha":1169,"x_min":61,"x_max":1108,"o":"m 604 -317 q 472 -276 519 -317 q 425 -168 425 -235 q 445 -87 425 -128 q 510 -12 465 -47 q 629 51 556 24 l 640 -11 q 610 -13 624 -12 q 585 -14 597 -14 q 377 23 472 -14 q 210 127 282 60 q 100 286 139 194 q 61 486 61 378 q 100 686 61 594 q 210 845 139 778 q 377 949 282 913 q 585 986 472 986 q 794 949 699 986 q 960 845 889 913 q 1069 686 1031 778 q 1108 486 1108 594 q 1060 265 1108 363 q 927 103 1011 168 q 740 8 843 38 q 632 -35 676 -10 q 565 -90 588 -60 q 542 -154 542 -121 q 565 -204 542 -186 q 624 -222 588 -222 q 669 -216 647 -222 q 708 -200 692 -210 l 738 -285 q 676 -308 711 -299 q 604 -317 642 -317 m 585 144 q 721 169 658 144 q 829 241 783 194 q 901 350 875 288 q 926 486 926 413 q 901 623 926 561 q 829 731 875 685 q 721 803 783 778 q 585 828 658 828 q 449 803 511 828 q 340 731 386 778 q 269 623 294 685 q 243 486 243 561 q 269 350 243 413 q 340 241 294 288 q 449 169 386 194 q 585 144 511 144 m 344 1094 l 344 1199 l 825 1199 l 825 1094 l 344 1094 z "},"Ɔ":{"ha":997,"x_min":31,"x_max":936,"o":"m 417 986 q 623 949 528 986 q 788 845 718 913 q 897 686 858 778 q 936 486 936 594 q 897 286 936 378 q 788 127 858 194 q 622 23 717 60 q 415 -14 526 -14 q 197 28 296 -14 q 31 149 99 69 l 147 258 q 265 173 200 201 q 407 144 331 144 q 546 169 482 144 q 656 240 610 194 q 728 349 703 286 q 754 486 754 411 q 728 624 754 561 q 656 732 703 686 q 546 803 610 778 q 407 828 482 828 q 265 799 331 828 q 147 713 200 771 l 31 824 q 197 944 99 903 q 417 986 296 986 z "},"Ø":{"ha":1169,"x_min":61,"x_max":1108,"o":"m 586 -14 q 376 24 472 -14 q 210 128 281 61 q 100 287 139 196 q 61 486 61 378 q 100 685 61 594 q 210 844 139 776 q 376 949 281 911 q 585 986 472 986 q 794 949 699 986 q 960 844 889 911 q 1069 685 1031 776 q 1108 486 1108 594 q 1069 286 1108 378 q 960 128 1031 194 q 794 24 889 61 q 586 -14 699 -14 m 585 144 q 721 169 658 144 q 829 241 783 194 q 901 349 875 288 q 926 486 926 411 q 901 623 926 561 q 829 731 875 685 q 721 803 783 778 q 585 828 658 828 q 449 803 511 828 q 341 731 388 778 q 269 623 294 685 q 243 486 243 561 q 269 350 243 413 q 340 241 294 288 q 449 169 386 194 q 585 144 511 144 m 197 -97 l 836 1069 l 975 1069 l 338 -97 l 197 -97 z "},"Ǿ":{"ha":1169,"x_min":61,"x_max":1108,"o":"m 586 -14 q 376 24 472 -14 q 210 128 281 61 q 100 287 139 196 q 61 486 61 378 q 100 685 61 594 q 210 844 139 776 q 376 949 281 911 q 585 986 472 986 q 794 949 699 986 q 960 844 889 911 q 1069 685 1031 776 q 1108 486 1108 594 q 1069 286 1108 378 q 960 128 1031 194 q 794 24 889 61 q 586 -14 699 -14 m 585 144 q 721 169 658 144 q 829 241 783 194 q 901 349 875 288 q 926 486 926 411 q 901 623 926 561 q 829 731 875 685 q 721 803 783 778 q 585 828 658 828 q 449 803 511 828 q 341 731 388 778 q 269 623 294 685 q 243 486 243 561 q 269 350 243 413 q 340 241 294 288 q 449 169 386 194 q 585 144 511 144 m 197 -97 l 836 1069 l 975 1069 l 338 -97 l 197 -97 m 468 1051 l 656 1242 l 860 1242 l 618 1051 l 468 1051 z "},"Õ":{"ha":1169,"x_min":61,"x_max":1108,"o":"m 586 -14 q 376 24 472 -14 q 210 128 281 61 q 100 287 139 196 q 61 486 61 378 q 100 685 61 594 q 210 844 139 776 q 376 949 281 911 q 585 986 472 986 q 794 949 699 986 q 960 844 889 911 q 1069 685 1031 776 q 1108 486 1108 594 q 1069 286 1108 378 q 960 128 1031 194 q 794 24 889 61 q 586 -14 699 -14 m 585 144 q 721 169 658 144 q 829 241 783 194 q 901 349 875 288 q 926 486 926 411 q 901 623 926 561 q 829 731 875 685 q 721 803 783 778 q 585 828 658 828 q 449 803 511 828 q 341 731 388 778 q 269 623 294 685 q 243 486 243 561 q 269 350 243 413 q 340 241 294 288 q 449 169 386 194 q 585 144 511 144 m 694 1044 q 628 1060 657 1044 q 576 1094 599 1075 q 531 1128 553 1113 q 486 1143 508 1143 q 438 1117 456 1143 q 418 1054 419 1090 l 317 1054 q 360 1195 318 1139 q 475 1251 403 1251 q 543 1237 514 1251 q 595 1203 572 1222 q 640 1169 618 1183 q 685 1154 663 1154 q 733 1180 715 1154 q 751 1240 750 1206 l 850 1240 q 808 1101 849 1157 q 694 1044 767 1044 z "},"Ṍ":{"ha":1169,"x_min":61,"x_max":1108,"o":"m 586 -14 q 376 24 472 -14 q 210 128 281 61 q 100 287 139 196 q 61 486 61 378 q 100 685 61 594 q 210 844 139 776 q 376 949 281 911 q 585 986 472 986 q 794 949 699 986 q 960 844 889 911 q 1069 685 1031 776 q 1108 486 1108 594 q 1069 286 1108 378 q 960 128 1031 194 q 794 24 889 61 q 586 -14 699 -14 m 585 144 q 721 169 658 144 q 829 241 783 194 q 901 349 875 288 q 926 486 926 411 q 901 623 926 561 q 829 731 875 685 q 721 803 783 778 q 585 828 658 828 q 449 803 511 828 q 341 731 388 778 q 269 623 294 685 q 243 486 243 561 q 269 350 243 413 q 340 241 294 288 q 449 169 386 194 q 585 144 511 144 m 686 1053 q 623 1064 650 1053 q 574 1090 596 1075 q 533 1117 551 1106 q 494 1128 514 1128 q 449 1110 464 1128 q 433 1061 435 1092 l 339 1061 q 380 1177 340 1136 q 486 1218 419 1218 q 565 1199 532 1218 q 624 1163 597 1181 q 678 1144 651 1144 q 722 1163 707 1144 q 739 1210 738 1181 l 831 1210 q 790 1095 829 1138 q 686 1053 751 1053 m 478 1263 l 636 1425 l 822 1425 l 611 1263 l 478 1263 z "},"Ṏ":{"ha":1169,"x_min":61,"x_max":1108,"o":"m 586 -14 q 376 24 472 -14 q 210 128 281 61 q 100 287 139 196 q 61 486 61 378 q 100 685 61 594 q 210 844 139 776 q 376 949 281 911 q 585 986 472 986 q 794 949 699 986 q 960 844 889 911 q 1069 685 1031 776 q 1108 486 1108 594 q 1069 286 1108 378 q 960 128 1031 194 q 794 24 889 61 q 586 -14 699 -14 m 585 144 q 721 169 658 144 q 829 241 783 194 q 901 349 875 288 q 926 486 926 411 q 901 623 926 561 q 829 731 875 685 q 721 803 783 778 q 585 828 658 828 q 449 803 511 828 q 341 731 388 778 q 269 623 294 685 q 243 486 243 561 q 269 350 243 413 q 340 241 294 288 q 449 169 386 194 q 585 144 511 144 m 686 1053 q 623 1064 650 1053 q 574 1090 596 1075 q 533 1117 551 1106 q 494 1128 514 1128 q 449 1110 464 1128 q 433 1061 435 1092 l 339 1061 q 380 1177 340 1136 q 486 1218 419 1218 q 565 1199 532 1218 q 624 1163 597 1181 q 678 1144 651 1144 q 722 1163 707 1144 q 739 1210 738 1181 l 831 1210 q 790 1095 829 1138 q 686 1053 751 1053 m 717 1272 q 660 1295 683 1272 q 636 1353 636 1318 q 660 1409 636 1386 q 717 1432 683 1432 q 773 1409 749 1432 q 797 1353 797 1386 q 773 1295 797 1318 q 717 1272 749 1272 m 454 1272 q 397 1295 421 1272 q 374 1353 374 1318 q 397 1409 374 1386 q 454 1432 421 1432 q 512 1409 489 1432 q 535 1353 535 1386 q 512 1295 535 1318 q 454 1272 489 1272 z "},"Ȭ":{"ha":1169,"x_min":61,"x_max":1108,"o":"m 586 -14 q 376 24 472 -14 q 210 128 281 61 q 100 287 139 196 q 61 486 61 378 q 100 685 61 594 q 210 844 139 776 q 376 949 281 911 q 585 986 472 986 q 794 949 699 986 q 960 844 889 911 q 1069 685 1031 776 q 1108 486 1108 594 q 1069 286 1108 378 q 960 128 1031 194 q 794 24 889 61 q 586 -14 699 -14 m 585 144 q 721 169 658 144 q 829 241 783 194 q 901 349 875 288 q 926 486 926 411 q 901 623 926 561 q 829 731 875 685 q 721 803 783 778 q 585 828 658 828 q 449 803 511 828 q 341 731 388 778 q 269 623 294 685 q 243 486 243 561 q 269 350 243 413 q 340 241 294 288 q 449 169 386 194 q 585 144 511 144 m 686 1053 q 623 1064 650 1053 q 574 1090 596 1075 q 533 1117 551 1106 q 494 1128 514 1128 q 449 1110 464 1128 q 433 1061 435 1092 l 339 1061 q 380 1177 340 1136 q 486 1218 419 1218 q 565 1199 532 1218 q 624 1163 597 1181 q 678 1144 651 1144 q 722 1163 707 1144 q 739 1210 738 1181 l 831 1210 q 790 1095 829 1138 q 686 1053 751 1053 m 344 1301 l 344 1399 l 825 1399 l 825 1301 l 344 1301 z "},"Œ":{"ha":1571,"x_min":61,"x_max":1499,"o":"m 592 0 q 314 61 433 0 q 128 231 194 122 q 61 485 61 340 q 128 741 61 632 q 314 911 194 850 q 592 972 433 972 l 817 972 l 817 819 l 600 819 q 412 778 493 819 q 287 661 331 736 q 243 485 243 586 q 287 310 243 385 q 412 194 331 236 q 600 153 493 153 l 817 153 l 817 0 l 592 0 m 771 0 l 771 972 l 1479 972 l 1479 821 l 950 821 l 950 151 l 1499 151 l 1499 0 l 771 0 m 936 419 l 936 568 l 1421 568 l 1421 419 l 936 419 z "},"P":{"ha":1008,"x_min":131,"x_max":944,"o":"m 131 0 l 131 972 l 531 972 q 752 931 660 972 q 894 811 844 889 q 944 626 944 733 q 894 442 944 519 q 752 322 844 364 q 531 281 660 281 l 231 281 l 311 365 l 311 0 l 131 0 m 311 346 l 231 433 l 522 433 q 702 484 642 433 q 763 626 763 535 q 702 769 763 719 q 522 819 642 819 l 231 819 l 311 908 l 311 346 z "},"Ṕ":{"ha":1008,"x_min":131,"x_max":944,"o":"m 131 0 l 131 972 l 531 972 q 752 931 660 972 q 894 811 844 889 q 944 626 944 733 q 894 442 944 519 q 752 322 844 364 q 531 281 660 281 l 231 281 l 311 365 l 311 0 l 131 0 m 311 346 l 231 433 l 522 433 q 702 484 642 433 q 763 626 763 535 q 702 769 763 719 q 522 819 642 819 l 231 819 l 311 908 l 311 346 m 388 1051 l 575 1242 l 779 1242 l 538 1051 l 388 1051 z "},"Ṗ":{"ha":1008,"x_min":131,"x_max":944,"o":"m 131 0 l 131 972 l 531 972 q 752 931 660 972 q 894 811 844 889 q 944 626 944 733 q 894 442 944 519 q 752 322 844 364 q 531 281 660 281 l 231 281 l 311 365 l 311 0 l 131 0 m 311 346 l 231 433 l 522 433 q 702 484 642 433 q 763 626 763 535 q 702 769 763 719 q 522 819 642 819 l 231 819 l 311 908 l 311 346 m 504 1068 q 433 1096 461 1068 q 406 1167 406 1124 q 433 1238 406 1210 q 504 1265 461 1265 q 574 1238 546 1265 q 603 1167 603 1210 q 574 1096 603 1124 q 504 1068 546 1068 z "},"Ƥ":{"ha":1260,"x_min":38,"x_max":1194,"o":"m 138 506 q 63 617 88 556 q 39 740 38 678 q 69 856 40 803 q 158 940 99 908 q 308 972 217 972 l 393 972 l 393 819 l 308 819 q 241 799 265 819 q 211 744 217 778 q 219 671 206 710 q 264 597 232 632 l 138 506 m 382 0 l 382 972 l 781 972 q 1002 931 910 972 q 1144 811 1094 889 q 1194 626 1194 733 q 1144 442 1194 519 q 1002 322 1094 364 q 781 281 910 281 l 481 281 l 561 365 l 561 0 l 382 0 m 561 346 l 481 433 l 774 433 q 952 484 892 433 q 1013 626 1013 535 q 952 769 1013 719 q 774 819 892 819 l 481 819 l 561 908 l 561 346 z "},"Þ":{"ha":1008,"x_min":131,"x_max":944,"o":"m 271 167 l 271 319 l 522 319 q 702 370 642 319 q 763 513 763 421 q 702 656 763 606 q 522 706 642 706 l 271 706 l 271 858 l 531 858 q 752 817 660 858 q 894 698 844 775 q 944 513 944 621 q 894 328 944 406 q 752 208 844 250 q 531 167 660 167 l 271 167 m 131 0 l 131 972 l 311 972 l 311 0 l 131 0 z "},"Ᵽ":{"ha":1019,"x_min":8,"x_max":954,"o":"m 142 0 l 142 972 l 540 972 q 762 931 669 972 q 904 811 854 889 q 954 626 954 733 q 904 442 954 519 q 762 322 854 364 q 540 281 669 281 l 242 281 l 322 365 l 322 0 l 142 0 m 8 564 l 8 694 l 521 694 l 521 564 l 8 564 m 322 346 l 242 432 l 533 432 q 712 483 651 432 q 772 626 772 533 q 712 770 772 719 q 533 821 651 821 l 242 821 l 322 908 l 322 346 z "},"Q":{"ha":1169,"x_min":61,"x_max":1157,"o":"m 586 -14 q 376 24 472 -14 q 210 128 281 61 q 100 287 139 196 q 61 486 61 378 q 100 685 61 594 q 210 844 139 776 q 376 949 281 911 q 585 986 472 986 q 794 949 699 986 q 960 844 889 911 q 1069 686 1031 778 q 1108 486 1108 594 q 1069 286 1108 378 q 960 128 1031 194 q 794 24 889 61 q 586 -14 699 -14 m 903 -212 q 803 -201 851 -212 q 709 -162 756 -189 q 613 -91 663 -135 q 503 17 563 -47 l 694 67 q 769 -16 733 15 q 838 -61 804 -47 q 907 -75 871 -75 q 1074 3 1003 -75 l 1157 -97 q 903 -212 1060 -212 m 585 144 q 721 169 658 144 q 829 241 783 194 q 901 350 875 288 q 926 486 926 413 q 901 623 926 561 q 829 731 875 685 q 721 803 783 778 q 585 828 658 828 q 449 803 511 828 q 340 731 386 778 q 269 623 294 685 q 243 486 243 561 q 269 350 243 413 q 340 241 294 288 q 449 169 386 194 q 585 144 511 144 z "},"Ɋ":{"ha":1224,"x_min":61,"x_max":1292,"o":"m 565 -14 q 366 24 458 -14 q 206 129 274 61 q 99 288 138 197 q 61 486 61 378 q 99 685 61 593 q 206 844 138 776 q 366 949 274 911 q 565 986 458 986 q 760 949 671 986 q 914 844 849 911 q 1015 686 979 778 q 1050 486 1050 594 q 1015 286 1050 378 q 914 128 979 194 q 760 24 849 61 q 565 -14 671 -14 m 585 144 q 722 169 660 144 q 829 241 783 194 q 901 350 875 288 q 926 486 926 413 q 901 623 926 561 q 830 731 876 685 q 722 803 783 778 q 585 828 660 828 q 449 803 511 828 q 340 731 386 778 q 268 623 293 685 q 243 486 243 561 q 268 350 243 413 q 340 241 293 288 q 449 169 386 194 q 585 144 511 144 m 1292 -258 q 1162 -281 1228 -283 q 1042 -251 1096 -279 q 953 -169 988 -224 q 919 -36 919 -115 l 919 203 l 942 488 l 921 763 l 919 972 l 1100 972 l 1100 -31 q 1122 -98 1100 -74 q 1177 -128 1143 -122 q 1246 -122 1211 -135 l 1292 -258 z "},"R":{"ha":1015,"x_min":131,"x_max":961,"o":"m 131 0 l 131 972 l 529 972 q 834 881 724 972 q 944 626 944 789 q 894 442 944 519 q 752 324 844 365 q 531 283 660 283 l 231 283 l 311 365 l 311 0 l 131 0 m 767 0 l 521 353 l 714 353 l 961 0 l 767 0 m 311 346 l 231 432 l 522 432 q 702 483 642 432 q 763 626 763 535 q 702 769 763 719 q 522 819 642 819 l 231 819 l 311 908 l 311 346 z "},"Ŕ":{"ha":1015,"x_min":131,"x_max":961,"o":"m 131 0 l 131 972 l 529 972 q 834 881 724 972 q 944 626 944 789 q 894 442 944 519 q 752 324 844 365 q 531 283 660 283 l 231 283 l 311 365 l 311 0 l 131 0 m 767 0 l 521 353 l 714 353 l 961 0 l 767 0 m 311 346 l 231 432 l 522 432 q 702 483 642 432 q 763 626 763 535 q 702 769 763 719 q 522 819 642 819 l 231 819 l 311 908 l 311 346 m 393 1051 l 581 1242 l 785 1242 l 543 1051 l 393 1051 z "},"Ř":{"ha":1015,"x_min":131,"x_max":961,"o":"m 131 0 l 131 972 l 529 972 q 834 881 724 972 q 944 626 944 789 q 894 442 944 519 q 752 324 844 365 q 531 283 660 283 l 231 283 l 311 365 l 311 0 l 131 0 m 767 0 l 521 353 l 714 353 l 961 0 l 767 0 m 311 346 l 231 432 l 522 432 q 702 483 642 432 q 763 626 763 535 q 702 769 763 719 q 522 819 642 819 l 231 819 l 311 908 l 311 346 m 431 1051 l 244 1242 l 388 1242 l 576 1083 l 443 1083 l 632 1242 l 775 1242 l 589 1051 l 431 1051 z "},"Ŗ":{"ha":1015,"x_min":131,"x_max":961,"o":"m 131 0 l 131 972 l 529 972 q 834 881 724 972 q 944 626 944 789 q 894 442 944 519 q 752 324 844 365 q 531 283 660 283 l 231 283 l 311 365 l 311 0 l 131 0 m 767 0 l 521 353 l 714 353 l 961 0 l 767 0 m 311 346 l 231 432 l 522 432 q 702 483 642 432 q 763 626 763 535 q 702 769 763 719 q 522 819 642 819 l 231 819 l 311 908 l 311 346 m 442 -356 l 492 -187 l 510 -250 q 449 -230 471 -250 q 426 -178 426 -210 q 449 -124 426 -144 q 510 -103 472 -103 q 571 -124 549 -103 q 593 -178 593 -146 q 589 -213 593 -193 q 571 -258 585 -233 l 526 -356 l 442 -356 z "},"Ȑ":{"ha":1015,"x_min":131,"x_max":961,"o":"m 131 0 l 131 972 l 529 972 q 834 881 724 972 q 944 626 944 789 q 894 442 944 519 q 752 324 844 365 q 531 283 660 283 l 231 283 l 311 365 l 311 0 l 131 0 m 767 0 l 521 353 l 714 353 l 961 0 l 767 0 m 311 346 l 231 432 l 522 432 q 702 483 642 432 q 763 626 763 535 q 702 769 763 719 q 522 819 642 819 l 231 819 l 311 908 l 311 346 m 572 1051 l 422 1242 l 596 1242 l 708 1051 l 572 1051 m 311 1051 l 163 1242 l 336 1242 l 447 1051 l 311 1051 z "},"Ṙ":{"ha":1015,"x_min":131,"x_max":961,"o":"m 131 0 l 131 972 l 529 972 q 834 881 724 972 q 944 626 944 789 q 894 442 944 519 q 752 324 844 365 q 531 283 660 283 l 231 283 l 311 365 l 311 0 l 131 0 m 767 0 l 521 353 l 714 353 l 961 0 l 767 0 m 311 346 l 231 432 l 522 432 q 702 483 642 432 q 763 626 763 535 q 702 769 763 719 q 522 819 642 819 l 231 819 l 311 908 l 311 346 m 510 1068 q 439 1096 467 1068 q 411 1167 411 1124 q 439 1238 411 1210 q 510 1265 467 1265 q 580 1238 551 1265 q 608 1167 608 1210 q 580 1096 608 1124 q 510 1068 551 1068 z "},"Ṛ":{"ha":1015,"x_min":131,"x_max":961,"o":"m 131 0 l 131 972 l 529 972 q 834 881 724 972 q 944 626 944 789 q 894 442 944 519 q 752 324 844 365 q 531 283 660 283 l 231 283 l 311 365 l 311 0 l 131 0 m 767 0 l 521 353 l 714 353 l 961 0 l 767 0 m 311 346 l 231 432 l 522 432 q 702 483 642 432 q 763 626 763 535 q 702 769 763 719 q 522 819 642 819 l 231 819 l 311 908 l 311 346 m 510 -286 q 439 -258 467 -286 q 411 -187 411 -231 q 439 -117 411 -144 q 510 -89 467 -89 q 580 -117 551 -89 q 608 -187 608 -144 q 580 -258 608 -231 q 510 -286 551 -286 z "},"Ṝ":{"ha":1015,"x_min":131,"x_max":961,"o":"m 131 0 l 131 972 l 529 972 q 834 881 724 972 q 944 626 944 789 q 894 442 944 519 q 752 324 844 365 q 531 283 660 283 l 231 283 l 311 365 l 311 0 l 131 0 m 767 0 l 521 353 l 714 353 l 961 0 l 767 0 m 311 346 l 231 432 l 522 432 q 702 483 642 432 q 763 626 763 535 q 702 769 763 719 q 522 819 642 819 l 231 819 l 311 908 l 311 346 m 510 -286 q 439 -258 467 -286 q 411 -187 411 -231 q 439 -117 411 -144 q 510 -89 467 -89 q 580 -117 551 -89 q 608 -187 608 -144 q 580 -258 608 -231 q 510 -286 551 -286 m 269 1094 l 269 1199 l 750 1199 l 750 1094 l 269 1094 z "},"Ȓ":{"ha":1015,"x_min":131,"x_max":961,"o":"m 131 0 l 131 972 l 529 972 q 834 881 724 972 q 944 626 944 789 q 894 442 944 519 q 752 324 844 365 q 531 283 660 283 l 231 283 l 311 365 l 311 0 l 131 0 m 767 0 l 521 353 l 714 353 l 961 0 l 767 0 m 311 346 l 231 432 l 522 432 q 702 483 642 432 q 763 626 763 535 q 702 769 763 719 q 522 819 642 819 l 231 819 l 311 908 l 311 346 m 269 1051 q 341 1198 274 1144 q 510 1251 408 1251 q 678 1198 611 1251 q 750 1051 746 1144 l 636 1051 q 598 1128 635 1100 q 510 1157 561 1157 q 422 1128 458 1157 q 383 1051 386 1100 l 269 1051 z "},"Ṟ":{"ha":1015,"x_min":131,"x_max":961,"o":"m 131 0 l 131 972 l 529 972 q 834 881 724 972 q 944 626 944 789 q 894 442 944 519 q 752 324 844 365 q 531 283 660 283 l 231 283 l 311 365 l 311 0 l 131 0 m 767 0 l 521 353 l 714 353 l 961 0 l 767 0 m 311 346 l 231 432 l 522 432 q 702 483 642 432 q 763 626 763 535 q 702 769 763 719 q 522 819 642 819 l 231 819 l 311 908 l 311 346 m 269 -239 l 269 -135 l 750 -135 l 750 -239 l 269 -239 z "},"Ɍ":{"ha":1015,"x_min":-3,"x_max":961,"o":"m 131 0 l 131 972 l 529 972 q 834 881 724 972 q 944 626 944 789 q 894 442 944 519 q 752 324 844 365 q 531 283 660 283 l 231 283 l 311 365 l 311 0 l 131 0 m 767 0 l 521 353 l 714 353 l 961 0 l 767 0 m 311 346 l 231 432 l 522 432 q 702 483 642 432 q 763 626 763 535 q 702 769 763 719 q 522 819 642 819 l 231 819 l 311 908 l 311 346 m -3 299 l -3 432 l 471 432 l 471 299 l -3 299 z "},"Ɽ":{"ha":1047,"x_min":147,"x_max":978,"o":"m 572 -232 q 433 -278 507 -269 q 294 -263 360 -287 q 188 -183 229 -239 q 147 -36 147 -126 l 147 972 l 546 972 q 768 931 675 972 q 911 811 861 889 q 961 626 961 733 q 911 442 961 519 q 768 324 861 365 q 546 283 675 283 l 258 283 l 328 356 l 328 -31 q 345 -92 328 -69 q 390 -124 363 -115 q 451 -127 417 -133 q 517 -101 485 -121 l 572 -232 m 782 0 l 536 353 l 731 353 l 978 0 l 782 0 m 328 354 l 258 432 l 539 432 q 719 483 658 432 q 779 626 779 535 q 719 769 779 719 q 539 819 658 819 l 258 819 l 328 899 l 328 354 z "},"S":{"ha":874,"x_min":49,"x_max":825,"o":"m 432 -14 q 214 19 318 -14 q 49 103 110 51 l 111 243 q 256 167 169 197 q 432 136 342 136 q 556 153 508 136 q 625 198 603 169 q 647 263 647 226 q 615 334 647 307 q 533 377 583 361 q 420 407 482 393 q 297 440 358 421 q 184 488 235 458 q 101 568 133 518 q 69 696 69 618 q 112 841 69 775 q 241 947 154 907 q 461 986 328 986 q 635 964 549 986 q 785 900 721 942 l 728 760 q 593 817 663 799 q 460 836 524 836 q 338 818 385 836 q 270 771 292 800 q 249 704 249 742 q 280 633 249 660 q 362 590 311 606 q 475 560 413 575 q 599 528 538 546 q 712 481 661 510 q 794 401 763 451 q 825 275 825 351 q 783 131 825 197 q 653 26 740 65 q 432 -14 565 -14 z "},"Ś":{"ha":874,"x_min":49,"x_max":825,"o":"m 432 -14 q 214 19 318 -14 q 49 103 110 51 l 111 243 q 256 167 169 197 q 432 136 342 136 q 556 153 508 136 q 625 198 603 169 q 647 263 647 226 q 615 334 647 307 q 533 377 583 361 q 420 407 482 393 q 297 440 358 421 q 184 488 235 458 q 101 568 133 518 q 69 696 69 618 q 112 841 69 775 q 241 947 154 907 q 461 986 328 986 q 635 964 549 986 q 785 900 721 942 l 728 760 q 593 817 663 799 q 460 836 524 836 q 338 818 385 836 q 270 771 292 800 q 249 704 249 742 q 280 633 249 660 q 362 590 311 606 q 475 560 413 575 q 599 528 538 546 q 712 481 661 510 q 794 401 763 451 q 825 275 825 351 q 783 131 825 197 q 653 26 740 65 q 432 -14 565 -14 m 333 1051 l 521 1242 l 725 1242 l 483 1051 l 333 1051 z "},"Ṥ":{"ha":874,"x_min":49,"x_max":825,"o":"m 432 -14 q 214 19 318 -14 q 49 103 110 51 l 111 243 q 256 167 169 197 q 432 136 342 136 q 556 153 508 136 q 625 198 603 169 q 647 263 647 226 q 615 334 647 307 q 533 377 583 361 q 420 407 482 393 q 297 440 358 421 q 184 488 235 458 q 101 568 133 518 q 69 696 69 618 q 112 841 69 775 q 241 947 154 907 q 461 986 328 986 q 635 964 549 986 q 785 900 721 942 l 728 760 q 593 817 663 799 q 460 836 524 836 q 338 818 385 836 q 270 771 292 800 q 249 704 249 742 q 280 633 249 660 q 362 590 311 606 q 475 560 413 575 q 599 528 538 546 q 712 481 661 510 q 794 401 763 451 q 825 275 825 351 q 783 131 825 197 q 653 26 740 65 q 432 -14 565 -14 m 343 1051 l 501 1214 l 688 1214 l 476 1051 l 343 1051 m 464 1263 q 405 1285 429 1263 q 381 1346 381 1308 q 405 1406 381 1383 q 464 1429 429 1429 q 523 1406 499 1429 q 547 1346 547 1383 q 523 1285 547 1308 q 464 1263 499 1263 z "},"Š":{"ha":874,"x_min":49,"x_max":825,"o":"m 432 -14 q 214 19 318 -14 q 49 103 110 51 l 111 243 q 256 167 169 197 q 432 136 342 136 q 556 153 508 136 q 625 198 603 169 q 647 263 647 226 q 615 334 647 307 q 533 377 583 361 q 420 407 482 393 q 297 440 358 421 q 184 488 235 458 q 101 568 133 518 q 69 696 69 618 q 112 841 69 775 q 241 947 154 907 q 461 986 328 986 q 635 964 549 986 q 785 900 721 942 l 728 760 q 593 817 663 799 q 460 836 524 836 q 338 818 385 836 q 270 771 292 800 q 249 704 249 742 q 280 633 249 660 q 362 590 311 606 q 475 560 413 575 q 599 528 538 546 q 712 481 661 510 q 794 401 763 451 q 825 275 825 351 q 783 131 825 197 q 653 26 740 65 q 432 -14 565 -14 m 371 1051 l 185 1242 l 328 1242 l 517 1083 l 383 1083 l 572 1242 l 715 1242 l 529 1051 l 371 1051 z "},"Ṧ":{"ha":874,"x_min":49,"x_max":825,"o":"m 432 -14 q 214 19 318 -14 q 49 103 110 51 l 111 243 q 256 167 169 197 q 432 136 342 136 q 556 153 508 136 q 625 198 603 169 q 647 263 647 226 q 615 334 647 307 q 533 377 583 361 q 420 407 482 393 q 297 440 358 421 q 184 488 235 458 q 101 568 133 518 q 69 696 69 618 q 112 841 69 775 q 241 947 154 907 q 461 986 328 986 q 635 964 549 986 q 785 900 721 942 l 728 760 q 593 817 663 799 q 460 836 524 836 q 338 818 385 836 q 270 771 292 800 q 249 704 249 742 q 280 633 249 660 q 362 590 311 606 q 475 560 413 575 q 599 528 538 546 q 712 481 661 510 q 794 401 763 451 q 825 275 825 351 q 783 131 825 197 q 653 26 740 65 q 432 -14 565 -14 m 372 1058 l 185 1207 l 329 1207 l 515 1089 l 385 1089 l 571 1207 l 715 1207 l 528 1058 l 372 1058 m 450 1243 q 391 1266 415 1243 q 367 1326 367 1289 q 391 1387 367 1364 q 450 1410 415 1410 q 509 1387 485 1410 q 533 1326 533 1364 q 509 1266 533 1289 q 450 1243 485 1243 z "},"Ş":{"ha":874,"x_min":49,"x_max":825,"o":"m 432 -14 q 214 19 318 -14 q 49 103 110 51 l 111 243 q 256 167 169 197 q 432 136 342 136 q 556 153 508 136 q 625 198 603 169 q 647 263 647 226 q 615 334 647 307 q 533 377 583 361 q 420 407 482 393 q 297 440 358 421 q 184 488 235 458 q 101 568 133 518 q 69 696 69 618 q 112 841 69 775 q 241 947 154 907 q 461 986 328 986 q 635 964 549 986 q 785 900 721 942 l 728 760 q 593 817 663 799 q 460 836 524 836 q 338 818 385 836 q 270 771 292 800 q 249 704 249 742 q 280 633 249 660 q 362 590 311 606 q 475 560 413 575 q 599 528 538 546 q 712 481 661 510 q 794 401 763 451 q 825 275 825 351 q 783 131 825 197 q 653 26 740 65 q 432 -14 565 -14 m 410 -317 q 340 -309 372 -317 q 282 -287 308 -301 l 314 -206 q 359 -222 336 -217 q 408 -228 382 -228 q 465 -214 449 -228 q 482 -178 482 -200 q 465 -144 482 -157 q 408 -132 447 -132 l 365 -132 l 403 10 l 497 10 l 478 -68 q 569 -108 539 -75 q 599 -185 599 -140 q 547 -281 599 -246 q 410 -317 496 -317 z "},"Ŝ":{"ha":874,"x_min":49,"x_max":825,"o":"m 432 -14 q 214 19 318 -14 q 49 103 110 51 l 111 243 q 256 167 169 197 q 432 136 342 136 q 556 153 508 136 q 625 198 603 169 q 647 263 647 226 q 615 334 647 307 q 533 377 583 361 q 420 407 482 393 q 297 440 358 421 q 184 488 235 458 q 101 568 133 518 q 69 696 69 618 q 112 841 69 775 q 241 947 154 907 q 461 986 328 986 q 635 964 549 986 q 785 900 721 942 l 728 760 q 593 817 663 799 q 460 836 524 836 q 338 818 385 836 q 270 771 292 800 q 249 704 249 742 q 280 633 249 660 q 362 590 311 606 q 475 560 413 575 q 599 528 538 546 q 712 481 661 510 q 794 401 763 451 q 825 275 825 351 q 783 131 825 197 q 653 26 740 65 q 432 -14 565 -14 m 185 1051 l 371 1242 l 529 1242 l 715 1051 l 572 1051 l 383 1211 l 517 1211 l 328 1051 l 185 1051 z "},"Ș":{"ha":874,"x_min":49,"x_max":825,"o":"m 432 -14 q 214 19 318 -14 q 49 103 110 51 l 111 243 q 256 167 169 197 q 432 136 342 136 q 556 153 508 136 q 625 198 603 169 q 647 263 647 226 q 615 334 647 307 q 533 377 583 361 q 420 407 482 393 q 297 440 358 421 q 184 488 235 458 q 101 568 133 518 q 69 696 69 618 q 112 841 69 775 q 241 947 154 907 q 461 986 328 986 q 635 964 549 986 q 785 900 721 942 l 728 760 q 593 817 663 799 q 460 836 524 836 q 338 818 385 836 q 270 771 292 800 q 249 704 249 742 q 280 633 249 660 q 362 590 311 606 q 475 560 413 575 q 599 528 538 546 q 712 481 661 510 q 794 401 763 451 q 825 275 825 351 q 783 131 825 197 q 653 26 740 65 q 432 -14 565 -14 m 382 -356 l 432 -187 l 450 -250 q 389 -230 411 -250 q 367 -178 367 -210 q 390 -124 367 -144 q 450 -103 413 -103 q 511 -124 489 -103 q 533 -178 533 -146 q 529 -213 533 -193 q 511 -258 525 -233 l 467 -356 l 382 -356 z "},"Ṡ":{"ha":874,"x_min":49,"x_max":825,"o":"m 432 -14 q 214 19 318 -14 q 49 103 110 51 l 111 243 q 256 167 169 197 q 432 136 342 136 q 556 153 508 136 q 625 198 603 169 q 647 263 647 226 q 615 334 647 307 q 533 377 583 361 q 420 407 482 393 q 297 440 358 421 q 184 488 235 458 q 101 568 133 518 q 69 696 69 618 q 112 841 69 775 q 241 947 154 907 q 461 986 328 986 q 635 964 549 986 q 785 900 721 942 l 728 760 q 593 817 663 799 q 460 836 524 836 q 338 818 385 836 q 270 771 292 800 q 249 704 249 742 q 280 633 249 660 q 362 590 311 606 q 475 560 413 575 q 599 528 538 546 q 712 481 661 510 q 794 401 763 451 q 825 275 825 351 q 783 131 825 197 q 653 26 740 65 q 432 -14 565 -14 m 450 1068 q 379 1096 407 1068 q 351 1167 351 1124 q 379 1238 351 1210 q 450 1265 407 1265 q 520 1238 492 1265 q 549 1167 549 1210 q 520 1096 549 1124 q 450 1068 492 1068 z "},"Ṣ":{"ha":874,"x_min":49,"x_max":825,"o":"m 432 -14 q 214 19 318 -14 q 49 103 110 51 l 111 243 q 256 167 169 197 q 432 136 342 136 q 556 153 508 136 q 625 198 603 169 q 647 263 647 226 q 615 334 647 307 q 533 377 583 361 q 420 407 482 393 q 297 440 358 421 q 184 488 235 458 q 101 568 133 518 q 69 696 69 618 q 112 841 69 775 q 241 947 154 907 q 461 986 328 986 q 635 964 549 986 q 785 900 721 942 l 728 760 q 593 817 663 799 q 460 836 524 836 q 338 818 385 836 q 270 771 292 800 q 249 704 249 742 q 280 633 249 660 q 362 590 311 606 q 475 560 413 575 q 599 528 538 546 q 712 481 661 510 q 794 401 763 451 q 825 275 825 351 q 783 131 825 197 q 653 26 740 65 q 432 -14 565 -14 m 450 -286 q 379 -258 407 -286 q 351 -187 351 -231 q 379 -117 351 -144 q 450 -89 407 -89 q 520 -117 492 -89 q 549 -187 549 -144 q 520 -258 549 -231 q 450 -286 492 -286 z "},"Ṩ":{"ha":874,"x_min":49,"x_max":825,"o":"m 432 -14 q 214 19 318 -14 q 49 103 110 51 l 111 243 q 256 167 169 197 q 432 136 342 136 q 556 153 508 136 q 625 198 603 169 q 647 263 647 226 q 615 334 647 307 q 533 377 583 361 q 420 407 482 393 q 297 440 358 421 q 184 488 235 458 q 101 568 133 518 q 69 696 69 618 q 112 841 69 775 q 241 947 154 907 q 461 986 328 986 q 635 964 549 986 q 785 900 721 942 l 728 760 q 593 817 663 799 q 460 836 524 836 q 338 818 385 836 q 270 771 292 800 q 249 704 249 742 q 280 633 249 660 q 362 590 311 606 q 475 560 413 575 q 599 528 538 546 q 712 481 661 510 q 794 401 763 451 q 825 275 825 351 q 783 131 825 197 q 653 26 740 65 q 432 -14 565 -14 m 450 -286 q 379 -258 407 -286 q 351 -187 351 -231 q 379 -117 351 -144 q 450 -89 407 -89 q 520 -117 492 -89 q 549 -187 549 -144 q 520 -258 549 -231 q 450 -286 492 -286 m 450 1068 q 379 1096 407 1068 q 351 1167 351 1124 q 379 1238 351 1210 q 450 1265 407 1265 q 520 1238 492 1265 q 549 1167 549 1210 q 520 1096 549 1124 q 450 1068 492 1068 z "},"ẞ":{"ha":1071,"x_min":122,"x_max":1008,"o":"m 653 -14 q 549 -6 599 -14 q 456 21 499 3 l 483 167 q 555 144 515 153 q 636 136 594 136 q 775 175 725 136 q 825 290 825 214 q 774 406 825 367 q 636 444 724 444 q 578 440 607 444 q 526 429 550 436 l 494 511 l 817 879 l 838 758 q 720 817 783 797 q 585 836 657 836 q 374 762 446 836 q 303 549 303 688 l 303 0 l 122 0 l 122 553 q 176 783 122 686 q 331 933 229 881 q 575 986 433 986 q 698 976 636 986 q 816 944 760 965 q 914 892 872 924 l 914 778 l 636 465 l 561 568 q 612 578 585 575 q 668 581 639 581 q 840 546 763 581 q 963 445 917 511 q 1008 282 1008 379 q 963 122 1008 188 q 837 21 917 56 q 653 -14 757 -14 z "},"Ꞩ":{"ha":872,"x_min":49,"x_max":824,"o":"m 432 -14 q 283 1 356 -14 q 151 43 211 17 q 49 104 90 69 l 111 242 q 256 165 169 194 q 432 135 342 135 q 556 151 508 135 q 626 197 603 168 q 649 263 649 225 q 617 334 649 307 q 534 378 585 361 q 421 408 483 394 q 297 440 358 421 q 184 489 235 458 q 101 569 133 519 q 69 696 69 618 q 112 841 69 775 q 240 947 154 907 q 460 986 326 986 q 633 964 547 986 q 783 900 719 942 l 726 761 q 593 819 663 800 q 458 838 524 838 q 336 819 383 838 q 267 772 289 801 q 246 704 246 742 q 277 633 246 660 q 360 590 308 606 q 473 560 411 574 q 597 528 535 546 q 710 480 658 510 q 792 401 761 450 q 824 275 824 351 q 781 131 824 197 q 651 26 739 65 q 432 -14 564 -14 m 360 233 l 254 286 l 476 733 l 582 683 l 360 233 z "},"T":{"ha":836,"x_min":6,"x_max":831,"o":"m 328 0 l 328 819 l 6 819 l 6 972 l 831 972 l 831 819 l 508 819 l 508 0 l 328 0 z "},"Ŧ":{"ha":836,"x_min":6,"x_max":831,"o":"m 328 0 l 328 819 l 6 819 l 6 972 l 831 972 l 831 819 l 508 819 l 508 0 l 328 0 m 128 424 l 128 557 l 708 557 l 708 424 l 128 424 z "},"Ť":{"ha":836,"x_min":6,"x_max":831,"o":"m 328 0 l 328 819 l 6 819 l 6 972 l 831 972 l 831 819 l 508 819 l 508 0 l 328 0 m 339 1051 l 153 1242 l 296 1242 l 485 1083 l 351 1083 l 540 1242 l 683 1242 l 497 1051 l 339 1051 z "},"Ţ":{"ha":836,"x_min":6,"x_max":831,"o":"m 328 0 l 328 819 l 6 819 l 6 972 l 831 972 l 831 819 l 508 819 l 508 0 l 328 0 m 378 -317 q 308 -309 340 -317 q 250 -287 276 -301 l 282 -206 q 327 -222 304 -217 q 376 -228 350 -228 q 433 -214 417 -228 q 450 -178 450 -200 q 433 -144 450 -157 q 376 -132 415 -132 l 333 -132 l 371 10 l 465 10 l 446 -68 q 537 -108 507 -75 q 567 -185 567 -140 q 515 -281 567 -246 q 378 -317 464 -317 z "},"Ṱ":{"ha":836,"x_min":6,"x_max":831,"o":"m 328 0 l 328 819 l 6 819 l 6 972 l 831 972 l 831 819 l 508 819 l 508 0 l 328 0 m 153 -283 l 339 -93 l 497 -93 l 683 -283 l 540 -283 l 351 -124 l 485 -124 l 296 -283 l 153 -283 z "},"Ț":{"ha":836,"x_min":6,"x_max":831,"o":"m 328 0 l 328 819 l 6 819 l 6 972 l 831 972 l 831 819 l 508 819 l 508 0 l 328 0 m 350 -356 l 400 -187 l 418 -250 q 357 -230 379 -250 q 335 -178 335 -210 q 358 -124 335 -144 q 418 -103 381 -103 q 479 -124 457 -103 q 501 -178 501 -146 q 497 -213 501 -193 q 479 -258 493 -233 l 435 -356 l 350 -356 z "},"Ⱦ":{"ha":831,"x_min":6,"x_max":825,"o":"m 329 0 l 329 819 l 6 819 l 6 972 l 825 972 l 825 819 l 501 819 l 501 0 l 329 0 m 143 -97 l 669 1069 l 799 1069 l 272 -97 l 143 -97 z "},"Ṫ":{"ha":836,"x_min":6,"x_max":831,"o":"m 328 0 l 328 819 l 6 819 l 6 972 l 831 972 l 831 819 l 508 819 l 508 0 l 328 0 m 418 1068 q 347 1096 375 1068 q 319 1167 319 1124 q 347 1238 319 1210 q 418 1265 375 1265 q 488 1238 460 1265 q 517 1167 517 1210 q 488 1096 517 1124 q 418 1068 460 1068 z "},"Ṭ":{"ha":836,"x_min":6,"x_max":831,"o":"m 328 0 l 328 819 l 6 819 l 6 972 l 831 972 l 831 819 l 508 819 l 508 0 l 328 0 m 418 -286 q 347 -258 375 -286 q 319 -187 319 -231 q 347 -117 319 -144 q 418 -89 375 -89 q 488 -117 460 -89 q 517 -187 517 -144 q 488 -258 517 -231 q 418 -286 460 -286 z "},"Ƭ":{"ha":953,"x_min":39,"x_max":947,"o":"m 444 0 l 444 850 l 481 819 l 297 819 q 224 797 249 819 q 195 738 200 774 q 206 661 190 701 q 257 586 222 621 l 138 508 q 63 619 88 557 q 40 742 39 681 q 69 856 40 804 q 154 940 97 908 q 297 972 211 972 l 947 972 l 947 819 l 590 819 l 625 850 l 625 0 l 444 0 z "},"Ṯ":{"ha":836,"x_min":6,"x_max":831,"o":"m 328 0 l 328 819 l 6 819 l 6 972 l 831 972 l 831 819 l 508 819 l 508 0 l 328 0 m 178 -239 l 178 -135 l 658 -135 l 658 -239 l 178 -239 z "},"Ʈ":{"ha":836,"x_min":6,"x_max":831,"o":"m 753 -232 q 614 -278 688 -269 q 475 -262 540 -286 q 369 -182 410 -239 q 328 -35 328 -125 l 328 844 l 508 844 l 508 -29 q 526 -92 508 -68 q 570 -124 543 -115 q 631 -127 597 -133 q 697 -101 665 -121 l 753 -232 m 6 819 l 6 972 l 831 972 l 831 819 l 6 819 z "},"Ʇ":{"ha":836,"x_min":6,"x_max":831,"o":"m 508 972 l 508 153 l 831 153 l 831 0 l 6 0 l 6 153 l 328 153 l 328 972 l 508 972 z "},"U":{"ha":1096,"x_min":122,"x_max":974,"o":"m 549 -14 q 235 99 349 -14 q 122 424 122 211 l 122 972 l 303 972 l 303 431 q 367 213 303 281 q 550 144 432 144 q 732 213 668 144 q 796 431 796 281 l 796 972 l 974 972 l 974 424 q 860 99 974 211 q 549 -14 747 -14 z "},"Ú":{"ha":1096,"x_min":122,"x_max":974,"o":"m 549 -14 q 235 99 349 -14 q 122 424 122 211 l 122 972 l 303 972 l 303 431 q 367 213 303 281 q 550 144 432 144 q 732 213 668 144 q 796 431 796 281 l 796 972 l 974 972 l 974 424 q 860 99 974 211 q 549 -14 747 -14 m 433 1051 l 621 1242 l 825 1242 l 583 1051 l 433 1051 z "},"Ʉ":{"ha":1097,"x_min":-11,"x_max":1107,"o":"m 547 -14 q 235 99 349 -14 q 122 424 122 211 l 122 972 l 303 972 l 303 431 q 367 213 303 281 q 549 144 432 144 q 731 213 667 144 q 796 431 796 281 l 796 972 l 972 972 l 972 424 q 860 99 972 211 q 547 -14 747 -14 m -11 432 l -11 564 l 1107 564 l 1107 432 l -11 432 z "},"Ŭ":{"ha":1096,"x_min":122,"x_max":974,"o":"m 549 -14 q 235 99 349 -14 q 122 424 122 211 l 122 972 l 303 972 l 303 431 q 367 213 303 281 q 550 144 432 144 q 732 213 668 144 q 796 431 796 281 l 796 972 l 974 972 l 974 424 q 860 99 974 211 q 549 -14 747 -14 m 550 1056 q 381 1110 449 1056 q 310 1256 314 1164 l 424 1256 q 463 1179 426 1207 q 550 1151 499 1151 q 638 1179 601 1151 q 676 1256 675 1207 l 790 1256 q 719 1110 786 1164 q 550 1056 651 1056 z "},"Ǔ":{"ha":1096,"x_min":122,"x_max":974,"o":"m 549 -14 q 235 99 349 -14 q 122 424 122 211 l 122 972 l 303 972 l 303 431 q 367 213 303 281 q 550 144 432 144 q 732 213 668 144 q 796 431 796 281 l 796 972 l 974 972 l 974 424 q 860 99 974 211 q 549 -14 747 -14 m 471 1051 l 285 1242 l 428 1242 l 617 1083 l 483 1083 l 672 1242 l 815 1242 l 629 1051 l 471 1051 z "},"Û":{"ha":1096,"x_min":122,"x_max":974,"o":"m 549 -14 q 235 99 349 -14 q 122 424 122 211 l 122 972 l 303 972 l 303 431 q 367 213 303 281 q 550 144 432 144 q 732 213 668 144 q 796 431 796 281 l 796 972 l 974 972 l 974 424 q 860 99 974 211 q 549 -14 747 -14 m 285 1051 l 471 1242 l 629 1242 l 815 1051 l 672 1051 l 483 1211 l 617 1211 l 428 1051 l 285 1051 z "},"Ṷ":{"ha":1096,"x_min":122,"x_max":974,"o":"m 549 -14 q 235 99 349 -14 q 122 424 122 211 l 122 972 l 303 972 l 303 431 q 367 213 303 281 q 550 144 432 144 q 732 213 668 144 q 796 431 796 281 l 796 972 l 974 972 l 974 424 q 860 99 974 211 q 549 -14 747 -14 m 285 -283 l 471 -93 l 629 -93 l 815 -283 l 672 -283 l 483 -124 l 617 -124 l 428 -283 l 285 -283 z "},"Ȕ":{"ha":1096,"x_min":122,"x_max":974,"o":"m 549 -14 q 235 99 349 -14 q 122 424 122 211 l 122 972 l 303 972 l 303 431 q 367 213 303 281 q 550 144 432 144 q 732 213 668 144 q 796 431 796 281 l 796 972 l 974 972 l 974 424 q 860 99 974 211 q 549 -14 747 -14 m 613 1051 l 463 1242 l 636 1242 l 749 1051 l 613 1051 m 351 1051 l 203 1242 l 376 1242 l 488 1051 l 351 1051 z "},"Ü":{"ha":1096,"x_min":122,"x_max":974,"o":"m 549 -14 q 235 99 349 -14 q 122 424 122 211 l 122 972 l 303 972 l 303 431 q 367 213 303 281 q 550 144 432 144 q 732 213 668 144 q 796 431 796 281 l 796 972 l 974 972 l 974 424 q 860 99 974 211 q 549 -14 747 -14 m 685 1067 q 626 1090 650 1067 q 601 1150 601 1113 q 626 1211 601 1188 q 685 1235 650 1235 q 744 1211 719 1235 q 768 1150 768 1188 q 744 1090 768 1113 q 685 1067 719 1067 m 415 1067 q 356 1090 381 1067 q 332 1150 332 1113 q 356 1211 332 1188 q 415 1235 381 1235 q 474 1211 450 1235 q 499 1150 499 1188 q 474 1090 499 1113 q 415 1067 450 1067 z "},"Ǘ":{"ha":1096,"x_min":122,"x_max":974,"o":"m 549 -14 q 235 99 349 -14 q 122 424 122 211 l 122 972 l 303 972 l 303 431 q 367 213 303 281 q 550 144 432 144 q 732 213 668 144 q 796 431 796 281 l 796 972 l 974 972 l 974 424 q 860 99 974 211 q 549 -14 747 -14 m 682 1061 q 625 1084 649 1061 q 601 1142 601 1107 q 625 1198 601 1175 q 682 1221 649 1221 q 738 1198 714 1221 q 763 1142 763 1175 q 738 1084 763 1107 q 682 1061 714 1061 m 419 1061 q 363 1084 386 1061 q 339 1142 339 1107 q 363 1198 339 1175 q 419 1221 386 1221 q 477 1198 454 1221 q 500 1142 500 1175 q 477 1084 500 1107 q 419 1061 454 1061 m 443 1263 l 601 1425 l 788 1425 l 576 1263 l 443 1263 z "},"Ṳ":{"ha":1096,"x_min":122,"x_max":974,"o":"m 549 -14 q 235 99 349 -14 q 122 424 122 211 l 122 972 l 303 972 l 303 431 q 367 213 303 281 q 550 144 432 144 q 732 213 668 144 q 796 431 796 281 l 796 972 l 974 972 l 974 424 q 860 99 974 211 q 549 -14 747 -14 m 685 -268 q 626 -245 650 -268 q 601 -185 601 -222 q 626 -124 601 -147 q 685 -100 650 -100 q 744 -124 719 -100 q 768 -185 768 -147 q 744 -245 768 -222 q 685 -268 719 -268 m 415 -268 q 356 -245 381 -268 q 332 -185 332 -222 q 356 -124 332 -147 q 415 -100 381 -100 q 474 -124 450 -100 q 499 -185 499 -147 q 474 -245 499 -222 q 415 -268 450 -268 z "},"Ǚ":{"ha":1096,"x_min":122,"x_max":974,"o":"m 549 -14 q 235 99 349 -14 q 122 424 122 211 l 122 972 l 303 972 l 303 431 q 367 213 303 281 q 550 144 432 144 q 732 213 668 144 q 796 431 796 281 l 796 972 l 974 972 l 974 424 q 860 99 974 211 q 549 -14 747 -14 m 685 1067 q 626 1090 650 1067 q 601 1150 601 1113 q 626 1211 601 1188 q 685 1235 650 1235 q 744 1211 719 1235 q 768 1150 768 1188 q 744 1090 768 1113 q 685 1067 719 1067 m 415 1067 q 356 1090 381 1067 q 332 1150 332 1113 q 356 1211 332 1188 q 415 1235 381 1235 q 474 1211 450 1235 q 499 1150 499 1188 q 474 1090 499 1113 q 415 1067 450 1067 m 471 1268 l 285 1458 l 428 1458 l 617 1300 l 483 1300 l 672 1458 l 815 1458 l 629 1268 l 471 1268 z "},"Ǜ":{"ha":1096,"x_min":122,"x_max":974,"o":"m 549 -14 q 235 99 349 -14 q 122 424 122 211 l 122 972 l 303 972 l 303 431 q 367 213 303 281 q 550 144 432 144 q 732 213 668 144 q 796 431 796 281 l 796 972 l 974 972 l 974 424 q 860 99 974 211 q 549 -14 747 -14 m 682 1061 q 625 1084 649 1061 q 601 1142 601 1107 q 625 1198 601 1175 q 682 1221 649 1221 q 738 1198 714 1221 q 763 1142 763 1175 q 738 1084 763 1107 q 682 1061 714 1061 m 419 1061 q 363 1084 386 1061 q 339 1142 339 1107 q 363 1198 339 1175 q 419 1221 386 1221 q 477 1198 454 1221 q 500 1142 500 1175 q 477 1084 500 1107 q 419 1061 454 1061 m 525 1263 l 314 1425 l 500 1425 l 658 1263 l 525 1263 z "},"Ǖ":{"ha":1096,"x_min":122,"x_max":974,"o":"m 549 -14 q 235 99 349 -14 q 122 424 122 211 l 122 972 l 303 972 l 303 431 q 367 213 303 281 q 550 144 432 144 q 732 213 668 144 q 796 431 796 281 l 796 972 l 974 972 l 974 424 q 860 99 974 211 q 549 -14 747 -14 m 682 1051 q 625 1074 649 1051 q 601 1132 601 1097 q 625 1188 601 1165 q 682 1211 649 1211 q 738 1188 714 1211 q 763 1132 763 1165 q 738 1074 763 1097 q 682 1051 714 1051 m 419 1051 q 363 1074 386 1051 q 339 1132 339 1097 q 363 1188 339 1165 q 419 1211 386 1211 q 477 1188 454 1211 q 500 1132 500 1165 q 477 1074 500 1097 q 419 1051 454 1051 m 310 1301 l 310 1399 l 790 1399 l 790 1301 l 310 1301 z "},"Ụ":{"ha":1096,"x_min":122,"x_max":974,"o":"m 549 -14 q 235 99 349 -14 q 122 424 122 211 l 122 972 l 303 972 l 303 431 q 367 213 303 281 q 550 144 432 144 q 732 213 668 144 q 796 431 796 281 l 796 972 l 974 972 l 974 424 q 860 99 974 211 q 549 -14 747 -14 m 550 -286 q 479 -258 507 -286 q 451 -187 451 -231 q 479 -117 451 -144 q 550 -89 507 -89 q 620 -117 592 -89 q 649 -187 649 -144 q 620 -258 649 -231 q 550 -286 592 -286 z "},"Ù":{"ha":1096,"x_min":122,"x_max":974,"o":"m 549 -14 q 235 99 349 -14 q 122 424 122 211 l 122 972 l 303 972 l 303 431 q 367 213 303 281 q 550 144 432 144 q 732 213 668 144 q 796 431 796 281 l 796 972 l 974 972 l 974 424 q 860 99 974 211 q 549 -14 747 -14 m 517 1051 l 275 1242 l 479 1242 l 667 1051 l 517 1051 z "},"Ủ":{"ha":1096,"x_min":122,"x_max":974,"o":"m 549 -14 q 235 99 349 -14 q 122 424 122 211 l 122 972 l 303 972 l 303 431 q 367 213 303 281 q 550 144 432 144 q 732 213 668 144 q 796 431 796 281 l 796 972 l 974 972 l 974 424 q 860 99 974 211 q 549 -14 747 -14 m 557 1010 l 500 1074 q 558 1115 540 1093 q 575 1163 575 1136 q 556 1207 575 1190 q 506 1224 538 1224 q 424 1197 464 1224 l 386 1272 q 453 1306 417 1294 q 525 1317 489 1317 q 605 1299 569 1317 q 660 1251 640 1282 q 679 1176 679 1219 q 649 1081 679 1122 q 557 1010 619 1039 z "},"Ư":{"ha":1111,"x_min":122,"x_max":1119,"o":"m 549 -14 q 235 99 349 -14 q 122 424 122 211 l 122 972 l 303 972 l 303 431 q 367 213 303 281 q 550 144 432 144 q 732 213 668 144 q 796 431 796 281 l 796 972 l 974 972 l 974 424 q 860 99 974 211 q 549 -14 747 -14 m 883 849 l 883 972 l 913 972 q 977 997 956 972 q 999 1061 999 1022 q 991 1108 999 1086 q 971 1147 983 1131 l 1078 1186 q 1108 1128 1097 1161 q 1119 1056 1119 1094 q 1064 904 1119 960 q 911 849 1008 849 l 883 849 z "},"Ứ":{"ha":1111,"x_min":122,"x_max":1119,"o":"m 549 -14 q 235 99 349 -14 q 122 424 122 211 l 122 972 l 303 972 l 303 431 q 367 213 303 281 q 550 144 432 144 q 732 213 668 144 q 796 431 796 281 l 796 972 l 974 972 l 974 424 q 860 99 974 211 q 549 -14 747 -14 m 883 849 l 883 972 l 913 972 q 977 997 956 972 q 999 1061 999 1022 q 991 1108 999 1086 q 971 1147 983 1131 l 1078 1186 q 1108 1128 1097 1161 q 1119 1056 1119 1094 q 1064 904 1119 960 q 911 849 1008 849 l 883 849 m 433 1051 l 621 1242 l 825 1242 l 583 1051 l 433 1051 z "},"Ự":{"ha":1111,"x_min":122,"x_max":1119,"o":"m 549 -14 q 235 99 349 -14 q 122 424 122 211 l 122 972 l 303 972 l 303 431 q 367 213 303 281 q 550 144 432 144 q 732 213 668 144 q 796 431 796 281 l 796 972 l 974 972 l 974 424 q 860 99 974 211 q 549 -14 747 -14 m 883 849 l 883 972 l 913 972 q 977 997 956 972 q 999 1061 999 1022 q 991 1108 999 1086 q 971 1147 983 1131 l 1078 1186 q 1108 1128 1097 1161 q 1119 1056 1119 1094 q 1064 904 1119 960 q 911 849 1008 849 l 883 849 m 550 -286 q 479 -258 507 -286 q 451 -187 451 -231 q 479 -117 451 -144 q 550 -89 507 -89 q 620 -117 592 -89 q 649 -187 649 -144 q 620 -258 649 -231 q 550 -286 592 -286 z "},"Ừ":{"ha":1111,"x_min":122,"x_max":1119,"o":"m 549 -14 q 235 99 349 -14 q 122 424 122 211 l 122 972 l 303 972 l 303 431 q 367 213 303 281 q 550 144 432 144 q 732 213 668 144 q 796 431 796 281 l 796 972 l 974 972 l 974 424 q 860 99 974 211 q 549 -14 747 -14 m 883 849 l 883 972 l 913 972 q 977 997 956 972 q 999 1061 999 1022 q 991 1108 999 1086 q 971 1147 983 1131 l 1078 1186 q 1108 1128 1097 1161 q 1119 1056 1119 1094 q 1064 904 1119 960 q 911 849 1008 849 l 883 849 m 517 1051 l 275 1242 l 479 1242 l 667 1051 l 517 1051 z "},"Ử":{"ha":1111,"x_min":122,"x_max":1119,"o":"m 549 -14 q 235 99 349 -14 q 122 424 122 211 l 122 972 l 303 972 l 303 431 q 367 213 303 281 q 550 144 432 144 q 732 213 668 144 q 796 431 796 281 l 796 972 l 974 972 l 974 424 q 860 99 974 211 q 549 -14 747 -14 m 883 849 l 883 972 l 913 972 q 977 997 956 972 q 999 1061 999 1022 q 991 1108 999 1086 q 971 1147 983 1131 l 1078 1186 q 1108 1128 1097 1161 q 1119 1056 1119 1094 q 1064 904 1119 960 q 911 849 1008 849 l 883 849 m 557 1010 l 500 1074 q 558 1115 540 1093 q 575 1163 575 1136 q 556 1207 575 1190 q 506 1224 538 1224 q 424 1197 464 1224 l 386 1272 q 453 1306 417 1294 q 525 1317 489 1317 q 605 1299 569 1317 q 660 1251 640 1282 q 679 1176 679 1219 q 649 1081 679 1122 q 557 1010 619 1039 z "},"Ữ":{"ha":1111,"x_min":122,"x_max":1119,"o":"m 549 -14 q 235 99 349 -14 q 122 424 122 211 l 122 972 l 303 972 l 303 431 q 367 213 303 281 q 550 144 432 144 q 732 213 668 144 q 796 431 796 281 l 796 972 l 974 972 l 974 424 q 860 99 974 211 q 549 -14 747 -14 m 883 849 l 883 972 l 913 972 q 977 997 956 972 q 999 1061 999 1022 q 991 1108 999 1086 q 971 1147 983 1131 l 1078 1186 q 1108 1128 1097 1161 q 1119 1056 1119 1094 q 1064 904 1119 960 q 911 849 1008 849 l 883 849 m 660 1044 q 593 1060 622 1044 q 541 1094 564 1075 q 496 1128 518 1113 q 451 1143 474 1143 q 403 1117 421 1143 q 383 1054 385 1090 l 282 1054 q 326 1195 283 1139 q 440 1251 368 1251 q 508 1237 479 1251 q 560 1203 538 1222 q 606 1169 583 1183 q 650 1154 628 1154 q 698 1180 681 1154 q 717 1240 715 1206 l 815 1240 q 773 1101 814 1157 q 660 1044 732 1044 z "},"Ű":{"ha":1096,"x_min":122,"x_max":974,"o":"m 549 -14 q 235 99 349 -14 q 122 424 122 211 l 122 972 l 303 972 l 303 431 q 367 213 303 281 q 550 144 432 144 q 732 213 668 144 q 796 431 796 281 l 796 972 l 974 972 l 974 424 q 860 99 974 211 q 549 -14 747 -14 m 613 1051 l 724 1242 l 897 1242 l 749 1051 l 613 1051 m 351 1051 l 464 1242 l 638 1242 l 488 1051 l 351 1051 z "},"Ȗ":{"ha":1096,"x_min":122,"x_max":974,"o":"m 549 -14 q 235 99 349 -14 q 122 424 122 211 l 122 972 l 303 972 l 303 431 q 367 213 303 281 q 550 144 432 144 q 732 213 668 144 q 796 431 796 281 l 796 972 l 974 972 l 974 424 q 860 99 974 211 q 549 -14 747 -14 m 310 1051 q 381 1198 314 1144 q 550 1251 449 1251 q 719 1198 651 1251 q 790 1051 786 1144 l 676 1051 q 638 1128 675 1100 q 550 1157 601 1157 q 463 1128 499 1157 q 424 1051 426 1100 l 310 1051 z "},"Ū":{"ha":1096,"x_min":122,"x_max":974,"o":"m 549 -14 q 235 99 349 -14 q 122 424 122 211 l 122 972 l 303 972 l 303 431 q 367 213 303 281 q 550 144 432 144 q 732 213 668 144 q 796 431 796 281 l 796 972 l 974 972 l 974 424 q 860 99 974 211 q 549 -14 747 -14 m 310 1094 l 310 1199 l 790 1199 l 790 1094 l 310 1094 z "},"Ṻ":{"ha":1096,"x_min":122,"x_max":974,"o":"m 549 -14 q 235 99 349 -14 q 122 424 122 211 l 122 972 l 303 972 l 303 431 q 367 213 303 281 q 550 144 432 144 q 732 213 668 144 q 796 431 796 281 l 796 972 l 974 972 l 974 424 q 860 99 974 211 q 549 -14 747 -14 m 310 1083 l 310 1181 l 790 1181 l 790 1083 l 310 1083 m 682 1272 q 625 1295 649 1272 q 601 1353 601 1318 q 625 1409 601 1386 q 682 1432 649 1432 q 738 1409 714 1432 q 763 1353 763 1386 q 738 1295 763 1318 q 682 1272 714 1272 m 419 1272 q 363 1295 386 1272 q 339 1353 339 1318 q 363 1409 339 1386 q 419 1432 386 1432 q 477 1409 454 1432 q 500 1353 500 1386 q 477 1295 500 1318 q 419 1272 454 1272 z "},"Ų":{"ha":1096,"x_min":122,"x_max":974,"o":"m 585 -317 q 453 -276 500 -317 q 406 -168 406 -235 q 426 -88 406 -128 q 491 -13 446 -49 q 610 51 536 22 l 610 -11 q 579 -13 594 -12 q 549 -14 564 -14 q 235 99 349 -14 q 122 424 122 211 l 122 972 l 303 972 l 303 431 q 367 213 303 281 q 550 144 432 144 q 732 213 668 144 q 796 431 796 281 l 796 972 l 974 972 l 974 424 q 904 153 974 253 q 718 11 835 53 q 597 -47 639 -18 q 538 -102 554 -75 q 522 -154 522 -129 q 545 -204 522 -186 q 604 -222 568 -222 q 649 -216 626 -222 q 689 -200 672 -210 l 718 -285 q 657 -308 692 -299 q 585 -317 622 -317 z "},"Ʊ":{"ha":1189,"x_min":28,"x_max":1161,"o":"m 1161 972 l 1161 819 l 963 819 q 1075 666 1035 756 q 1115 465 1115 576 q 1076 272 1115 360 q 967 119 1038 183 q 801 21 896 56 q 594 -14 707 -14 q 390 21 485 -14 q 223 119 294 56 q 113 272 151 183 q 74 465 74 360 q 115 666 74 576 q 226 819 156 756 l 28 819 l 28 972 l 481 972 l 481 831 q 313 682 371 775 q 254 478 254 589 q 279 341 254 403 q 349 235 304 279 q 457 168 394 192 q 594 144 519 144 q 732 168 669 144 q 840 235 794 192 q 910 341 885 279 q 935 478 935 403 q 876 683 935 590 q 708 831 818 776 l 708 972 l 1161 972 z "},"Ů":{"ha":1096,"x_min":122,"x_max":974,"o":"m 549 -14 q 235 99 349 -14 q 122 424 122 211 l 122 972 l 303 972 l 303 431 q 367 213 303 281 q 550 144 432 144 q 732 213 668 144 q 796 431 796 281 l 796 972 l 974 972 l 974 424 q 860 99 974 211 q 549 -14 747 -14 m 549 1029 q 466 1051 503 1029 q 408 1109 429 1074 q 388 1188 388 1144 q 409 1269 388 1232 q 467 1327 431 1306 q 549 1349 503 1349 q 633 1327 596 1349 q 690 1269 669 1306 q 711 1188 711 1232 q 690 1108 711 1144 q 633 1051 669 1072 q 549 1029 596 1029 m 549 1100 q 613 1125 588 1100 q 638 1188 638 1150 q 613 1252 638 1226 q 549 1278 588 1278 q 487 1253 513 1278 q 461 1188 461 1228 q 486 1125 461 1150 q 549 1100 511 1100 z "},"Ũ":{"ha":1096,"x_min":122,"x_max":974,"o":"m 549 -14 q 235 99 349 -14 q 122 424 122 211 l 122 972 l 303 972 l 303 431 q 367 213 303 281 q 550 144 432 144 q 732 213 668 144 q 796 431 796 281 l 796 972 l 974 972 l 974 424 q 860 99 974 211 q 549 -14 747 -14 m 660 1044 q 593 1060 622 1044 q 541 1094 564 1075 q 496 1128 518 1113 q 451 1143 474 1143 q 403 1117 421 1143 q 383 1054 385 1090 l 282 1054 q 326 1195 283 1139 q 440 1251 368 1251 q 508 1237 479 1251 q 560 1203 538 1222 q 606 1169 583 1183 q 650 1154 628 1154 q 698 1180 681 1154 q 717 1240 715 1206 l 815 1240 q 773 1101 814 1157 q 660 1044 732 1044 z "},"Ṹ":{"ha":1096,"x_min":122,"x_max":974,"o":"m 549 -14 q 235 99 349 -14 q 122 424 122 211 l 122 972 l 303 972 l 303 431 q 367 213 303 281 q 550 144 432 144 q 732 213 668 144 q 796 431 796 281 l 796 972 l 974 972 l 974 424 q 860 99 974 211 q 549 -14 747 -14 m 651 1053 q 588 1064 615 1053 q 539 1090 561 1075 q 498 1117 517 1106 q 460 1128 479 1128 q 415 1110 429 1128 q 399 1061 400 1092 l 304 1061 q 345 1177 306 1136 q 451 1218 385 1218 q 530 1199 497 1218 q 590 1163 563 1181 q 643 1144 617 1144 q 688 1163 672 1144 q 704 1210 703 1181 l 796 1210 q 756 1095 794 1138 q 651 1053 717 1053 m 443 1263 l 601 1425 l 788 1425 l 576 1263 l 443 1263 z "},"Ṵ":{"ha":1096,"x_min":122,"x_max":974,"o":"m 549 -14 q 235 99 349 -14 q 122 424 122 211 l 122 972 l 303 972 l 303 431 q 367 213 303 281 q 550 144 432 144 q 732 213 668 144 q 796 431 796 281 l 796 972 l 974 972 l 974 424 q 860 99 974 211 q 549 -14 747 -14 m 660 -279 q 593 -264 622 -279 q 541 -230 564 -249 q 496 -196 518 -211 q 451 -181 474 -181 q 403 -207 421 -181 q 383 -269 385 -233 l 282 -269 q 326 -128 283 -185 q 440 -72 368 -72 q 508 -87 479 -72 q 560 -121 538 -101 q 606 -155 583 -140 q 650 -169 628 -169 q 698 -144 681 -169 q 717 -83 715 -118 l 815 -83 q 773 -223 814 -167 q 660 -279 732 -279 z "},"V":{"ha":1013,"x_min":-7,"x_max":1019,"o":"m 418 0 l -7 972 l 189 972 l 568 93 l 456 93 l 839 972 l 1019 972 l 596 0 l 418 0 z "},"Ɣ":{"ha":918,"x_min":-21,"x_max":950,"o":"m 460 -285 q 355 -260 401 -285 q 281 -191 308 -235 q 253 -92 253 -147 q 274 6 253 -44 q 325 108 294 57 q 385 205 356 158 q 432 288 415 251 l 769 972 l 950 972 l 564 192 q 521 122 550 160 q 462 46 492 85 q 411 -29 432 7 q 390 -96 390 -65 q 410 -140 390 -122 q 461 -158 431 -158 q 510 -140 490 -158 q 531 -96 531 -122 q 512 -34 531 -69 q 467 41 493 1 q 414 120 440 81 q 371 193 388 160 l -21 972 l 175 972 l 510 288 q 552 208 526 254 q 605 111 578 163 q 650 8 632 60 q 668 -90 668 -43 q 641 -190 668 -146 q 567 -259 614 -233 q 460 -285 519 -285 z "},"Ṿ":{"ha":1013,"x_min":-7,"x_max":1019,"o":"m 418 0 l -7 972 l 189 972 l 568 93 l 456 93 l 839 972 l 1019 972 l 596 0 l 418 0 m 506 -286 q 435 -258 463 -286 q 407 -187 407 -231 q 435 -117 407 -144 q 506 -89 463 -89 q 576 -117 547 -89 q 604 -187 604 -144 q 576 -258 604 -231 q 506 -286 547 -286 z "},"Ʋ":{"ha":1085,"x_min":119,"x_max":974,"o":"m 544 -14 q 233 99 346 -14 q 119 424 119 211 l 119 972 l 300 972 l 300 431 q 365 213 300 281 q 546 144 429 144 q 728 213 664 144 q 793 431 793 281 l 793 742 q 775 812 793 786 q 728 846 757 838 q 663 846 699 854 q 594 815 628 838 l 542 946 q 680 997 606 986 q 821 985 754 1007 q 931 905 888 963 q 974 749 974 847 l 974 424 q 860 99 974 211 q 544 -14 746 -14 z "},"Ṽ":{"ha":1013,"x_min":-7,"x_max":1019,"o":"m 418 0 l -7 972 l 189 972 l 568 93 l 456 93 l 839 972 l 1019 972 l 596 0 l 418 0 m 615 1044 q 549 1060 578 1044 q 497 1094 519 1075 q 451 1128 474 1113 q 407 1143 429 1143 q 358 1117 376 1143 q 339 1054 340 1090 l 238 1054 q 281 1195 239 1139 q 396 1251 324 1251 q 464 1237 435 1251 q 516 1203 493 1222 q 561 1169 539 1183 q 606 1154 583 1154 q 653 1180 636 1154 q 672 1240 671 1206 l 771 1240 q 728 1101 769 1157 q 615 1044 688 1044 z "},"Ʌ":{"ha":1013,"x_min":-7,"x_max":1019,"o":"m 594 972 l 1019 0 l 824 0 l 444 879 l 557 879 l 172 0 l -7 0 l 417 972 l 594 972 z "},"W":{"ha":1589,"x_min":38,"x_max":1551,"o":"m 360 0 l 38 972 l 225 972 l 513 93 l 419 93 l 718 972 l 885 972 l 1175 93 l 1085 93 l 1379 972 l 1551 972 l 1229 0 l 1038 0 l 772 793 l 822 793 l 553 0 l 360 0 z "},"Ẃ":{"ha":1589,"x_min":38,"x_max":1551,"o":"m 360 0 l 38 972 l 225 972 l 513 93 l 419 93 l 718 972 l 885 972 l 1175 93 l 1085 93 l 1379 972 l 1551 972 l 1229 0 l 1038 0 l 772 793 l 822 793 l 553 0 l 360 0 m 679 1051 l 867 1242 l 1071 1242 l 829 1051 l 679 1051 z "},"Ŵ":{"ha":1589,"x_min":38,"x_max":1551,"o":"m 360 0 l 38 972 l 225 972 l 513 93 l 419 93 l 718 972 l 885 972 l 1175 93 l 1085 93 l 1379 972 l 1551 972 l 1229 0 l 1038 0 l 772 793 l 822 793 l 553 0 l 360 0 m 531 1051 l 717 1242 l 875 1242 l 1061 1051 l 918 1051 l 729 1211 l 863 1211 l 674 1051 l 531 1051 z "},"Ẅ":{"ha":1589,"x_min":38,"x_max":1551,"o":"m 360 0 l 38 972 l 225 972 l 513 93 l 419 93 l 718 972 l 885 972 l 1175 93 l 1085 93 l 1379 972 l 1551 972 l 1229 0 l 1038 0 l 772 793 l 822 793 l 553 0 l 360 0 m 931 1067 q 872 1090 896 1067 q 847 1150 847 1113 q 872 1211 847 1188 q 931 1235 896 1235 q 990 1211 965 1235 q 1014 1150 1014 1188 q 990 1090 1014 1113 q 931 1067 965 1067 m 661 1067 q 602 1090 626 1067 q 578 1150 578 1113 q 602 1211 578 1188 q 661 1235 626 1235 q 720 1211 696 1235 q 744 1150 744 1188 q 720 1090 744 1113 q 661 1067 696 1067 z "},"Ẇ":{"ha":1589,"x_min":38,"x_max":1551,"o":"m 360 0 l 38 972 l 225 972 l 513 93 l 419 93 l 718 972 l 885 972 l 1175 93 l 1085 93 l 1379 972 l 1551 972 l 1229 0 l 1038 0 l 772 793 l 822 793 l 553 0 l 360 0 m 796 1068 q 725 1096 753 1068 q 697 1167 697 1124 q 725 1238 697 1210 q 796 1265 753 1265 q 866 1238 838 1265 q 894 1167 894 1210 q 866 1096 894 1124 q 796 1068 838 1068 z "},"Ẉ":{"ha":1589,"x_min":38,"x_max":1551,"o":"m 360 0 l 38 972 l 225 972 l 513 93 l 419 93 l 718 972 l 885 972 l 1175 93 l 1085 93 l 1379 972 l 1551 972 l 1229 0 l 1038 0 l 772 793 l 822 793 l 553 0 l 360 0 m 796 -286 q 725 -258 753 -286 q 697 -187 697 -231 q 725 -117 697 -144 q 796 -89 753 -89 q 866 -117 838 -89 q 894 -187 894 -144 q 866 -258 894 -231 q 796 -286 838 -286 z "},"Ẁ":{"ha":1589,"x_min":38,"x_max":1551,"o":"m 360 0 l 38 972 l 225 972 l 513 93 l 419 93 l 718 972 l 885 972 l 1175 93 l 1085 93 l 1379 972 l 1551 972 l 1229 0 l 1038 0 l 772 793 l 822 793 l 553 0 l 360 0 m 763 1051 l 521 1242 l 725 1242 l 913 1051 l 763 1051 z "},"Ⱳ":{"ha":1632,"x_min":38,"x_max":1689,"o":"m 360 0 l 38 972 l 225 972 l 513 93 l 419 93 l 718 972 l 885 972 l 1153 93 l 1065 93 l 1326 865 q 1391 977 1350 936 q 1482 1033 1432 1018 q 1586 1040 1532 1049 q 1689 1001 1640 1031 l 1624 871 q 1543 881 1585 893 q 1483 814 1501 869 l 1210 0 l 1017 0 l 772 793 l 822 793 l 553 0 l 360 0 z "},"X":{"ha":963,"x_min":13,"x_max":951,"o":"m 13 0 l 422 564 l 422 428 l 32 972 l 236 972 l 526 569 l 443 568 l 731 972 l 926 972 l 539 438 l 539 568 l 951 0 l 743 0 l 438 428 l 519 428 l 218 0 l 13 0 z "},"Ẍ":{"ha":963,"x_min":13,"x_max":951,"o":"m 13 0 l 422 564 l 422 428 l 32 972 l 236 972 l 526 569 l 443 568 l 731 972 l 926 972 l 539 438 l 539 568 l 951 0 l 743 0 l 438 428 l 519 428 l 218 0 l 13 0 m 617 1067 q 558 1090 582 1067 q 533 1150 533 1113 q 558 1211 533 1188 q 617 1235 582 1235 q 676 1211 651 1235 q 700 1150 700 1188 q 676 1090 700 1113 q 617 1067 651 1067 m 347 1067 q 288 1090 313 1067 q 264 1150 264 1113 q 288 1211 264 1188 q 347 1235 313 1235 q 406 1211 382 1235 q 431 1150 431 1188 q 406 1090 431 1113 q 347 1067 382 1067 z "},"Ẋ":{"ha":963,"x_min":13,"x_max":951,"o":"m 13 0 l 422 564 l 422 428 l 32 972 l 236 972 l 526 569 l 443 568 l 731 972 l 926 972 l 539 438 l 539 568 l 951 0 l 743 0 l 438 428 l 519 428 l 218 0 l 13 0 m 482 1068 q 411 1096 439 1068 q 383 1167 383 1124 q 411 1238 383 1210 q 482 1265 439 1265 q 552 1238 524 1265 q 581 1167 581 1210 q 552 1096 581 1124 q 482 1068 524 1068 z "},"Y":{"ha":918,"x_min":-12,"x_max":931,"o":"m 369 0 l 369 385 l 410 274 l -12 972 l 181 972 l 519 410 l 411 410 l 753 972 l 931 972 l 508 274 l 550 385 l 550 0 l 369 0 z "},"Ý":{"ha":918,"x_min":-12,"x_max":931,"o":"m 369 0 l 369 385 l 410 274 l -12 972 l 181 972 l 519 410 l 411 410 l 753 972 l 931 972 l 508 274 l 550 385 l 550 0 l 369 0 m 343 1051 l 531 1242 l 735 1242 l 493 1051 l 343 1051 z "},"Ŷ":{"ha":918,"x_min":-12,"x_max":931,"o":"m 369 0 l 369 385 l 410 274 l -12 972 l 181 972 l 519 410 l 411 410 l 753 972 l 931 972 l 508 274 l 550 385 l 550 0 l 369 0 m 194 1051 l 381 1242 l 539 1242 l 725 1051 l 582 1051 l 393 1211 l 526 1211 l 338 1051 l 194 1051 z "},"Ÿ":{"ha":918,"x_min":-12,"x_max":931,"o":"m 369 0 l 369 385 l 410 274 l -12 972 l 181 972 l 519 410 l 411 410 l 753 972 l 931 972 l 508 274 l 550 385 l 550 0 l 369 0 m 594 1067 q 535 1090 560 1067 q 511 1150 511 1113 q 535 1211 511 1188 q 594 1235 560 1235 q 653 1211 629 1235 q 678 1150 678 1188 q 653 1090 678 1113 q 594 1067 629 1067 m 325 1067 q 266 1090 290 1067 q 242 1150 242 1113 q 266 1211 242 1188 q 325 1235 290 1235 q 384 1211 360 1235 q 408 1150 408 1188 q 384 1090 408 1113 q 325 1067 360 1067 z "},"Ẏ":{"ha":918,"x_min":-12,"x_max":931,"o":"m 369 0 l 369 385 l 410 274 l -12 972 l 181 972 l 519 410 l 411 410 l 753 972 l 931 972 l 508 274 l 550 385 l 550 0 l 369 0 m 460 1068 q 389 1096 417 1068 q 361 1167 361 1124 q 389 1238 361 1210 q 460 1265 417 1265 q 530 1238 501 1265 q 558 1167 558 1210 q 530 1096 558 1124 q 460 1068 501 1068 z "},"Ỵ":{"ha":918,"x_min":-12,"x_max":931,"o":"m 369 0 l 369 385 l 410 274 l -12 972 l 181 972 l 519 410 l 411 410 l 753 972 l 931 972 l 508 274 l 550 385 l 550 0 l 369 0 m 460 -286 q 389 -258 417 -286 q 361 -187 361 -231 q 389 -117 361 -144 q 460 -89 417 -89 q 530 -117 501 -89 q 558 -187 558 -144 q 530 -258 558 -231 q 460 -286 501 -286 z "},"Ỳ":{"ha":918,"x_min":-12,"x_max":931,"o":"m 369 0 l 369 385 l 410 274 l -12 972 l 181 972 l 519 410 l 411 410 l 753 972 l 931 972 l 508 274 l 550 385 l 550 0 l 369 0 m 426 1051 l 185 1242 l 389 1242 l 576 1051 l 426 1051 z "},"Ƴ":{"ha":974,"x_min":-12,"x_max":1063,"o":"m 1063 992 l 986 867 q 913 889 954 894 q 842 832 872 883 l 508 274 l 550 385 l 550 0 l 369 0 l 369 385 l 410 274 l -12 972 l 181 972 l 519 410 l 413 410 l 715 914 q 822 1022 761 992 q 947 1042 883 1051 q 1063 992 1011 1032 z "},"Ỷ":{"ha":918,"x_min":-12,"x_max":931,"o":"m 369 0 l 369 385 l 410 274 l -12 972 l 181 972 l 519 410 l 411 410 l 753 972 l 931 972 l 508 274 l 550 385 l 550 0 l 369 0 m 467 1010 l 410 1074 q 467 1115 450 1093 q 485 1163 485 1136 q 466 1207 485 1190 q 415 1224 447 1224 q 333 1197 374 1224 l 296 1272 q 363 1306 326 1294 q 435 1317 399 1317 q 515 1299 479 1317 q 569 1251 550 1282 q 589 1176 589 1219 q 559 1081 589 1122 q 467 1010 529 1039 z "},"Ȳ":{"ha":918,"x_min":-12,"x_max":931,"o":"m 369 0 l 369 385 l 410 274 l -12 972 l 181 972 l 519 410 l 411 410 l 753 972 l 931 972 l 508 274 l 550 385 l 550 0 l 369 0 m 219 1094 l 219 1199 l 700 1199 l 700 1094 l 219 1094 z "},"Ʀ":{"ha":1015,"x_min":131,"x_max":961,"o":"m 229 189 l 229 338 l 522 338 q 702 389 642 338 q 763 532 763 440 q 702 674 763 624 q 522 725 642 725 l 229 725 l 229 878 l 529 878 q 834 786 724 878 q 944 532 944 694 q 894 348 944 425 q 752 230 844 271 q 531 189 660 189 l 229 189 m 131 0 l 131 972 l 311 972 l 311 0 l 131 0 m 767 -139 l 519 228 l 713 228 l 961 -139 l 767 -139 z "},"Ɏ":{"ha":918,"x_min":-12,"x_max":931,"o":"m 369 0 l 369 357 l 410 246 l -12 972 l 176 972 l 513 386 l 419 386 l 757 972 l 931 972 l 508 246 l 550 357 l 550 0 l 369 0 m -12 694 l -12 828 l 931 828 l 931 694 l -12 694 z "},"Ỹ":{"ha":918,"x_min":-12,"x_max":931,"o":"m 369 0 l 369 385 l 410 274 l -12 972 l 181 972 l 519 410 l 411 410 l 753 972 l 931 972 l 508 274 l 550 385 l 550 0 l 369 0 m 569 1044 q 503 1060 532 1044 q 451 1094 474 1075 q 406 1128 428 1113 q 361 1143 383 1143 q 313 1117 331 1143 q 293 1054 294 1090 l 192 1054 q 235 1195 193 1139 q 350 1251 278 1251 q 418 1237 389 1251 q 470 1203 447 1222 q 515 1169 493 1183 q 560 1154 538 1154 q 608 1180 590 1154 q 626 1240 625 1206 l 725 1240 q 683 1101 724 1157 q 569 1044 642 1044 z "},"Z":{"ha":921,"x_min":57,"x_max":886,"o":"m 57 0 l 57 121 l 685 888 l 706 819 l 67 819 l 67 972 l 868 972 l 868 851 l 240 85 l 218 153 l 886 153 l 886 0 l 57 0 z "},"Ź":{"ha":921,"x_min":57,"x_max":886,"o":"m 57 0 l 57 121 l 685 888 l 706 819 l 67 819 l 67 972 l 868 972 l 868 851 l 240 85 l 218 153 l 886 153 l 886 0 l 57 0 m 356 1051 l 543 1242 l 747 1242 l 506 1051 l 356 1051 z "},"Ž":{"ha":921,"x_min":57,"x_max":886,"o":"m 57 0 l 57 121 l 685 888 l 706 819 l 67 819 l 67 972 l 868 972 l 868 851 l 240 85 l 218 153 l 886 153 l 886 0 l 57 0 m 393 1051 l 207 1242 l 350 1242 l 539 1083 l 406 1083 l 594 1242 l 738 1242 l 551 1051 l 393 1051 z "},"Ẑ":{"ha":921,"x_min":57,"x_max":886,"o":"m 57 0 l 57 121 l 685 888 l 706 819 l 67 819 l 67 972 l 868 972 l 868 851 l 240 85 l 218 153 l 886 153 l 886 0 l 57 0 m 207 1051 l 393 1242 l 551 1242 l 738 1051 l 594 1051 l 406 1211 l 539 1211 l 350 1051 l 207 1051 z "},"Ż":{"ha":921,"x_min":57,"x_max":886,"o":"m 57 0 l 57 121 l 685 888 l 706 819 l 67 819 l 67 972 l 868 972 l 868 851 l 240 85 l 218 153 l 886 153 l 886 0 l 57 0 m 472 1068 q 401 1096 429 1068 q 374 1167 374 1124 q 401 1238 374 1210 q 472 1265 429 1265 q 542 1238 514 1265 q 571 1167 571 1210 q 542 1096 571 1124 q 472 1068 514 1068 z "},"Ẓ":{"ha":921,"x_min":57,"x_max":886,"o":"m 57 0 l 57 121 l 685 888 l 706 819 l 67 819 l 67 972 l 868 972 l 868 851 l 240 85 l 218 153 l 886 153 l 886 0 l 57 0 m 478 -286 q 407 -258 435 -286 q 379 -187 379 -231 q 407 -117 379 -144 q 478 -89 435 -89 q 548 -117 519 -89 q 576 -187 576 -144 q 548 -258 576 -231 q 478 -286 519 -286 z "},"Ẕ":{"ha":921,"x_min":57,"x_max":886,"o":"m 57 0 l 57 121 l 685 888 l 706 819 l 67 819 l 67 972 l 868 972 l 868 851 l 240 85 l 218 153 l 886 153 l 886 0 l 57 0 m 238 -239 l 238 -135 l 718 -135 l 718 -239 l 238 -239 z "},"Ƶ":{"ha":921,"x_min":57,"x_max":886,"o":"m 57 0 l 57 121 l 685 888 l 706 819 l 67 819 l 67 972 l 868 972 l 868 851 l 240 85 l 218 153 l 886 153 l 886 0 l 57 0 m 165 432 l 165 564 l 779 564 l 779 432 l 165 432 z "},"Ꞌ":{"ha":385,"x_min":103,"x_max":282,"o":"m 103 413 l 103 972 l 282 972 l 258 413 l 103 413 z "},"ɪ":{"ha":526,"x_min":46,"x_max":479,"o":"m 46 604 l 46 742 l 479 742 l 479 604 l 46 604 m 46 0 l 46 138 l 479 138 l 479 0 l 46 0 m 176 0 l 176 742 l 350 742 l 350 0 l 176 0 z "},"ᵻ":{"ha":583,"x_min":75,"x_max":508,"o":"m 75 604 l 75 742 l 508 742 l 508 604 l 75 604 m 75 0 l 75 138 l 508 138 l 508 0 l 75 0 m 204 0 l 204 742 l 378 742 l 378 0 l 204 0 m 78 322 l 78 435 l 506 435 l 506 322 l 78 322 z "},"ɴ":{"ha":925,"x_min":99,"x_max":826,"o":"m 99 0 l 99 742 l 243 742 l 724 211 l 654 211 l 654 742 l 826 742 l 826 0 l 683 0 l 203 532 l 271 532 l 271 0 l 99 0 z "},"ʀ":{"ha":856,"x_min":114,"x_max":815,"o":"m 114 0 l 114 742 l 454 742 q 707 669 615 742 q 799 474 799 597 q 757 331 799 390 q 638 240 715 271 q 454 208 561 208 l 211 208 l 288 282 l 288 0 l 114 0 m 626 0 l 425 269 l 611 269 l 815 0 l 626 0 m 288 264 l 211 349 l 447 349 q 579 381 535 349 q 624 474 624 414 q 579 567 624 533 q 447 600 535 600 l 211 600 l 288 682 l 288 264 z "},"ᵾ":{"ha":1008,"x_min":11,"x_max":988,"o":"m 457 -10 q 290 26 363 -10 q 177 134 218 61 q 136 318 136 207 l 136 742 l 310 742 l 310 342 q 356 192 310 242 q 485 143 401 143 q 591 168 546 143 q 662 243 636 193 q 688 367 688 293 l 688 742 l 861 742 l 861 0 l 696 0 l 696 200 l 725 139 q 615 28 688 67 q 457 -10 543 -10 m 11 335 l 11 447 l 988 447 l 988 335 l 11 335 z "},"a":{"ha":843,"x_min":61,"x_max":735,"o":"m 571 0 l 571 150 l 561 182 l 561 444 q 515 563 561 521 q 376 606 469 606 q 253 586 314 606 q 151 532 193 567 l 83 658 q 226 727 143 704 q 397 750 308 750 q 647 673 558 750 q 735 435 735 596 l 735 0 l 571 0 m 338 -10 q 192 19 254 -10 q 95 98 129 47 q 61 213 61 149 q 91 325 61 275 q 189 404 121 375 q 369 433 257 433 l 585 433 l 585 318 l 382 318 q 263 290 293 318 q 232 219 232 261 q 269 144 232 172 q 374 117 307 117 q 488 146 438 117 q 561 232 539 175 l 590 128 q 501 26 565 63 q 338 -10 436 -10 z "},"á":{"ha":843,"x_min":61,"x_max":735,"o":"m 571 0 l 571 150 l 561 182 l 561 444 q 515 563 561 521 q 376 606 469 606 q 253 586 314 606 q 151 532 193 567 l 83 658 q 226 727 143 704 q 397 750 308 750 q 647 673 558 750 q 735 435 735 596 l 735 0 l 571 0 m 338 -10 q 192 19 254 -10 q 95 98 129 47 q 61 213 61 149 q 91 325 61 275 q 189 404 121 375 q 369 433 257 433 l 585 433 l 585 318 l 382 318 q 263 290 293 318 q 232 219 232 261 q 269 144 232 172 q 374 117 307 117 q 488 146 438 117 q 561 232 539 175 l 590 128 q 501 26 565 63 q 338 -10 436 -10 m 296 843 l 483 1033 l 688 1033 l 446 843 l 296 843 z "},"ă":{"ha":843,"x_min":61,"x_max":735,"o":"m 571 0 l 571 150 l 561 182 l 561 444 q 515 563 561 521 q 376 606 469 606 q 253 586 314 606 q 151 532 193 567 l 83 658 q 226 727 143 704 q 397 750 308 750 q 647 673 558 750 q 735 435 735 596 l 735 0 l 571 0 m 338 -10 q 192 19 254 -10 q 95 98 129 47 q 61 213 61 149 q 91 325 61 275 q 189 404 121 375 q 369 433 257 433 l 585 433 l 585 318 l 382 318 q 263 290 293 318 q 232 219 232 261 q 269 144 232 172 q 374 117 307 117 q 488 146 438 117 q 561 232 539 175 l 590 128 q 501 26 565 63 q 338 -10 436 -10 m 413 833 q 244 888 311 833 q 172 1033 176 942 l 286 1033 q 325 957 289 985 q 413 929 361 929 q 501 957 464 929 q 539 1033 538 985 l 653 1033 q 581 888 649 942 q 413 833 514 833 z "},"ắ":{"ha":843,"x_min":61,"x_max":735,"o":"m 571 0 l 571 150 l 561 182 l 561 444 q 515 563 561 521 q 376 606 469 606 q 253 586 314 606 q 151 532 193 567 l 83 658 q 226 727 143 704 q 397 750 308 750 q 647 673 558 750 q 735 435 735 596 l 735 0 l 571 0 m 338 -10 q 192 19 254 -10 q 95 98 129 47 q 61 213 61 149 q 91 325 61 275 q 189 404 121 375 q 369 433 257 433 l 585 433 l 585 318 l 382 318 q 263 290 293 318 q 232 219 232 261 q 269 144 232 172 q 374 117 307 117 q 488 146 438 117 q 561 232 539 175 l 590 128 q 501 26 565 63 q 338 -10 436 -10 m 413 847 q 247 889 313 847 q 172 1006 181 931 l 283 1006 q 324 955 288 974 q 413 936 360 936 q 501 955 465 936 q 542 1006 538 974 l 653 1006 q 579 889 646 931 q 413 847 513 847 m 306 1029 l 464 1192 l 650 1192 l 439 1029 l 306 1029 z "},"ặ":{"ha":843,"x_min":61,"x_max":735,"o":"m 571 0 l 571 150 l 561 182 l 561 444 q 515 563 561 521 q 376 606 469 606 q 253 586 314 606 q 151 532 193 567 l 83 658 q 226 727 143 704 q 397 750 308 750 q 647 673 558 750 q 735 435 735 596 l 735 0 l 571 0 m 338 -10 q 192 19 254 -10 q 95 98 129 47 q 61 213 61 149 q 91 325 61 275 q 189 404 121 375 q 369 433 257 433 l 585 433 l 585 318 l 382 318 q 263 290 293 318 q 232 219 232 261 q 269 144 232 172 q 374 117 307 117 q 488 146 438 117 q 561 232 539 175 l 590 128 q 501 26 565 63 q 338 -10 436 -10 m 404 -287 q 333 -260 361 -287 q 306 -189 306 -232 q 333 -118 306 -146 q 404 -90 361 -90 q 474 -118 446 -90 q 503 -189 503 -146 q 474 -260 503 -232 q 404 -287 446 -287 m 413 833 q 244 888 311 833 q 172 1033 176 942 l 286 1033 q 325 957 289 985 q 413 929 361 929 q 501 957 464 929 q 539 1033 538 985 l 653 1033 q 581 888 649 942 q 413 833 514 833 z "},"ằ":{"ha":843,"x_min":61,"x_max":735,"o":"m 571 0 l 571 150 l 561 182 l 561 444 q 515 563 561 521 q 376 606 469 606 q 253 586 314 606 q 151 532 193 567 l 83 658 q 226 727 143 704 q 397 750 308 750 q 647 673 558 750 q 735 435 735 596 l 735 0 l 571 0 m 338 -10 q 192 19 254 -10 q 95 98 129 47 q 61 213 61 149 q 91 325 61 275 q 189 404 121 375 q 369 433 257 433 l 585 433 l 585 318 l 382 318 q 263 290 293 318 q 232 219 232 261 q 269 144 232 172 q 374 117 307 117 q 488 146 438 117 q 561 232 539 175 l 590 128 q 501 26 565 63 q 338 -10 436 -10 m 413 847 q 247 889 313 847 q 172 1006 181 931 l 283 1006 q 324 955 288 974 q 413 936 360 936 q 501 955 465 936 q 542 1006 538 974 l 653 1006 q 579 889 646 931 q 413 847 513 847 m 388 1029 l 176 1192 l 363 1192 l 521 1029 l 388 1029 z "},"ẳ":{"ha":843,"x_min":61,"x_max":735,"o":"m 571 0 l 571 150 l 561 182 l 561 444 q 515 563 561 521 q 376 606 469 606 q 253 586 314 606 q 151 532 193 567 l 83 658 q 226 727 143 704 q 397 750 308 750 q 647 673 558 750 q 735 435 735 596 l 735 0 l 571 0 m 338 -10 q 192 19 254 -10 q 95 98 129 47 q 61 213 61 149 q 91 325 61 275 q 189 404 121 375 q 369 433 257 433 l 585 433 l 585 318 l 382 318 q 263 290 293 318 q 232 219 232 261 q 269 144 232 172 q 374 117 307 117 q 488 146 438 117 q 561 232 539 175 l 590 128 q 501 26 565 63 q 338 -10 436 -10 m 413 847 q 247 889 313 847 q 172 1006 181 931 l 283 1006 q 324 955 288 974 q 413 936 360 936 q 501 955 465 936 q 542 1006 538 974 l 653 1006 q 579 889 646 931 q 413 847 513 847 m 440 990 l 396 1038 q 437 1067 424 1051 q 450 1099 450 1083 q 436 1130 450 1118 q 400 1142 422 1142 q 339 1125 371 1142 l 308 1183 q 359 1206 331 1199 q 415 1213 388 1213 q 501 1183 469 1213 q 532 1108 532 1154 q 507 1037 532 1068 q 440 990 482 1006 z "},"ẵ":{"ha":843,"x_min":61,"x_max":735,"o":"m 571 0 l 571 150 l 561 182 l 561 444 q 515 563 561 521 q 376 606 469 606 q 253 586 314 606 q 151 532 193 567 l 83 658 q 226 727 143 704 q 397 750 308 750 q 647 673 558 750 q 735 435 735 596 l 735 0 l 571 0 m 338 -10 q 192 19 254 -10 q 95 98 129 47 q 61 213 61 149 q 91 325 61 275 q 189 404 121 375 q 369 433 257 433 l 585 433 l 585 318 l 382 318 q 263 290 293 318 q 232 219 232 261 q 269 144 232 172 q 374 117 307 117 q 488 146 438 117 q 561 232 539 175 l 590 128 q 501 26 565 63 q 338 -10 436 -10 m 413 847 q 247 889 313 847 q 172 1006 181 931 l 283 1006 q 324 955 288 974 q 413 936 360 936 q 501 955 465 936 q 542 1006 538 974 l 653 1006 q 579 889 646 931 q 413 847 513 847 m 514 1060 q 451 1071 478 1060 q 401 1097 424 1082 q 360 1124 379 1113 q 322 1135 342 1135 q 277 1117 292 1135 q 261 1068 263 1099 l 167 1068 q 208 1184 168 1143 q 314 1225 247 1225 q 392 1206 360 1225 q 452 1169 425 1188 q 506 1151 479 1151 q 550 1169 535 1151 q 567 1217 565 1188 l 658 1217 q 618 1102 657 1144 q 514 1060 579 1060 z "},"ǎ":{"ha":843,"x_min":61,"x_max":735,"o":"m 571 0 l 571 150 l 561 182 l 561 444 q 515 563 561 521 q 376 606 469 606 q 253 586 314 606 q 151 532 193 567 l 83 658 q 226 727 143 704 q 397 750 308 750 q 647 673 558 750 q 735 435 735 596 l 735 0 l 571 0 m 338 -10 q 192 19 254 -10 q 95 98 129 47 q 61 213 61 149 q 91 325 61 275 q 189 404 121 375 q 369 433 257 433 l 585 433 l 585 318 l 382 318 q 263 290 293 318 q 232 219 232 261 q 269 144 232 172 q 374 117 307 117 q 488 146 438 117 q 561 232 539 175 l 590 128 q 501 26 565 63 q 338 -10 436 -10 m 333 843 l 147 1033 l 290 1033 l 479 875 l 346 875 l 535 1033 l 678 1033 l 492 843 l 333 843 z "},"â":{"ha":843,"x_min":61,"x_max":735,"o":"m 571 0 l 571 150 l 561 182 l 561 444 q 515 563 561 521 q 376 606 469 606 q 253 586 314 606 q 151 532 193 567 l 83 658 q 226 727 143 704 q 397 750 308 750 q 647 673 558 750 q 735 435 735 596 l 735 0 l 571 0 m 338 -10 q 192 19 254 -10 q 95 98 129 47 q 61 213 61 149 q 91 325 61 275 q 189 404 121 375 q 369 433 257 433 l 585 433 l 585 318 l 382 318 q 263 290 293 318 q 232 219 232 261 q 269 144 232 172 q 374 117 307 117 q 488 146 438 117 q 561 232 539 175 l 590 128 q 501 26 565 63 q 338 -10 436 -10 m 147 843 l 333 1033 l 492 1033 l 678 843 l 535 843 l 346 1003 l 479 1003 l 290 843 l 147 843 z "},"ấ":{"ha":843,"x_min":61,"x_max":910,"o":"m 571 0 l 571 150 l 561 182 l 561 444 q 515 563 561 521 q 376 606 469 606 q 253 586 314 606 q 151 532 193 567 l 83 658 q 226 727 143 704 q 397 750 308 750 q 647 673 558 750 q 735 435 735 596 l 735 0 l 571 0 m 338 -10 q 192 19 254 -10 q 95 98 129 47 q 61 213 61 149 q 91 325 61 275 q 189 404 121 375 q 369 433 257 433 l 585 433 l 585 318 l 382 318 q 263 290 293 318 q 232 219 232 261 q 269 144 232 172 q 374 117 307 117 q 488 146 438 117 q 561 232 539 175 l 590 128 q 501 26 565 63 q 338 -10 436 -10 m 147 843 l 335 992 l 490 992 l 678 843 l 533 843 l 347 961 l 478 961 l 292 843 l 147 843 m 565 971 l 724 1133 l 910 1133 l 699 971 l 565 971 z "},"ậ":{"ha":843,"x_min":61,"x_max":735,"o":"m 571 0 l 571 150 l 561 182 l 561 444 q 515 563 561 521 q 376 606 469 606 q 253 586 314 606 q 151 532 193 567 l 83 658 q 226 727 143 704 q 397 750 308 750 q 647 673 558 750 q 735 435 735 596 l 735 0 l 571 0 m 338 -10 q 192 19 254 -10 q 95 98 129 47 q 61 213 61 149 q 91 325 61 275 q 189 404 121 375 q 369 433 257 433 l 585 433 l 585 318 l 382 318 q 263 290 293 318 q 232 219 232 261 q 269 144 232 172 q 374 117 307 117 q 488 146 438 117 q 561 232 539 175 l 590 128 q 501 26 565 63 q 338 -10 436 -10 m 404 -287 q 333 -260 361 -287 q 306 -189 306 -232 q 333 -118 306 -146 q 404 -90 361 -90 q 474 -118 446 -90 q 503 -189 503 -146 q 474 -260 503 -232 q 404 -287 446 -287 m 147 843 l 333 1033 l 492 1033 l 678 843 l 535 843 l 346 1003 l 479 1003 l 290 843 l 147 843 z "},"ầ":{"ha":843,"x_min":61,"x_max":781,"o":"m 571 0 l 571 150 l 561 182 l 561 444 q 515 563 561 521 q 376 606 469 606 q 253 586 314 606 q 151 532 193 567 l 83 658 q 226 727 143 704 q 397 750 308 750 q 647 673 558 750 q 735 435 735 596 l 735 0 l 571 0 m 338 -10 q 192 19 254 -10 q 95 98 129 47 q 61 213 61 149 q 91 325 61 275 q 189 404 121 375 q 369 433 257 433 l 585 433 l 585 318 l 382 318 q 263 290 293 318 q 232 219 232 261 q 269 144 232 172 q 374 117 307 117 q 488 146 438 117 q 561 232 539 175 l 590 128 q 501 26 565 63 q 338 -10 436 -10 m 147 843 l 335 992 l 490 992 l 678 843 l 533 843 l 347 961 l 478 961 l 292 843 l 147 843 m 647 971 l 436 1133 l 622 1133 l 781 971 l 647 971 z "},"ẩ":{"ha":843,"x_min":61,"x_max":735,"o":"m 571 0 l 571 150 l 561 182 l 561 444 q 515 563 561 521 q 376 606 469 606 q 253 586 314 606 q 151 532 193 567 l 83 658 q 226 727 143 704 q 397 750 308 750 q 647 673 558 750 q 735 435 735 596 l 735 0 l 571 0 m 338 -10 q 192 19 254 -10 q 95 98 129 47 q 61 213 61 149 q 91 325 61 275 q 189 404 121 375 q 369 433 257 433 l 585 433 l 585 318 l 382 318 q 263 290 293 318 q 232 219 232 261 q 269 144 232 172 q 374 117 307 117 q 488 146 438 117 q 561 232 539 175 l 590 128 q 501 26 565 63 q 338 -10 436 -10 m 147 843 l 335 992 l 490 992 l 678 843 l 533 843 l 347 961 l 478 961 l 292 843 l 147 843 m 636 944 l 592 992 q 633 1022 619 1006 q 646 1053 646 1038 q 632 1084 646 1072 q 596 1096 618 1096 q 535 1079 567 1096 l 504 1138 q 555 1160 526 1153 q 611 1167 583 1167 q 697 1138 665 1167 q 728 1063 728 1108 q 703 991 728 1022 q 636 944 678 960 z "},"ẫ":{"ha":843,"x_min":61,"x_max":735,"o":"m 571 0 l 571 150 l 561 182 l 561 444 q 515 563 561 521 q 376 606 469 606 q 253 586 314 606 q 151 532 193 567 l 83 658 q 226 727 143 704 q 397 750 308 750 q 647 673 558 750 q 735 435 735 596 l 735 0 l 571 0 m 338 -10 q 192 19 254 -10 q 95 98 129 47 q 61 213 61 149 q 91 325 61 275 q 189 404 121 375 q 369 433 257 433 l 585 433 l 585 318 l 382 318 q 263 290 293 318 q 232 219 232 261 q 269 144 232 172 q 374 117 307 117 q 488 146 438 117 q 561 232 539 175 l 590 128 q 501 26 565 63 q 338 -10 436 -10 m 147 843 l 335 992 l 490 992 l 678 843 l 533 843 l 347 961 l 478 961 l 292 843 l 147 843 m 514 1043 q 451 1054 478 1043 q 401 1081 424 1065 q 360 1107 379 1096 q 322 1118 342 1118 q 277 1100 292 1118 q 261 1051 263 1082 l 167 1051 q 208 1167 168 1126 q 314 1208 247 1208 q 392 1190 360 1208 q 452 1153 425 1171 q 506 1135 479 1135 q 550 1153 535 1135 q 567 1200 565 1171 l 658 1200 q 618 1085 657 1128 q 514 1043 579 1043 z "},"ȁ":{"ha":843,"x_min":61,"x_max":735,"o":"m 571 0 l 571 150 l 561 182 l 561 444 q 515 563 561 521 q 376 606 469 606 q 253 586 314 606 q 151 532 193 567 l 83 658 q 226 727 143 704 q 397 750 308 750 q 647 673 558 750 q 735 435 735 596 l 735 0 l 571 0 m 338 -10 q 192 19 254 -10 q 95 98 129 47 q 61 213 61 149 q 91 325 61 275 q 189 404 121 375 q 369 433 257 433 l 585 433 l 585 318 l 382 318 q 263 290 293 318 q 232 219 232 261 q 269 144 232 172 q 374 117 307 117 q 488 146 438 117 q 561 232 539 175 l 590 128 q 501 26 565 63 q 338 -10 436 -10 m 475 843 l 325 1033 l 499 1033 l 611 843 l 475 843 m 214 843 l 65 1033 l 239 1033 l 350 843 l 214 843 z "},"ä":{"ha":843,"x_min":61,"x_max":735,"o":"m 571 0 l 571 150 l 561 182 l 561 444 q 515 563 561 521 q 376 606 469 606 q 253 586 314 606 q 151 532 193 567 l 83 658 q 226 727 143 704 q 397 750 308 750 q 647 673 558 750 q 735 435 735 596 l 735 0 l 571 0 m 338 -10 q 192 19 254 -10 q 95 98 129 47 q 61 213 61 149 q 91 325 61 275 q 189 404 121 375 q 369 433 257 433 l 585 433 l 585 318 l 382 318 q 263 290 293 318 q 232 219 232 261 q 269 144 232 172 q 374 117 307 117 q 488 146 438 117 q 561 232 539 175 l 590 128 q 501 26 565 63 q 338 -10 436 -10 m 547 858 q 488 881 513 858 q 464 942 464 904 q 488 1003 464 979 q 547 1026 513 1026 q 606 1003 582 1026 q 631 942 631 979 q 606 881 631 904 q 547 858 582 858 m 278 858 q 219 881 243 858 q 194 942 194 904 q 219 1003 194 979 q 278 1026 243 1026 q 337 1003 313 1026 q 361 942 361 979 q 337 881 361 904 q 278 858 313 858 z "},"ǟ":{"ha":843,"x_min":61,"x_max":735,"o":"m 571 0 l 571 150 l 561 182 l 561 444 q 515 563 561 521 q 376 606 469 606 q 253 586 314 606 q 151 532 193 567 l 83 658 q 226 727 143 704 q 397 750 308 750 q 647 673 558 750 q 735 435 735 596 l 735 0 l 571 0 m 338 -10 q 192 19 254 -10 q 95 98 129 47 q 61 213 61 149 q 91 325 61 275 q 189 404 121 375 q 369 433 257 433 l 585 433 l 585 318 l 382 318 q 263 290 293 318 q 232 219 232 261 q 269 144 232 172 q 374 117 307 117 q 488 146 438 117 q 561 232 539 175 l 590 128 q 501 26 565 63 q 338 -10 436 -10 m 544 843 q 488 866 511 843 q 464 924 464 889 q 488 980 464 957 q 544 1003 511 1003 q 601 980 576 1003 q 625 924 625 957 q 601 866 625 889 q 544 843 576 843 m 282 843 q 225 866 249 843 q 201 924 201 889 q 225 980 201 957 q 282 1003 249 1003 q 340 980 317 1003 q 363 924 363 957 q 340 866 363 889 q 282 843 317 843 m 172 1093 l 172 1190 l 653 1190 l 653 1093 l 172 1093 z "},"ȧ":{"ha":843,"x_min":61,"x_max":735,"o":"m 571 0 l 571 150 l 561 182 l 561 444 q 515 563 561 521 q 376 606 469 606 q 253 586 314 606 q 151 532 193 567 l 83 658 q 226 727 143 704 q 397 750 308 750 q 647 673 558 750 q 735 435 735 596 l 735 0 l 571 0 m 338 -10 q 192 19 254 -10 q 95 98 129 47 q 61 213 61 149 q 91 325 61 275 q 189 404 121 375 q 369 433 257 433 l 585 433 l 585 318 l 382 318 q 263 290 293 318 q 232 219 232 261 q 269 144 232 172 q 374 117 307 117 q 488 146 438 117 q 561 232 539 175 l 590 128 q 501 26 565 63 q 338 -10 436 -10 m 413 860 q 342 888 369 860 q 314 958 314 915 q 342 1029 314 1001 q 413 1057 369 1057 q 483 1029 454 1057 q 511 958 511 1001 q 483 888 511 915 q 413 860 454 860 z "},"ạ":{"ha":843,"x_min":61,"x_max":735,"o":"m 571 0 l 571 150 l 561 182 l 561 444 q 515 563 561 521 q 376 606 469 606 q 253 586 314 606 q 151 532 193 567 l 83 658 q 226 727 143 704 q 397 750 308 750 q 647 673 558 750 q 735 435 735 596 l 735 0 l 571 0 m 338 -10 q 192 19 254 -10 q 95 98 129 47 q 61 213 61 149 q 91 325 61 275 q 189 404 121 375 q 369 433 257 433 l 585 433 l 585 318 l 382 318 q 263 290 293 318 q 232 219 232 261 q 269 144 232 172 q 374 117 307 117 q 488 146 438 117 q 561 232 539 175 l 590 128 q 501 26 565 63 q 338 -10 436 -10 m 404 -287 q 333 -260 361 -287 q 306 -189 306 -232 q 333 -118 306 -146 q 404 -90 361 -90 q 474 -118 446 -90 q 503 -189 503 -146 q 474 -260 503 -232 q 404 -287 446 -287 z "},"ǡ":{"ha":843,"x_min":61,"x_max":735,"o":"m 571 0 l 571 150 l 561 182 l 561 444 q 515 563 561 521 q 376 606 469 606 q 253 586 314 606 q 151 532 193 567 l 83 658 q 226 727 143 704 q 397 750 308 750 q 647 673 558 750 q 735 435 735 596 l 735 0 l 571 0 m 338 -10 q 192 19 254 -10 q 95 98 129 47 q 61 213 61 149 q 91 325 61 275 q 189 404 121 375 q 369 433 257 433 l 585 433 l 585 318 l 382 318 q 263 290 293 318 q 232 219 232 261 q 269 144 232 172 q 374 117 307 117 q 488 146 438 117 q 561 232 539 175 l 590 128 q 501 26 565 63 q 338 -10 436 -10 m 413 851 q 353 874 378 851 q 329 935 329 897 q 353 995 329 972 q 413 1018 378 1018 q 472 995 447 1018 q 496 935 496 972 q 472 874 496 897 q 413 851 447 851 m 172 1093 l 172 1190 l 653 1190 l 653 1093 l 172 1093 z "},"à":{"ha":843,"x_min":61,"x_max":735,"o":"m 571 0 l 571 150 l 561 182 l 561 444 q 515 563 561 521 q 376 606 469 606 q 253 586 314 606 q 151 532 193 567 l 83 658 q 226 727 143 704 q 397 750 308 750 q 647 673 558 750 q 735 435 735 596 l 735 0 l 571 0 m 338 -10 q 192 19 254 -10 q 95 98 129 47 q 61 213 61 149 q 91 325 61 275 q 189 404 121 375 q 369 433 257 433 l 585 433 l 585 318 l 382 318 q 263 290 293 318 q 232 219 232 261 q 269 144 232 172 q 374 117 307 117 q 488 146 438 117 q 561 232 539 175 l 590 128 q 501 26 565 63 q 338 -10 436 -10 m 379 843 l 138 1033 l 342 1033 l 529 843 l 379 843 z "},"ả":{"ha":843,"x_min":61,"x_max":735,"o":"m 571 0 l 571 150 l 561 182 l 561 444 q 515 563 561 521 q 376 606 469 606 q 253 586 314 606 q 151 532 193 567 l 83 658 q 226 727 143 704 q 397 750 308 750 q 647 673 558 750 q 735 435 735 596 l 735 0 l 571 0 m 338 -10 q 192 19 254 -10 q 95 98 129 47 q 61 213 61 149 q 91 325 61 275 q 189 404 121 375 q 369 433 257 433 l 585 433 l 585 318 l 382 318 q 263 290 293 318 q 232 219 232 261 q 269 144 232 172 q 374 117 307 117 q 488 146 438 117 q 561 232 539 175 l 590 128 q 501 26 565 63 q 338 -10 436 -10 m 431 815 l 374 879 q 431 920 414 899 q 449 968 449 942 q 430 1013 449 996 q 379 1029 411 1029 q 297 1003 338 1029 l 260 1078 q 326 1111 290 1100 q 399 1122 363 1122 q 478 1105 443 1122 q 533 1056 514 1088 q 553 982 553 1025 q 523 886 553 928 q 431 815 493 844 z "},"ȃ":{"ha":843,"x_min":61,"x_max":735,"o":"m 571 0 l 571 150 l 561 182 l 561 444 q 515 563 561 521 q 376 606 469 606 q 253 586 314 606 q 151 532 193 567 l 83 658 q 226 727 143 704 q 397 750 308 750 q 647 673 558 750 q 735 435 735 596 l 735 0 l 571 0 m 338 -10 q 192 19 254 -10 q 95 98 129 47 q 61 213 61 149 q 91 325 61 275 q 189 404 121 375 q 369 433 257 433 l 585 433 l 585 318 l 382 318 q 263 290 293 318 q 232 219 232 261 q 269 144 232 172 q 374 117 307 117 q 488 146 438 117 q 561 232 539 175 l 590 128 q 501 26 565 63 q 338 -10 436 -10 m 172 843 q 244 990 176 936 q 413 1043 311 1043 q 581 990 514 1043 q 653 843 649 936 l 539 843 q 501 920 538 892 q 413 949 464 949 q 325 920 361 949 q 286 843 289 892 l 172 843 z "},"ɑ":{"ha":953,"x_min":53,"x_max":839,"o":"m 428 -10 q 235 38 321 -10 q 101 171 150 86 q 53 371 53 256 q 101 571 53 486 q 235 703 150 656 q 428 750 321 750 q 593 709 519 750 q 710 585 667 668 q 754 371 754 501 q 712 158 754 242 q 597 32 669 74 q 428 -10 524 -10 m 447 139 q 560 167 510 139 q 639 247 610 194 q 668 371 668 300 q 639 495 668 443 q 560 575 610 547 q 447 603 510 603 q 335 575 385 603 q 257 495 286 547 q 228 371 228 443 q 257 247 228 300 q 335 167 286 194 q 447 139 385 139 m 674 0 l 674 175 l 679 372 l 665 569 l 665 742 l 839 742 l 839 0 l 674 0 z "},"ā":{"ha":843,"x_min":61,"x_max":735,"o":"m 571 0 l 571 150 l 561 182 l 561 444 q 515 563 561 521 q 376 606 469 606 q 253 586 314 606 q 151 532 193 567 l 83 658 q 226 727 143 704 q 397 750 308 750 q 647 673 558 750 q 735 435 735 596 l 735 0 l 571 0 m 338 -10 q 192 19 254 -10 q 95 98 129 47 q 61 213 61 149 q 91 325 61 275 q 189 404 121 375 q 369 433 257 433 l 585 433 l 585 318 l 382 318 q 263 290 293 318 q 232 219 232 261 q 269 144 232 172 q 374 117 307 117 q 488 146 438 117 q 561 232 539 175 l 590 128 q 501 26 565 63 q 338 -10 436 -10 m 172 886 l 172 990 l 653 990 l 653 886 l 172 886 z "},"ą":{"ha":843,"x_min":61,"x_max":767,"o":"m 571 0 l 571 150 l 561 182 l 561 444 q 515 563 561 521 q 376 606 469 606 q 253 586 314 606 q 151 532 193 567 l 83 658 q 226 727 143 704 q 397 750 308 750 q 647 673 558 750 q 735 435 735 596 l 735 0 l 571 0 m 338 -10 q 192 19 254 -10 q 95 98 129 47 q 61 213 61 149 q 91 325 61 275 q 189 404 121 375 q 369 433 257 433 l 585 433 l 585 318 l 382 318 q 263 290 293 318 q 232 219 232 261 q 269 144 232 172 q 374 117 307 117 q 488 146 438 117 q 561 232 539 175 l 590 128 q 501 26 565 63 q 338 -10 436 -10 m 635 -317 q 503 -276 550 -317 q 456 -168 456 -235 q 476 -88 456 -128 q 542 -13 496 -49 q 660 51 588 22 l 736 0 q 641 -51 676 -26 q 589 -101 606 -76 q 572 -154 572 -126 q 595 -204 572 -186 q 654 -222 618 -222 q 699 -216 676 -222 q 739 -200 722 -210 l 768 -285 q 707 -308 742 -299 q 635 -317 672 -317 z "},"ẚ":{"ha":843,"x_min":61,"x_max":735,"o":"m 571 0 l 571 150 l 561 182 l 561 444 q 515 563 561 521 q 376 606 469 606 q 253 586 314 606 q 151 532 193 567 l 83 658 q 226 727 143 704 q 397 750 308 750 q 647 673 558 750 q 735 435 735 596 l 735 0 l 571 0 m 338 -10 q 192 19 254 -10 q 95 98 129 47 q 61 213 61 149 q 91 325 61 275 q 189 404 121 375 q 369 433 257 433 l 585 433 l 585 318 l 382 318 q 263 290 293 318 q 232 219 232 261 q 269 144 232 172 q 374 117 307 117 q 488 146 438 117 q 561 232 539 175 l 590 128 q 501 26 565 63 q 338 -10 436 -10 m 353 824 l 353 897 q 417 922 392 897 q 442 982 442 946 q 416 1045 442 1021 q 353 1069 390 1069 l 353 1143 q 438 1121 401 1143 q 497 1063 475 1099 q 518 982 518 1026 q 497 903 518 939 q 438 845 475 867 q 353 824 401 824 z "},"å":{"ha":843,"x_min":61,"x_max":735,"o":"m 571 0 l 571 150 l 561 182 l 561 444 q 515 563 561 521 q 376 606 469 606 q 253 586 314 606 q 151 532 193 567 l 83 658 q 226 727 143 704 q 397 750 308 750 q 647 673 558 750 q 735 435 735 596 l 735 0 l 571 0 m 338 -10 q 192 19 254 -10 q 95 98 129 47 q 61 213 61 149 q 91 325 61 275 q 189 404 121 375 q 369 433 257 433 l 585 433 l 585 318 l 382 318 q 263 290 293 318 q 232 219 232 261 q 269 144 232 172 q 374 117 307 117 q 488 146 438 117 q 561 232 539 175 l 590 128 q 501 26 565 63 q 338 -10 436 -10 m 411 824 q 328 846 365 824 q 271 903 292 868 q 250 982 250 939 q 272 1063 250 1026 q 329 1122 293 1100 q 411 1143 365 1143 q 495 1122 458 1143 q 553 1063 532 1100 q 574 982 574 1026 q 553 903 574 939 q 495 845 532 867 q 411 824 458 824 m 411 894 q 475 919 450 894 q 500 982 500 944 q 475 1047 500 1021 q 411 1072 450 1072 q 349 1047 375 1072 q 324 982 324 1022 q 349 919 324 944 q 411 894 374 894 z "},"ǻ":{"ha":843,"x_min":61,"x_max":735,"o":"m 571 0 l 571 150 l 561 182 l 561 444 q 515 563 561 521 q 376 606 469 606 q 253 586 314 606 q 151 532 193 567 l 83 658 q 226 727 143 704 q 397 750 308 750 q 647 673 558 750 q 735 435 735 596 l 735 0 l 571 0 m 338 -10 q 192 19 254 -10 q 95 98 129 47 q 61 213 61 149 q 91 325 61 275 q 189 404 121 375 q 369 433 257 433 l 585 433 l 585 318 l 382 318 q 263 290 293 318 q 232 219 232 261 q 269 144 232 172 q 374 117 307 117 q 488 146 438 117 q 561 232 539 175 l 590 128 q 501 26 565 63 q 338 -10 436 -10 m 411 824 q 328 846 365 824 q 271 903 292 868 q 250 982 250 939 q 272 1063 250 1026 q 329 1122 293 1100 q 411 1143 365 1143 q 495 1122 458 1143 q 553 1063 532 1100 q 574 982 574 1026 q 553 903 574 939 q 495 845 532 867 q 411 824 458 824 m 411 894 q 475 919 450 894 q 500 982 500 944 q 475 1047 500 1021 q 411 1072 450 1072 q 349 1047 375 1072 q 324 982 324 1022 q 349 919 324 944 q 411 894 374 894 m 533 1057 l 446 1086 l 603 1247 l 692 1178 l 533 1057 z "}}}
